<svg width="606" height="111" viewBox="0 0 606 111" fill="none" xmlns="http://www.w3.org/2000/svg">
<mask id="path-1-inside-1_808_353" fill="white">
<path fill-rule="evenodd" clip-rule="evenodd" d="M14.3005 0.300781C6.40256 0.300781 0 6.70333 0 14.6013V110.415H562.01C569.908 110.415 576.311 104.012 576.311 96.1143V41.1425L604.267 29.0001C605.37 28.5209 605.425 26.9763 604.358 26.4203L576.004 11.6421C574.641 5.16411 568.894 0.300781 562.01 0.300781H14.3005Z"/>
</mask>
<path fill-rule="evenodd" clip-rule="evenodd" d="M14.3005 0.300781C6.40256 0.300781 0 6.70333 0 14.6013V110.415H562.01C569.908 110.415 576.311 104.012 576.311 96.1143V41.1425L604.267 29.0001C605.37 28.5209 605.425 26.9763 604.358 26.4203L576.004 11.6421C574.641 5.16411 568.894 0.300781 562.01 0.300781H14.3005Z" fill="white"/>
<path d="M0 110.415H-1.43005V111.845H0V110.415ZM576.311 41.1425L575.741 39.8308L574.881 40.2045V41.1425H576.311ZM604.267 29.0001L604.836 30.3118L604.267 29.0001ZM604.358 26.4203L605.019 25.1522L604.358 26.4203ZM576.004 11.6421L574.605 11.9366L574.744 12.5979L575.343 12.9103L576.004 11.6421ZM1.43005 14.6013C1.43005 7.49313 7.19235 1.73083 14.3005 1.73083V-1.12927C5.61276 -1.12927 -1.43005 5.91354 -1.43005 14.6013H1.43005ZM1.43005 110.415V14.6013H-1.43005V110.415H1.43005ZM562.01 108.985H0V111.845H562.01V108.985ZM574.881 96.1143C574.881 103.222 569.119 108.985 562.01 108.985V111.845C570.698 111.845 577.741 104.802 577.741 96.1143H574.881ZM574.881 41.1425V96.1143H577.741V41.1425H574.881ZM603.697 27.6885L575.741 39.8308L576.881 42.4542L604.836 30.3118L603.697 27.6885ZM603.697 27.6885V27.6885L604.836 30.3118C607.043 29.3533 607.152 26.2642 605.019 25.1522L603.697 27.6885ZM575.343 12.9103L603.697 27.6885L605.019 25.1522L576.665 10.374L575.343 12.9103ZM562.01 1.73083C568.204 1.73083 573.378 6.10684 574.605 11.9366L577.404 11.3477C575.904 4.22137 569.584 -1.12927 562.01 -1.12927V1.73083ZM14.3005 1.73083H562.01V-1.12927H14.3005V1.73083Z" fill="#FF8000" mask="url(#path-1-inside-1_808_353)"/>
<path d="M82.807 50.7684C83.2208 50.7684 83.5678 50.9085 83.8481 51.1888C84.1284 51.4691 84.2686 51.8161 84.2686 52.2299C84.2686 52.6436 84.1284 52.9907 83.8481 53.271C83.5678 53.5513 83.2208 53.6914 82.807 53.6914C82.4066 53.6914 82.0663 53.5513 81.786 53.271C81.5057 52.9907 81.3656 52.6436 81.3656 52.2299C81.3656 51.8161 81.5057 51.4691 81.786 51.1888C82.0663 50.9085 82.4066 50.7684 82.807 50.7684ZM81.5257 65.0231C80.1643 65.0231 79.0698 64.6494 78.2423 63.902C77.4281 63.1545 77.0211 62.1335 77.0211 60.8388C77.0211 59.4907 77.4482 58.4764 78.3024 57.7956C79.1566 57.1149 80.2911 56.7746 81.7059 56.7746L81.786 55.193H83.768L83.8681 58.3362H83.2075C81.9128 58.3362 80.9184 58.5097 80.2244 58.8567C79.5437 59.2038 79.2033 59.8645 79.2033 60.8388C79.2033 61.5462 79.4035 62.1001 79.8039 62.5005C80.2177 62.9009 80.785 63.1011 81.5057 63.1011C82.2264 63.1011 82.7937 62.9076 83.2075 62.5205C83.6212 62.1335 83.8281 61.5929 83.8281 60.8989H85.9703C85.9703 61.6997 85.7901 62.4138 85.4298 63.0411C85.0694 63.6684 84.5488 64.1556 83.8681 64.5026C83.2008 64.8496 82.42 65.0231 81.5257 65.0231ZM97.2637 48.0856V49.9475H93.5599V62H91.2775V49.9475H87.5537V48.0856H97.2637ZM100.736 49.5071C100.323 49.5071 99.9756 49.3669 99.6953 49.0866C99.415 48.8063 99.2749 48.4593 99.2749 48.0456C99.2749 47.6318 99.415 47.2848 99.6953 47.0045C99.9756 46.7242 100.323 46.584 100.736 46.584C101.137 46.584 101.477 46.7242 101.757 47.0045C102.038 47.2848 102.178 47.6318 102.178 48.0456C102.178 48.4593 102.038 48.8063 101.757 49.0866C101.477 49.3669 101.137 49.5071 100.736 49.5071ZM101.858 50.9686V62H99.5752V50.9686H101.858ZM114.965 56.214C114.965 56.6278 114.938 57.0015 114.884 57.3352H106.456C106.522 58.2161 106.849 58.9235 107.437 59.4574C108.024 59.9913 108.745 60.2582 109.599 60.2582C110.827 60.2582 111.694 59.7443 112.202 58.7166H114.664C114.331 59.731 113.723 60.5652 112.842 61.2192C111.975 61.8599 110.894 62.1802 109.599 62.1802C108.545 62.1802 107.597 61.9466 106.756 61.4795C105.929 60.999 105.275 60.3316 104.794 59.4774C104.327 58.6098 104.093 57.6088 104.093 56.4743C104.093 55.3398 104.32 54.3454 104.774 53.4912C105.241 52.6236 105.888 51.9563 106.716 51.4891C107.557 51.022 108.518 50.7884 109.599 50.7884C110.64 50.7884 111.568 51.0153 112.382 51.4691C113.196 51.9229 113.83 52.5636 114.284 53.3911C114.738 54.2053 114.965 55.1462 114.965 56.214ZM112.582 55.4933C112.569 54.6524 112.268 53.9784 111.681 53.4712C111.094 52.964 110.366 52.7104 109.499 52.7104C108.711 52.7104 108.037 52.964 107.477 53.4712C106.916 53.965 106.583 54.639 106.476 55.4933H112.582ZM122.776 50.7884C123.644 50.7884 124.418 50.9686 125.099 51.329C125.793 51.6893 126.333 52.2232 126.72 52.9306C127.108 53.638 127.301 54.4922 127.301 55.4933V62H125.039V55.8336C125.039 54.8459 124.792 54.0918 124.298 53.5713C123.804 53.0374 123.13 52.7704 122.276 52.7704C121.422 52.7704 120.741 53.0374 120.234 53.5713C119.74 54.0918 119.493 54.8459 119.493 55.8336V62H117.211V50.9686H119.493V52.2299C119.867 51.7761 120.341 51.4224 120.914 51.1688C121.502 50.9152 122.122 50.7884 122.776 50.7884ZM140.323 56.214C140.323 56.6278 140.296 57.0015 140.243 57.3352H131.814C131.881 58.2161 132.208 58.9235 132.795 59.4574C133.382 59.9913 134.103 60.2582 134.957 60.2582C136.185 60.2582 137.053 59.7443 137.56 58.7166H140.023C139.689 59.731 139.082 60.5652 138.201 61.2192C137.333 61.8599 136.252 62.1802 134.957 62.1802C133.903 62.1802 132.955 61.9466 132.114 61.4795C131.287 60.999 130.633 60.3316 130.152 59.4774C129.685 58.6098 129.452 57.6088 129.452 56.4743C129.452 55.3398 129.678 54.3454 130.132 53.4912C130.599 52.6236 131.247 51.9563 132.074 51.4891C132.915 51.022 133.876 50.7884 134.957 50.7884C135.998 50.7884 136.926 51.0153 137.74 51.4691C138.554 51.9229 139.188 52.5636 139.642 53.3911C140.096 54.2053 140.323 55.1462 140.323 56.214ZM137.94 55.4933C137.927 54.6524 137.627 53.9784 137.039 53.4712C136.452 52.964 135.725 52.7104 134.857 52.7104C134.07 52.7104 133.396 52.964 132.835 53.4712C132.275 53.965 131.941 54.639 131.834 55.4933H137.94ZM146.573 62.1802C145.705 62.1802 144.925 62.0267 144.231 61.7197C143.55 61.3994 143.009 60.9723 142.609 60.4384C142.209 59.8912 141.995 59.2839 141.968 58.6165H144.331C144.371 59.0836 144.591 59.4774 144.991 59.7977C145.405 60.1047 145.919 60.2582 146.533 60.2582C147.174 60.2582 147.668 60.1381 148.015 59.8978C148.375 59.6442 148.555 59.3239 148.555 58.9368C148.555 58.5231 148.355 58.2161 147.954 58.0159C147.567 57.8157 146.947 57.5954 146.093 57.3552C145.265 57.1283 144.591 56.9081 144.07 56.6945C143.55 56.481 143.096 56.1539 142.709 55.7135C142.335 55.273 142.148 54.6924 142.148 53.9717C142.148 53.3844 142.322 52.8505 142.669 52.37C143.016 51.8762 143.51 51.4891 144.151 51.2088C144.805 50.9285 145.552 50.7884 146.393 50.7884C147.647 50.7884 148.655 51.1087 149.416 51.7494C150.19 52.3767 150.604 53.2376 150.657 54.3321H148.375C148.335 53.8382 148.135 53.4445 147.774 53.1508C147.414 52.8572 146.927 52.7104 146.313 52.7104C145.712 52.7104 145.252 52.8238 144.931 53.0507C144.611 53.2776 144.451 53.5779 144.451 53.9517C144.451 54.2453 144.558 54.4922 144.771 54.6924C144.985 54.8926 145.245 55.0528 145.552 55.1729C145.859 55.2797 146.313 55.4199 146.913 55.5934C147.714 55.8069 148.368 56.0272 148.875 56.2541C149.396 56.4676 149.843 56.7879 150.217 57.215C150.591 57.6422 150.784 58.2094 150.797 58.9168C150.797 59.5441 150.624 60.1047 150.277 60.5985C149.93 61.0924 149.436 61.4795 148.795 61.7598C148.168 62.04 147.427 62.1802 146.573 62.1802ZM157.703 56.4342C157.703 55.3264 157.93 54.3454 158.384 53.4912C158.851 52.637 159.479 51.9763 160.266 51.5091C161.067 51.0286 161.948 50.7884 162.909 50.7884C163.776 50.7884 164.531 50.9619 165.171 51.3089C165.825 51.6426 166.346 52.063 166.733 52.5702V50.9686H169.035V62H166.733V60.3583C166.346 60.8788 165.819 61.3126 165.151 61.6596C164.484 62.0067 163.723 62.1802 162.869 62.1802C161.921 62.1802 161.054 61.9399 160.266 61.4594C159.479 60.9656 158.851 60.2849 158.384 59.4173C157.93 58.5364 157.703 57.5421 157.703 56.4342ZM166.733 56.4743C166.733 55.7135 166.573 55.0528 166.252 54.4922C165.945 53.9316 165.538 53.5045 165.031 53.2109C164.524 52.9173 163.977 52.7704 163.389 52.7704C162.802 52.7704 162.255 52.9173 161.748 53.2109C161.24 53.4912 160.827 53.9116 160.506 54.4722C160.199 55.0194 160.046 55.6735 160.046 56.4342C160.046 57.195 160.199 57.8624 160.506 58.4363C160.827 59.0102 161.24 59.4507 161.748 59.7577C162.268 60.0513 162.815 60.1981 163.389 60.1981C163.977 60.1981 164.524 60.0513 165.031 59.7577C165.538 59.464 165.945 59.0369 166.252 58.4764C166.573 57.9024 166.733 57.2351 166.733 56.4743ZM174.315 47.1847V62H172.033V47.1847H174.315ZM181.756 50.7884C182.611 50.7884 183.365 50.9619 184.019 51.3089C184.686 51.6426 185.207 52.063 185.58 52.5702V50.9686H187.883V62.1802C187.883 63.1946 187.669 64.0955 187.242 64.883C186.815 65.6838 186.194 66.3111 185.38 66.7649C184.579 67.2187 183.618 67.4456 182.497 67.4456C181.002 67.4456 179.761 67.0919 178.773 66.3845C177.786 65.6905 177.225 64.7428 177.092 63.5416H179.354C179.528 64.1155 179.895 64.576 180.455 64.923C181.029 65.2834 181.71 65.4636 182.497 65.4636C183.418 65.4636 184.159 65.1833 184.72 64.6227C185.293 64.0621 185.58 63.248 185.58 62.1802V60.3383C185.193 60.8588 184.666 61.2993 183.999 61.6596C183.345 62.0067 182.597 62.1802 181.756 62.1802C180.796 62.1802 179.915 61.9399 179.114 61.4594C178.326 60.9656 177.699 60.2849 177.232 59.4173C176.778 58.5364 176.551 57.5421 176.551 56.4342C176.551 55.3264 176.778 54.3454 177.232 53.4912C177.699 52.637 178.326 51.9763 179.114 51.5091C179.915 51.0286 180.796 50.7884 181.756 50.7884ZM185.58 56.4743C185.58 55.7135 185.42 55.0528 185.1 54.4922C184.793 53.9316 184.386 53.5045 183.879 53.2109C183.372 52.9173 182.824 52.7704 182.237 52.7704C181.65 52.7704 181.102 52.9173 180.595 53.2109C180.088 53.4912 179.674 53.9116 179.354 54.4722C179.047 55.0194 178.894 55.6735 178.894 56.4342C178.894 57.195 179.047 57.8624 179.354 58.4363C179.674 59.0102 180.088 59.4507 180.595 59.7577C181.116 60.0513 181.663 60.1981 182.237 60.1981C182.824 60.1981 183.372 60.0513 183.879 59.7577C184.386 59.464 184.793 59.0369 185.1 58.4764C185.42 57.9024 185.58 57.2351 185.58 56.4743ZM200.871 50.9686V62H198.589V60.6987C198.228 61.1525 197.754 61.5128 197.167 61.7798C196.593 62.0334 195.979 62.1602 195.325 62.1602C194.458 62.1602 193.677 61.98 192.983 61.6196C192.302 61.2592 191.762 60.7253 191.361 60.0179C190.974 59.3105 190.781 58.4563 190.781 57.4553V50.9686H193.043V57.1149C193.043 58.1026 193.29 58.8634 193.784 59.3973C194.277 59.9178 194.952 60.1781 195.806 60.1781C196.66 60.1781 197.334 59.9178 197.828 59.3973C198.335 58.8634 198.589 58.1026 198.589 57.1149V50.9686H200.871ZM209.448 50.7884C210.316 50.7884 211.09 50.9686 211.771 51.329C212.465 51.6893 213.005 52.2232 213.392 52.9306C213.779 53.638 213.973 54.4922 213.973 55.4933V62H211.71V55.8336C211.71 54.8459 211.464 54.0918 210.97 53.5713C210.476 53.0374 209.802 52.7704 208.948 52.7704C208.093 52.7704 207.413 53.0374 206.905 53.5713C206.412 54.0918 206.165 54.8459 206.165 55.8336V62H203.882V50.9686H206.165V52.2299C206.538 51.7761 207.012 51.4224 207.586 51.1688C208.173 50.9152 208.794 50.7884 209.448 50.7884ZM216.123 56.4342C216.123 55.3264 216.35 54.3454 216.804 53.4912C217.271 52.637 217.898 51.9763 218.686 51.5091C219.487 51.0286 220.368 50.7884 221.329 50.7884C222.196 50.7884 222.95 50.9619 223.591 51.3089C224.245 51.6426 224.766 52.063 225.153 52.5702V50.9686H227.455V62H225.153V60.3583C224.766 60.8788 224.238 61.3126 223.571 61.6596C222.904 62.0067 222.143 62.1802 221.289 62.1802C220.341 62.1802 219.473 61.9399 218.686 61.4594C217.898 60.9656 217.271 60.2849 216.804 59.4173C216.35 58.5364 216.123 57.5421 216.123 56.4342ZM225.153 56.4743C225.153 55.7135 224.993 55.0528 224.672 54.4922C224.365 53.9316 223.958 53.5045 223.451 53.2109C222.944 52.9173 222.396 52.7704 221.809 52.7704C221.222 52.7704 220.675 52.9173 220.168 53.2109C219.66 53.4912 219.247 53.9116 218.926 54.4722C218.619 55.0194 218.466 55.6735 218.466 56.4342C218.466 57.195 218.619 57.8624 218.926 58.4363C219.247 59.0102 219.66 59.4507 220.168 59.7577C220.688 60.0513 221.235 60.1981 221.809 60.1981C222.396 60.1981 222.944 60.0513 223.451 59.7577C223.958 59.464 224.365 59.0369 224.672 58.4764C224.993 57.9024 225.153 57.2351 225.153 56.4743ZM239.938 62.1602C238.964 62.1602 238.096 61.9933 237.335 61.6596C236.574 61.326 235.974 60.8722 235.533 60.2982C235.093 59.711 234.846 59.057 234.793 58.3362H238.176C238.216 58.7233 238.396 59.0369 238.717 59.2772C239.037 59.5174 239.431 59.6376 239.898 59.6376C240.325 59.6376 240.652 59.5575 240.879 59.3973C241.119 59.2238 241.239 59.0036 241.239 58.7366C241.239 58.4163 241.072 58.1827 240.739 58.0359C240.405 57.8757 239.865 57.7022 239.117 57.5154C238.316 57.3285 237.649 57.135 237.115 56.9348C236.581 56.7212 236.121 56.3942 235.734 55.9537C235.347 55.4999 235.153 54.8926 235.153 54.1319C235.153 53.4912 235.327 52.9106 235.674 52.3901C236.034 51.8562 236.554 51.4357 237.235 51.1287C237.929 50.8218 238.75 50.6683 239.698 50.6683C241.099 50.6683 242.2 51.0153 243.001 51.7093C243.815 52.4034 244.282 53.3244 244.403 54.4722H241.239C241.186 54.0851 241.012 53.7782 240.719 53.5513C240.438 53.3244 240.065 53.2109 239.598 53.2109C239.197 53.2109 238.89 53.291 238.677 53.4512C238.463 53.598 238.356 53.8049 238.356 54.0718C238.356 54.3921 238.523 54.6324 238.857 54.7925C239.204 54.9527 239.738 55.1129 240.459 55.273C241.286 55.4866 241.96 55.7001 242.481 55.9137C243.001 56.1139 243.455 56.4476 243.842 56.9147C244.242 57.3685 244.449 57.9825 244.463 58.7566C244.463 59.4107 244.276 59.9979 243.902 60.5185C243.542 61.0257 243.014 61.4261 242.32 61.7197C241.64 62.0133 240.846 62.1602 239.938 62.1602ZM257.589 50.8284V62H254.165V60.4784C253.818 60.9723 253.344 61.3727 252.744 61.6797C252.156 61.9733 251.502 62.1201 250.782 62.1201C249.927 62.1201 249.173 61.9333 248.519 61.5595C247.865 61.1725 247.358 60.6186 246.998 59.8978C246.637 59.1771 246.457 58.3295 246.457 57.3552V50.8284H249.861V56.8947C249.861 57.6422 250.054 58.2228 250.441 58.6365C250.828 59.0503 251.349 59.2572 252.003 59.2572C252.67 59.2572 253.197 59.0503 253.584 58.6365C253.972 58.2228 254.165 57.6422 254.165 56.8947V50.8284H257.589ZM264.292 50.6683C265.08 50.6683 265.767 50.8284 266.354 51.1488C266.955 51.4691 267.415 51.8895 267.736 52.4101V50.8284H271.159V61.98C271.159 63.0077 270.952 63.9353 270.539 64.7629C270.138 65.6037 269.517 66.2711 268.677 66.7649C267.849 67.2588 266.815 67.5057 265.573 67.5057C263.918 67.5057 262.577 67.112 261.549 66.3245C260.522 65.5503 259.934 64.4959 259.787 63.1612H263.171C263.278 63.5883 263.531 63.922 263.932 64.1622C264.332 64.4158 264.826 64.5426 265.413 64.5426C266.121 64.5426 266.681 64.3358 267.095 63.922C267.522 63.5216 267.736 62.8742 267.736 61.98V60.3983C267.402 60.9189 266.941 61.346 266.354 61.6797C265.767 62 265.08 62.1602 264.292 62.1602C263.371 62.1602 262.537 61.9266 261.789 61.4594C261.042 60.9789 260.448 60.3049 260.008 59.4373C259.581 58.5564 259.367 57.5421 259.367 56.3942C259.367 55.2463 259.581 54.2386 260.008 53.3711C260.448 52.5035 261.042 51.8361 261.789 51.369C262.537 50.9018 263.371 50.6683 264.292 50.6683ZM267.736 56.4142C267.736 55.56 267.495 54.886 267.015 54.3921C266.548 53.8983 265.974 53.6514 265.293 53.6514C264.612 53.6514 264.032 53.8983 263.551 54.3921C263.084 54.8726 262.851 55.54 262.851 56.3942C262.851 57.2484 263.084 57.9291 263.551 58.4363C264.032 58.9302 264.612 59.1771 265.293 59.1771C265.974 59.1771 266.548 58.9302 267.015 58.4363C267.495 57.9425 267.736 57.2684 267.736 56.4142ZM284.167 56.234C284.167 56.5544 284.147 56.888 284.107 57.2351H276.359C276.412 57.9291 276.632 58.463 277.019 58.8367C277.42 59.1971 277.907 59.3773 278.481 59.3773C279.335 59.3773 279.929 59.0169 280.263 58.2962H283.907C283.72 59.0303 283.379 59.6909 282.886 60.2782C282.405 60.8655 281.798 61.326 281.064 61.6596C280.33 61.9933 279.509 62.1602 278.601 62.1602C277.507 62.1602 276.532 61.9266 275.678 61.4594C274.824 60.9923 274.157 60.3249 273.676 59.4574C273.196 58.5898 272.955 57.5754 272.955 56.4142C272.955 55.253 273.189 54.2386 273.656 53.3711C274.137 52.5035 274.804 51.8361 275.658 51.369C276.512 50.9018 277.493 50.6683 278.601 50.6683C279.682 50.6683 280.643 50.8952 281.484 51.349C282.325 51.8028 282.979 52.4501 283.446 53.291C283.927 54.1319 284.167 55.1129 284.167 56.234ZM280.663 55.3331C280.663 54.7458 280.463 54.2787 280.063 53.9316C279.662 53.5846 279.162 53.4111 278.561 53.4111C277.987 53.4111 277.5 53.5779 277.1 53.9116C276.713 54.2453 276.472 54.7191 276.379 55.3331H280.663ZM289.397 52.6904C289.797 52.0764 290.297 51.5959 290.898 51.2489C291.499 50.8885 292.166 50.7083 292.9 50.7083V54.3321H291.959C291.105 54.3321 290.464 54.5189 290.037 54.8926C289.61 55.253 289.397 55.8937 289.397 56.8146V62H285.973V50.8284H289.397V52.6904ZM305.067 56.234C305.067 56.5544 305.047 56.888 305.007 57.2351H297.259C297.313 57.9291 297.533 58.463 297.92 58.8367C298.32 59.1971 298.808 59.3773 299.382 59.3773C300.236 59.3773 300.83 59.0169 301.163 58.2962H304.807C304.62 59.0303 304.28 59.6909 303.786 60.2782C303.306 60.8655 302.698 61.326 301.964 61.6596C301.23 61.9933 300.409 62.1602 299.502 62.1602C298.407 62.1602 297.433 61.9266 296.579 61.4594C295.724 60.9923 295.057 60.3249 294.577 59.4574C294.096 58.5898 293.856 57.5754 293.856 56.4142C293.856 55.253 294.089 54.2386 294.557 53.3711C295.037 52.5035 295.704 51.8361 296.559 51.369C297.413 50.9018 298.394 50.6683 299.502 50.6683C300.583 50.6683 301.544 50.8952 302.385 51.349C303.226 51.8028 303.88 52.4501 304.347 53.291C304.827 54.1319 305.067 55.1129 305.067 56.234ZM301.564 55.3331C301.564 54.7458 301.364 54.2787 300.963 53.9316C300.563 53.5846 300.062 53.4111 299.462 53.4111C298.888 53.4111 298.401 53.5779 298 53.9116C297.613 54.2453 297.373 54.7191 297.279 55.3331H301.564ZM313.681 50.7083C314.989 50.7083 316.03 51.1354 316.804 51.9896C317.591 52.8305 317.985 53.9917 317.985 55.4732V62H314.581V55.9337C314.581 55.1863 314.388 54.6057 314.001 54.1919C313.614 53.7782 313.093 53.5713 312.439 53.5713C311.785 53.5713 311.265 53.7782 310.878 54.1919C310.491 54.6057 310.297 55.1863 310.297 55.9337V62H306.874V50.8284H310.297V52.31C310.644 51.8161 311.111 51.4291 311.698 51.1488C312.286 50.8551 312.946 50.7083 313.681 50.7083ZM319.683 56.4142C319.683 55.253 319.917 54.2386 320.384 53.3711C320.865 52.5035 321.525 51.8361 322.366 51.369C323.22 50.9018 324.195 50.6683 325.289 50.6683C326.691 50.6683 327.858 51.0353 328.793 51.7694C329.74 52.5035 330.361 53.5379 330.655 54.8726H327.011C326.704 54.0184 326.11 53.5913 325.229 53.5913C324.602 53.5913 324.101 53.8382 323.728 54.3321C323.354 54.8126 323.167 55.5066 323.167 56.4142C323.167 57.3218 323.354 58.0225 323.728 58.5164C324.101 58.9969 324.602 59.2371 325.229 59.2371C326.11 59.2371 326.704 58.81 327.011 57.9558H330.655C330.361 59.2638 329.74 60.2916 328.793 61.039C327.845 61.7864 326.677 62.1602 325.289 62.1602C324.195 62.1602 323.22 61.9266 322.366 61.4594C321.525 60.9923 320.865 60.3249 320.384 59.4574C319.917 58.5898 319.683 57.5754 319.683 56.4142ZM334.208 49.6672C333.607 49.6672 333.113 49.4937 332.726 49.1467C332.352 48.7863 332.166 48.3459 332.166 47.8253C332.166 47.2914 332.352 46.851 332.726 46.504C333.113 46.1436 333.607 45.9634 334.208 45.9634C334.795 45.9634 335.276 46.1436 335.649 46.504C336.036 46.851 336.23 47.2914 336.23 47.8253C336.23 48.3459 336.036 48.7863 335.649 49.1467C335.276 49.4937 334.795 49.6672 334.208 49.6672ZM335.91 50.8284V62H332.486V50.8284H335.91ZM337.71 56.3942C337.71 55.2463 337.923 54.2386 338.35 53.3711C338.791 52.5035 339.385 51.8361 340.132 51.369C340.88 50.9018 341.714 50.6683 342.635 50.6683C343.422 50.6683 344.11 50.8284 344.697 51.1488C345.298 51.4691 345.758 51.8895 346.078 52.4101V50.8284H349.502V62H346.078V60.4184C345.745 60.9389 345.278 61.3593 344.677 61.6797C344.09 62 343.402 62.1602 342.615 62.1602C341.707 62.1602 340.88 61.9266 340.132 61.4594C339.385 60.9789 338.791 60.3049 338.35 59.4373C337.923 58.5564 337.71 57.5421 337.71 56.3942ZM346.078 56.4142C346.078 55.56 345.838 54.886 345.358 54.3921C344.891 53.8983 344.317 53.6514 343.636 53.6514C342.955 53.6514 342.375 53.8983 341.894 54.3921C341.427 54.8726 341.193 55.54 341.193 56.3942C341.193 57.2484 341.427 57.9291 341.894 58.4363C342.375 58.9302 342.955 59.1771 343.636 59.1771C344.317 59.1771 344.891 58.9302 345.358 58.4363C345.838 57.9425 346.078 57.2684 346.078 56.4142ZM356.083 47.1646C357.511 47.1646 358.652 47.5384 359.507 48.2858C360.374 49.0332 360.808 50.0877 360.808 51.4491C360.808 52.7037 360.394 53.6847 359.567 54.3921C358.752 55.0862 357.671 55.4399 356.323 55.4532L356.223 56.9548H353.22L353.12 53.2309H354.321C355.349 53.2309 356.13 53.1041 356.664 52.8505C357.211 52.5969 357.484 52.1365 357.484 51.4691C357.484 51.0019 357.358 50.6349 357.104 50.368C356.85 50.101 356.497 49.9675 356.043 49.9675C355.562 49.9675 355.189 50.1077 354.922 50.388C354.655 50.6549 354.521 51.022 354.521 51.4891H351.298C351.271 50.6749 351.438 49.9409 351.799 49.2868C352.172 48.6328 352.72 48.119 353.44 47.7452C354.174 47.3582 355.055 47.1646 356.083 47.1646ZM354.762 62.1602C354.161 62.1602 353.667 61.9867 353.28 61.6396C352.906 61.2793 352.72 60.8388 352.72 60.3183C352.72 59.7844 352.906 59.3372 353.28 58.9769C353.667 58.6165 354.161 58.4363 354.762 58.4363C355.349 58.4363 355.829 58.6165 356.203 58.9769C356.59 59.3372 356.784 59.7844 356.784 60.3183C356.784 60.8388 356.59 61.2793 356.203 61.6396C355.829 61.9867 355.349 62.1602 354.762 62.1602Z" fill="#717171"/>
<path d="M368.976 50.6482C369.377 50.6482 369.717 50.7884 369.997 51.0687C370.278 51.349 370.418 51.696 370.418 52.1098C370.418 52.5235 370.278 52.8705 369.997 53.1508C369.717 53.4311 369.377 53.5713 368.976 53.5713C368.563 53.5713 368.216 53.4311 367.935 53.1508C367.655 52.8705 367.515 52.5235 367.515 52.1098C367.515 51.696 367.655 51.349 367.935 51.0687C368.216 50.7884 368.563 50.6482 368.976 50.6482ZM367.955 54.9927H369.857L370.118 64.7028H367.695L367.955 54.9927ZM372.926 56.4743C372.926 55.3398 373.153 54.3454 373.607 53.4912C374.074 52.6236 374.715 51.9563 375.529 51.4891C376.343 51.022 377.277 50.7884 378.332 50.7884C379.667 50.7884 380.768 51.1087 381.635 51.7494C382.516 52.3767 383.11 53.2776 383.417 54.4522H380.955C380.754 53.905 380.434 53.4778 379.994 53.1709C379.553 52.8639 378.999 52.7104 378.332 52.7104C377.398 52.7104 376.65 53.0441 376.09 53.7114C375.542 54.3654 375.269 55.2864 375.269 56.4743C375.269 57.6622 375.542 58.5898 376.09 59.2572C376.65 59.9245 377.398 60.2582 378.332 60.2582C379.653 60.2582 380.527 59.6776 380.955 58.5164H383.417C383.097 59.6376 382.496 60.5318 381.615 61.1992C380.734 61.8532 379.64 62.1802 378.332 62.1802C377.277 62.1802 376.343 61.9466 375.529 61.4795C374.715 60.999 374.074 60.3316 373.607 59.4774C373.153 58.6098 372.926 57.6088 372.926 56.4743ZM390.477 62.1802C389.436 62.1802 388.495 61.9466 387.654 61.4795C386.813 60.999 386.152 60.3316 385.672 59.4774C385.191 58.6098 384.951 57.6088 384.951 56.4743C384.951 55.3531 385.198 54.3588 385.692 53.4912C386.185 52.6236 386.86 51.9563 387.714 51.4891C388.568 51.022 389.522 50.7884 390.577 50.7884C391.631 50.7884 392.585 51.022 393.44 51.4891C394.294 51.9563 394.968 52.6236 395.462 53.4912C395.956 54.3588 396.203 55.3531 396.203 56.4743C396.203 57.5954 395.949 58.5898 395.442 59.4574C394.935 60.3249 394.24 60.999 393.36 61.4795C392.492 61.9466 391.531 62.1802 390.477 62.1802ZM390.477 60.1981C391.064 60.1981 391.611 60.058 392.118 59.7777C392.639 59.4974 393.059 59.077 393.38 58.5164C393.7 57.9558 393.86 57.2751 393.86 56.4743C393.86 55.6735 393.707 54.9994 393.4 54.4522C393.093 53.8916 392.686 53.4712 392.178 53.1909C391.671 52.9106 391.124 52.7704 390.537 52.7704C389.949 52.7704 389.402 52.9106 388.895 53.1909C388.401 53.4712 388.007 53.8916 387.714 54.4522C387.42 54.9994 387.273 55.6735 387.273 56.4743C387.273 57.6622 387.574 58.5831 388.174 59.2371C388.788 59.8778 389.556 60.1981 390.477 60.1981ZM404.025 50.7884C404.892 50.7884 405.666 50.9686 406.347 51.329C407.041 51.6893 407.582 52.2232 407.969 52.9306C408.356 53.638 408.549 54.4922 408.549 55.4933V62H406.287V55.8336C406.287 54.8459 406.04 54.0918 405.546 53.5713C405.052 53.0374 404.378 52.7704 403.524 52.7704C402.67 52.7704 401.989 53.0374 401.482 53.5713C400.988 54.0918 400.741 54.8459 400.741 55.8336V62H398.459V50.9686H400.741V52.2299C401.115 51.7761 401.589 51.4224 402.163 51.1688C402.75 50.9152 403.371 50.7884 404.025 50.7884ZM414.123 52.8305V58.9368C414.123 59.3506 414.217 59.6509 414.404 59.8378C414.604 60.0113 414.937 60.098 415.405 60.098H416.806V62H415.004C413.976 62 413.189 61.7598 412.642 61.2793C412.094 60.7988 411.821 60.0179 411.821 58.9368V52.8305H410.52V50.9686H411.821V48.2257H414.123V50.9686H416.806V52.8305H414.123ZM418.149 56.4342C418.149 55.3264 418.376 54.3454 418.83 53.4912C419.297 52.637 419.924 51.9763 420.712 51.5091C421.512 51.0286 422.393 50.7884 423.354 50.7884C424.222 50.7884 424.976 50.9619 425.617 51.3089C426.271 51.6426 426.791 52.063 427.178 52.5702V50.9686H429.481V62H427.178V60.3583C426.791 60.8788 426.264 61.3126 425.597 61.6596C424.929 62.0067 424.168 62.1802 423.314 62.1802C422.367 62.1802 421.499 61.9399 420.712 61.4594C419.924 60.9656 419.297 60.2849 418.83 59.4173C418.376 58.5364 418.149 57.5421 418.149 56.4342ZM427.178 56.4743C427.178 55.7135 427.018 55.0528 426.698 54.4922C426.391 53.9316 425.984 53.5045 425.476 53.2109C424.969 52.9173 424.422 52.7704 423.835 52.7704C423.247 52.7704 422.7 52.9173 422.193 53.2109C421.686 53.4912 421.272 53.9116 420.952 54.4722C420.645 55.0194 420.491 55.6735 420.491 56.4342C420.491 57.195 420.645 57.8624 420.952 58.4363C421.272 59.0102 421.686 59.4507 422.193 59.7577C422.714 60.0513 423.261 60.1981 423.835 60.1981C424.422 60.1981 424.969 60.0513 425.476 59.7577C425.984 59.464 426.391 59.0369 426.698 58.4764C427.018 57.9024 427.178 57.2351 427.178 56.4743ZM426.257 48.0055L421.833 50.1878V48.506L426.257 46.0635V48.0055ZM431.718 56.4743C431.718 55.3398 431.944 54.3454 432.398 53.4912C432.865 52.6236 433.506 51.9563 434.32 51.4891C435.134 51.022 436.069 50.7884 437.123 50.7884C438.458 50.7884 439.559 51.1087 440.427 51.7494C441.308 52.3767 441.901 53.2776 442.208 54.4522H439.746C439.546 53.905 439.225 53.4778 438.785 53.1709C438.344 52.8639 437.791 52.7104 437.123 52.7104C436.189 52.7104 435.441 53.0441 434.881 53.7114C434.334 54.3654 434.06 55.2864 434.06 56.4743C434.06 57.6622 434.334 58.5898 434.881 59.2572C435.441 59.9245 436.189 60.2582 437.123 60.2582C438.445 60.2582 439.319 59.6776 439.746 58.5164H442.208C441.888 59.6376 441.287 60.5318 440.407 61.1992C439.526 61.8532 438.431 62.1802 437.123 62.1802C436.069 62.1802 435.134 61.9466 434.32 61.4795C433.506 60.999 432.865 60.3316 432.398 59.4774C431.944 58.6098 431.718 57.6088 431.718 56.4743ZM447.146 52.8305V58.9368C447.146 59.3506 447.239 59.6509 447.426 59.8378C447.626 60.0113 447.96 60.098 448.427 60.098H449.829V62H448.027C446.999 62 446.211 61.7598 445.664 61.2793C445.117 60.7988 444.843 60.0179 444.843 58.9368V52.8305H443.542V50.9686H444.843V48.2257H447.146V50.9686H449.829V52.8305H447.146ZM451.171 56.4342C451.171 55.3264 451.398 54.3454 451.852 53.4912C452.319 52.637 452.946 51.9763 453.734 51.5091C454.535 51.0286 455.416 50.7884 456.377 50.7884C457.244 50.7884 457.998 50.9619 458.639 51.3089C459.293 51.6426 459.814 52.063 460.201 52.5702V50.9686H462.503V62H460.201V60.3583C459.814 60.8788 459.286 61.3126 458.619 61.6596C457.952 62.0067 457.191 62.1802 456.337 62.1802C455.389 62.1802 454.521 61.9399 453.734 61.4594C452.946 60.9656 452.319 60.2849 451.852 59.4173C451.398 58.5364 451.171 57.5421 451.171 56.4342ZM460.201 56.4743C460.201 55.7135 460.04 55.0528 459.72 54.4922C459.413 53.9316 459.006 53.5045 458.499 53.2109C457.992 52.9173 457.444 52.7704 456.857 52.7704C456.27 52.7704 455.723 52.9173 455.215 53.2109C454.708 53.4912 454.295 53.9116 453.974 54.4722C453.667 55.0194 453.514 55.6735 453.514 56.4342C453.514 57.195 453.667 57.8624 453.974 58.4363C454.295 59.0102 454.708 59.4507 455.215 59.7577C455.736 60.0513 456.283 60.1981 456.857 60.1981C457.444 60.1981 457.992 60.0513 458.499 59.7577C459.006 59.464 459.413 59.0369 459.72 58.4764C460.04 57.9024 460.201 57.2351 460.201 56.4743ZM471.067 50.7884C471.934 50.7884 472.708 50.9686 473.389 51.329C474.083 51.6893 474.624 52.2232 475.011 52.9306C475.398 53.638 475.591 54.4922 475.591 55.4933V62H473.329V55.8336C473.329 54.8459 473.082 54.0918 472.588 53.5713C472.094 53.0374 471.42 52.7704 470.566 52.7704C469.712 52.7704 469.031 53.0374 468.524 53.5713C468.03 54.0918 467.783 54.8459 467.783 55.8336V62H465.501V50.9686H467.783V52.2299C468.157 51.7761 468.631 51.4224 469.205 51.1688C469.792 50.9152 470.413 50.7884 471.067 50.7884ZM483.288 62.1802C482.246 62.1802 481.305 61.9466 480.465 61.4795C479.624 60.999 478.963 60.3316 478.483 59.4774C478.002 58.6098 477.762 57.6088 477.762 56.4743C477.762 55.3531 478.009 54.3588 478.503 53.4912C478.996 52.6236 479.67 51.9563 480.525 51.4891C481.379 51.022 482.333 50.7884 483.388 50.7884C484.442 50.7884 485.396 51.022 486.251 51.4891C487.105 51.9563 487.779 52.6236 488.273 53.4912C488.767 54.3588 489.013 55.3531 489.013 56.4743C489.013 57.5954 488.76 58.5898 488.253 59.4574C487.745 60.3249 487.051 60.999 486.17 61.4795C485.303 61.9466 484.342 62.1802 483.288 62.1802ZM483.288 60.1981C483.875 60.1981 484.422 60.058 484.929 59.7777C485.45 59.4974 485.87 59.077 486.191 58.5164C486.511 57.9558 486.671 57.2751 486.671 56.4743C486.671 55.6735 486.518 54.9994 486.211 54.4522C485.904 53.8916 485.496 53.4712 484.989 53.1909C484.482 52.9106 483.935 52.7704 483.348 52.7704C482.76 52.7704 482.213 52.9106 481.706 53.1909C481.212 53.4712 480.818 53.8916 480.525 54.4522C480.231 54.9994 480.084 55.6735 480.084 56.4743C480.084 57.6622 480.385 58.5831 480.985 59.2371C481.599 59.8778 482.367 60.1981 483.288 60.1981ZM495.274 62.1802C494.406 62.1802 493.625 62.0267 492.931 61.7197C492.251 61.3994 491.71 60.9723 491.31 60.4384C490.909 59.8912 490.696 59.2839 490.669 58.6165H493.032C493.072 59.0836 493.292 59.4774 493.692 59.7977C494.106 60.1047 494.62 60.2582 495.234 60.2582C495.874 60.2582 496.368 60.1381 496.715 59.8978C497.076 59.6442 497.256 59.3239 497.256 58.9368C497.256 58.5231 497.056 58.2161 496.655 58.0159C496.268 57.8157 495.648 57.5954 494.793 57.3552C493.966 57.1283 493.292 56.9081 492.771 56.6945C492.251 56.481 491.797 56.1539 491.41 55.7135C491.036 55.273 490.849 54.6924 490.849 53.9717C490.849 53.3844 491.023 52.8505 491.37 52.37C491.717 51.8762 492.211 51.4891 492.851 51.2088C493.505 50.9285 494.253 50.7884 495.094 50.7884C496.348 50.7884 497.356 51.1087 498.117 51.7494C498.891 52.3767 499.305 53.2376 499.358 54.3321H497.076C497.036 53.8382 496.835 53.4445 496.475 53.1508C496.115 52.8572 495.628 52.7104 495.014 52.7104C494.413 52.7104 493.952 52.8238 493.632 53.0507C493.312 53.2776 493.152 53.5779 493.152 53.9517C493.152 54.2453 493.258 54.4922 493.472 54.6924C493.686 54.8926 493.946 55.0528 494.253 55.1729C494.56 55.2797 495.014 55.4199 495.614 55.5934C496.415 55.8069 497.069 56.0272 497.576 56.2541C498.097 56.4676 498.544 56.7879 498.918 57.215C499.291 57.6422 499.485 58.2094 499.498 58.9168C499.498 59.5441 499.325 60.1047 498.978 60.5985C498.631 61.0924 498.137 61.4795 497.496 61.7598C496.869 62.04 496.128 62.1802 495.274 62.1802ZM504.827 48.0856L504.567 57.7956H502.665L502.405 48.0856H504.827ZM503.686 62.1401C503.272 62.1401 502.925 62 502.645 61.7197C502.365 61.4394 502.225 61.0924 502.225 60.6786C502.225 60.2649 502.365 59.9178 502.645 59.6376C502.925 59.3573 503.272 59.2171 503.686 59.2171C504.087 59.2171 504.427 59.3573 504.707 59.6376C504.987 59.9178 505.128 60.2649 505.128 60.6786C505.128 61.0924 504.987 61.4394 504.707 61.7197C504.427 62 504.087 62.1401 503.686 62.1401Z" fill="#FF8000"/>
</svg>
