<svg width="612" height="112" viewBox="0 0 612 112" fill="none" xmlns="http://www.w3.org/2000/svg">
<mask id="path-1-inside-1_808_349" fill="white">
<path fill-rule="evenodd" clip-rule="evenodd" d="M14.4522 0.00683594C6.47046 0.00683594 0 6.47729 0 14.459V111.289H567.97C575.952 111.289 582.423 104.818 582.423 96.8364V41.2827L610.675 29.0113C611.79 28.527 611.845 26.9661 610.767 26.4042L582.113 11.4691C580.736 4.92208 574.927 0.00683594 567.97 0.00683594H14.4522Z"/>
</mask>
<path fill-rule="evenodd" clip-rule="evenodd" d="M14.4522 0.00683594C6.47046 0.00683594 0 6.47729 0 14.459V111.289H567.97C575.952 111.289 582.423 104.818 582.423 96.8364V41.2827L610.675 29.0113C611.79 28.527 611.845 26.9661 610.767 26.4042L582.113 11.4691C580.736 4.92208 574.927 0.00683594 567.97 0.00683594H14.4522Z" fill="white"/>
<path d="M0 111.289H-1.44522V112.734H0V111.289ZM582.423 41.2827L581.847 39.9571L580.977 40.3347V41.2827H582.423ZM610.675 29.0113L611.251 30.3369L611.251 30.3369L610.675 29.0113ZM610.767 26.4042L610.099 27.6858L610.099 27.6858L610.767 26.4042ZM582.113 11.4691L580.699 11.7666L580.839 12.435L581.445 12.7507L582.113 11.4691ZM1.44522 14.459C1.44522 7.27547 7.26863 1.45205 14.4522 1.45205V-1.43838C5.67229 -1.43838 -1.44522 5.67912 -1.44522 14.459H1.44522ZM1.44522 111.289V14.459H-1.44522V111.289H1.44522ZM567.97 109.843H0V112.734H567.97V109.843ZM580.977 96.8364C580.977 104.02 575.154 109.843 567.97 109.843V112.734C576.75 112.734 583.868 105.616 583.868 96.8364H580.977ZM580.977 41.2827V96.8364H583.868V41.2827H580.977ZM610.099 27.6858L581.847 39.9571L582.998 42.6083L611.251 30.3369L610.099 27.6858ZM610.099 27.6858L610.099 27.6858L611.251 30.3369C613.481 29.3682 613.591 26.2464 611.435 25.1226L610.099 27.6858ZM581.445 12.7507L610.099 27.6858L611.435 25.1226L582.781 10.1876L581.445 12.7507ZM567.97 1.45205C574.23 1.45205 579.459 5.87478 580.699 11.7666L583.527 11.1716C582.012 3.96938 575.625 -1.43838 567.97 -1.43838V1.45205ZM14.4522 1.45205H567.97V-1.43838H14.4522V1.45205Z" fill="#FF8000" mask="url(#path-1-inside-1_808_349)"/>
<path d="M31.4476 52.2323C31.8657 52.2323 32.2165 52.3739 32.4997 52.6572C32.783 52.9404 32.9246 53.2911 32.9246 53.7093C32.9246 54.1274 32.783 54.4781 32.4997 54.7614C32.2165 55.0447 31.8657 55.1863 31.4476 55.1863C31.0429 55.1863 30.699 55.0447 30.4157 54.7614C30.1324 54.4781 29.9908 54.1274 29.9908 53.7093C29.9908 53.2911 30.1324 52.9404 30.4157 52.6572C30.699 52.3739 31.0429 52.2323 31.4476 52.2323ZM30.1527 66.6382C28.7768 66.6382 27.6708 66.2605 26.8345 65.5051C26.0116 64.7498 25.6002 63.7179 25.6002 62.4095C25.6002 61.0471 26.0319 60.022 26.8952 59.3341C27.7584 58.6461 28.905 58.3022 30.3348 58.3022L30.4157 56.7038H32.4188L32.5199 59.8804H31.8523C30.5439 59.8804 29.5389 60.0557 28.8375 60.4064C28.1496 60.7571 27.8056 61.4248 27.8056 62.4095C27.8056 63.1244 28.008 63.6842 28.4126 64.0888C28.8308 64.4935 29.4041 64.6958 30.1324 64.6958C30.8608 64.6958 31.4341 64.5002 31.8523 64.1091C32.2704 63.7179 32.4795 63.1716 32.4795 62.4702H34.6444C34.6444 63.2795 34.4623 64.0012 34.0981 64.6351C33.7339 65.2691 33.2079 65.7614 32.5199 66.1121C31.8455 66.4628 31.0564 66.6382 30.1527 66.6382ZM46.0576 49.521V51.4027H42.3145V63.583H40.0079V51.4027H36.2446V49.521H46.0576ZM49.5671 50.9576C49.1489 50.9576 48.7982 50.816 48.515 50.5327C48.2317 50.2494 48.0901 49.8987 48.0901 49.4806C48.0901 49.0624 48.2317 48.7117 48.515 48.4285C48.7982 48.1452 49.1489 48.0036 49.5671 48.0036C49.9717 48.0036 50.3157 48.1452 50.599 48.4285C50.8822 48.7117 51.0239 49.0624 51.0239 49.4806C51.0239 49.8987 50.8822 50.2494 50.599 50.5327C50.3157 50.816 49.9717 50.9576 49.5671 50.9576ZM50.7001 52.4346V63.583H48.3936V52.4346H50.7001ZM63.9461 57.7357C63.9461 58.1538 63.9192 58.5315 63.8652 58.8687H55.3471C55.4145 59.759 55.745 60.4739 56.3385 61.0134C56.932 61.553 57.6604 61.8227 58.5237 61.8227C59.7646 61.8227 60.6414 61.3034 61.154 60.2648H63.6426C63.3054 61.2899 62.6917 62.133 61.8014 62.7939C60.9247 63.4414 59.8321 63.7651 58.5237 63.7651C57.4581 63.7651 56.5004 63.5291 55.6506 63.0569C54.8143 62.5714 54.1533 61.8969 53.6677 61.0336C53.1956 60.1569 52.9596 59.1452 52.9596 57.9987C52.9596 56.8521 53.1889 55.8472 53.6475 54.984C54.1196 54.1072 54.7738 53.4328 55.6101 52.9607C56.4599 52.4886 57.4311 52.2525 58.5237 52.2525C59.5758 52.2525 60.5133 52.4818 61.3361 52.9404C62.1589 53.399 62.7996 54.0465 63.2582 54.8828C63.7168 55.7056 63.9461 56.6566 63.9461 57.7357ZM61.5384 57.0073C61.5249 56.1575 61.2214 55.4763 60.6279 54.9637C60.0344 54.4512 59.2993 54.1949 58.4225 54.1949C57.6267 54.1949 56.9455 54.4512 56.379 54.9637C55.8124 55.4628 55.4752 56.144 55.3673 57.0073H61.5384ZM71.8408 52.2525C72.7176 52.2525 73.4999 52.4346 74.1878 52.7988C74.8893 53.163 75.4355 53.7025 75.8267 54.4174C76.2179 55.1323 76.4135 55.9956 76.4135 57.0073V63.583H74.1271V57.3512C74.1271 56.3531 73.8776 55.591 73.3785 55.0649C72.8794 54.5253 72.1983 54.2556 71.335 54.2556C70.4717 54.2556 69.7838 54.5253 69.2712 55.0649C68.7721 55.591 68.5226 56.3531 68.5226 57.3512V63.583H66.216V52.4346H68.5226V53.7093C68.9003 53.2507 69.3791 52.8932 69.9591 52.6369C70.5526 52.3806 71.1799 52.2525 71.8408 52.2525ZM89.5733 57.7357C89.5733 58.1538 89.5464 58.5315 89.4924 58.8687H80.9743C81.0417 59.759 81.3722 60.4739 81.9657 61.0134C82.5592 61.553 83.2876 61.8227 84.1509 61.8227C85.3918 61.8227 86.2686 61.3034 86.7812 60.2648H89.2698C88.9326 61.2899 88.3189 62.133 87.4286 62.7939C86.5519 63.4414 85.4593 63.7651 84.1509 63.7651C83.0853 63.7651 82.1276 63.5291 81.2778 63.0569C80.4415 62.5714 79.7805 61.8969 79.2949 61.0336C78.8228 60.1569 78.5868 59.1452 78.5868 57.9987C78.5868 56.8521 78.8161 55.8472 79.2747 54.984C79.7468 54.1072 80.401 53.4328 81.2373 52.9607C82.0871 52.4886 83.0583 52.2525 84.1509 52.2525C85.203 52.2525 86.1405 52.4818 86.9633 52.9404C87.7861 53.399 88.4268 54.0465 88.8854 54.8828C89.344 55.7056 89.5733 56.6566 89.5733 57.7357ZM87.1656 57.0073C87.1521 56.1575 86.8486 55.4763 86.2551 54.9637C85.6616 54.4512 84.9265 54.1949 84.0497 54.1949C83.2539 54.1949 82.5727 54.4512 82.0062 54.9637C81.4397 55.4628 81.1024 56.144 80.9945 57.0073H87.1656ZM95.8898 63.7651C95.0131 63.7651 94.224 63.61 93.5226 63.2997C92.8346 62.976 92.2884 62.5444 91.8837 62.0048C91.479 61.4518 91.2632 60.8381 91.2362 60.1636H93.6237C93.6642 60.6357 93.8868 61.0336 94.2914 61.3574C94.7096 61.6676 95.2289 61.8227 95.8494 61.8227C96.4968 61.8227 96.9959 61.7013 97.3466 61.4585C97.7108 61.2023 97.8929 60.8785 97.8929 60.4874C97.8929 60.0692 97.6906 59.759 97.2859 59.5566C96.8947 59.3543 96.2675 59.1317 95.4042 58.8889C94.5679 58.6596 93.8868 58.4371 93.3607 58.2213C92.8346 58.0054 92.376 57.675 91.9849 57.2298C91.6072 56.7847 91.4183 56.1979 91.4183 55.4696C91.4183 54.8761 91.5937 54.3365 91.9444 53.8509C92.2951 53.3518 92.7942 52.9607 93.4416 52.6774C94.1026 52.3941 94.858 52.2525 95.7077 52.2525C96.9757 52.2525 97.9941 52.5762 98.7629 53.2237C99.5453 53.8577 99.9634 54.7277 100.017 55.8338H97.7108C97.6703 55.3347 97.468 54.9368 97.1038 54.64C96.7396 54.3433 96.2473 54.1949 95.6268 54.1949C95.0198 54.1949 94.5545 54.3095 94.2307 54.5388C93.907 54.7681 93.7451 55.0716 93.7451 55.4493C93.7451 55.7461 93.853 55.9956 94.0689 56.1979C94.2847 56.4003 94.5477 56.5621 94.858 56.6835C95.1682 56.7914 95.6268 56.9331 96.2338 57.1084C97.0431 57.3243 97.7041 57.5468 98.2166 57.7761C98.7427 57.9919 99.1946 58.3157 99.5723 58.7473C99.9499 59.1789 100.146 59.7522 100.159 60.4671C100.159 61.1011 99.9837 61.6676 99.633 62.1667C99.2822 62.6658 98.7832 63.0569 98.1357 63.3402C97.5017 63.6235 96.7531 63.7651 95.8898 63.7651ZM107.138 57.9582C107.138 56.8387 107.368 55.8472 107.826 54.984C108.298 54.1207 108.932 53.453 109.728 52.9809C110.537 52.4953 111.428 52.2525 112.399 52.2525C113.276 52.2525 114.038 52.4279 114.685 52.7786C115.346 53.1158 115.872 53.5407 116.263 54.0532V52.4346H118.59V63.583H116.263V61.9239C115.872 62.45 115.339 62.8883 114.665 63.239C113.991 63.5898 113.222 63.7651 112.358 63.7651C111.401 63.7651 110.524 63.5223 109.728 63.0367C108.932 62.5376 108.298 61.8497 107.826 60.9729C107.368 60.0827 107.138 59.0778 107.138 57.9582ZM116.263 57.9987C116.263 57.2298 116.102 56.5621 115.778 55.9956C115.468 55.4291 115.056 54.9975 114.544 54.7007C114.031 54.4039 113.478 54.2556 112.884 54.2556C112.291 54.2556 111.738 54.4039 111.225 54.7007C110.713 54.984 110.295 55.4089 109.971 55.9754C109.661 56.5284 109.506 57.1894 109.506 57.9582C109.506 58.7271 109.661 59.4015 109.971 59.9815C110.295 60.5615 110.713 61.0067 111.225 61.3169C111.751 61.6137 112.304 61.762 112.884 61.762C113.478 61.762 114.031 61.6137 114.544 61.3169C115.056 61.0202 115.468 60.5885 115.778 60.022C116.102 59.442 116.263 58.7675 116.263 57.9987ZM123.926 48.6106V63.583H121.62V48.6106H123.926ZM131.446 52.2525C132.31 52.2525 133.072 52.4279 133.733 52.7786C134.407 53.1158 134.933 53.5407 135.311 54.0532V52.4346H137.638V63.7651C137.638 64.7902 137.422 65.7007 136.99 66.4966C136.559 67.3059 135.931 67.9399 135.109 68.3985C134.299 68.8571 133.328 69.0864 132.195 69.0864C130.684 69.0864 129.43 68.7289 128.432 68.014C127.434 67.3126 126.867 66.3549 126.732 65.141H129.018C129.194 65.721 129.565 66.1863 130.131 66.537C130.711 66.9012 131.399 67.0833 132.195 67.0833C133.126 67.0833 133.874 66.8001 134.441 66.2335C135.021 65.667 135.311 64.8442 135.311 63.7651V61.9037C134.92 62.4297 134.387 62.8749 133.713 63.239C133.052 63.5898 132.296 63.7651 131.446 63.7651C130.475 63.7651 129.585 63.5223 128.776 63.0367C127.98 62.5376 127.346 61.8497 126.874 60.9729C126.415 60.0827 126.186 59.0778 126.186 57.9582C126.186 56.8387 126.415 55.8472 126.874 54.984C127.346 54.1207 127.98 53.453 128.776 52.9809C129.585 52.4953 130.475 52.2525 131.446 52.2525ZM135.311 57.9987C135.311 57.2298 135.149 56.5621 134.825 55.9956C134.515 55.4291 134.104 54.9975 133.591 54.7007C133.079 54.4039 132.526 54.2556 131.932 54.2556C131.338 54.2556 130.785 54.4039 130.273 54.7007C129.76 54.984 129.342 55.4089 129.018 55.9754C128.708 56.5284 128.553 57.1894 128.553 57.9582C128.553 58.7271 128.708 59.4015 129.018 59.9815C129.342 60.5615 129.76 61.0067 130.273 61.3169C130.799 61.6137 131.352 61.762 131.932 61.762C132.526 61.762 133.079 61.6137 133.591 61.3169C134.104 61.0202 134.515 60.5885 134.825 60.022C135.149 59.442 135.311 58.7675 135.311 57.9987ZM150.764 52.4346V63.583H148.457V62.2679C148.093 62.7265 147.614 63.0907 147.02 63.3604C146.44 63.6167 145.82 63.7449 145.159 63.7449C144.282 63.7449 143.493 63.5628 142.792 63.1986C142.104 62.8344 141.558 62.2948 141.153 61.5799C140.762 60.865 140.566 60.0018 140.566 58.9901V52.4346H142.852V58.6461C142.852 59.6443 143.102 60.4132 143.601 60.9527C144.1 61.4788 144.781 61.7418 145.645 61.7418C146.508 61.7418 147.189 61.4788 147.688 60.9527C148.201 60.4132 148.457 59.6443 148.457 58.6461V52.4346H150.764ZM159.432 52.2525C160.308 52.2525 161.091 52.4346 161.779 52.7988C162.48 53.163 163.026 53.7025 163.418 54.4174C163.809 55.1323 164.004 55.9956 164.004 57.0073V63.583H161.718V57.3512C161.718 56.3531 161.469 55.591 160.969 55.0649C160.47 54.5253 159.789 54.2556 158.926 54.2556C158.063 54.2556 157.375 54.5253 156.862 55.0649C156.363 55.591 156.113 56.3531 156.113 57.3512V63.583H153.807V52.4346H156.113V53.7093C156.491 53.2507 156.97 52.8932 157.55 52.6369C158.144 52.3806 158.771 52.2525 159.432 52.2525ZM166.178 57.9582C166.178 56.8387 166.407 55.8472 166.866 54.984C167.338 54.1207 167.972 53.453 168.768 52.9809C169.577 52.4953 170.467 52.2525 171.438 52.2525C172.315 52.2525 173.077 52.4279 173.725 52.7786C174.386 53.1158 174.912 53.5407 175.303 54.0532V52.4346H177.63V63.583H175.303V61.9239C174.912 62.45 174.379 62.8883 173.704 63.239C173.03 63.5898 172.261 63.7651 171.398 63.7651C170.44 63.7651 169.563 63.5223 168.768 63.0367C167.972 62.5376 167.338 61.8497 166.866 60.9729C166.407 60.0827 166.178 59.0778 166.178 57.9582ZM175.303 57.9987C175.303 57.2298 175.141 56.5621 174.817 55.9956C174.507 55.4291 174.096 54.9975 173.583 54.7007C173.07 54.4039 172.517 54.2556 171.924 54.2556C171.33 54.2556 170.777 54.4039 170.265 54.7007C169.752 54.984 169.334 55.4089 169.01 55.9754C168.7 56.5284 168.545 57.1894 168.545 57.9582C168.545 58.7271 168.7 59.4015 169.01 59.9815C169.334 60.5615 169.752 61.0067 170.265 61.3169C170.791 61.6137 171.344 61.762 171.924 61.762C172.517 61.762 173.07 61.6137 173.583 61.3169C174.096 61.0202 174.507 60.5885 174.817 60.022C175.141 59.442 175.303 58.7675 175.303 57.9987ZM184.964 57.9178C184.964 56.7577 185.18 55.7393 185.612 54.8626C186.057 53.9858 186.657 53.3114 187.412 52.8393C188.168 52.3672 189.011 52.1311 189.941 52.1311C190.683 52.1311 191.358 52.2862 191.965 52.5965C192.585 52.9067 193.071 53.3249 193.421 53.8509V48.6106H196.881V63.583H193.421V61.9644C193.098 62.5039 192.632 62.9356 192.025 63.2593C191.432 63.583 190.737 63.7449 189.941 63.7449C189.011 63.7449 188.168 63.5088 187.412 63.0367C186.657 62.5511 186.057 61.8699 185.612 60.9932C185.18 60.1029 184.964 59.0778 184.964 57.9178ZM193.421 57.938C193.421 57.0747 193.179 56.3935 192.693 55.8945C192.221 55.3954 191.641 55.1458 190.953 55.1458C190.265 55.1458 189.678 55.3954 189.193 55.8945C188.721 56.38 188.485 57.0545 188.485 57.9178C188.485 58.781 188.721 59.469 189.193 59.9815C189.678 60.4806 190.265 60.7301 190.953 60.7301C191.641 60.7301 192.221 60.4806 192.693 59.9815C193.179 59.4824 193.421 58.8013 193.421 57.938ZM210.533 52.293V63.583H207.073V62.0453C206.722 62.5444 206.243 62.949 205.636 63.2593C205.043 63.556 204.382 63.7044 203.654 63.7044C202.79 63.7044 202.028 63.5156 201.367 63.1379C200.706 62.7467 200.194 62.1869 199.83 61.4585C199.465 60.7301 199.283 59.8736 199.283 58.8889V52.293H202.723V58.4236C202.723 59.1789 202.918 59.7657 203.31 60.1839C203.701 60.602 204.227 60.8111 204.888 60.8111C205.562 60.8111 206.095 60.602 206.486 60.1839C206.877 59.7657 207.073 59.1789 207.073 58.4236V52.293H210.533ZM212.33 57.9178C212.33 56.7577 212.546 55.7393 212.978 54.8626C213.423 53.9858 214.023 53.3114 214.778 52.8393C215.534 52.3672 216.377 52.1311 217.307 52.1311C218.049 52.1311 218.724 52.2862 219.331 52.5965C219.951 52.9067 220.437 53.3249 220.787 53.8509V48.6106H224.247V63.583H220.787V61.9644C220.464 62.5039 219.998 62.9356 219.391 63.2593C218.798 63.583 218.103 63.7449 217.307 63.7449C216.377 63.7449 215.534 63.5088 214.778 63.0367C214.023 62.5511 213.423 61.8699 212.978 60.9932C212.546 60.1029 212.33 59.0778 212.33 57.9178ZM220.787 57.938C220.787 57.0747 220.545 56.3935 220.059 55.8945C219.587 55.3954 219.007 55.1458 218.319 55.1458C217.631 55.1458 217.044 55.3954 216.559 55.8945C216.087 56.38 215.851 57.0545 215.851 57.9178C215.851 58.781 216.087 59.469 216.559 59.9815C217.044 60.4806 217.631 60.7301 218.319 60.7301C219.007 60.7301 219.587 60.4806 220.059 59.9815C220.545 59.4824 220.787 58.8013 220.787 57.938ZM226.062 57.9178C226.062 56.7577 226.278 55.7393 226.71 54.8626C227.155 53.9858 227.755 53.3114 228.511 52.8393C229.266 52.3672 230.109 52.1311 231.04 52.1311C231.836 52.1311 232.53 52.293 233.124 52.6167C233.731 52.9404 234.196 53.3653 234.52 53.8914V52.293H237.98V63.583H234.52V61.9846C234.183 62.5107 233.711 62.9356 233.104 63.2593C232.51 63.583 231.815 63.7449 231.02 63.7449C230.102 63.7449 229.266 63.5088 228.511 63.0367C227.755 62.5511 227.155 61.8699 226.71 60.9932C226.278 60.1029 226.062 59.0778 226.062 57.9178ZM234.52 57.938C234.52 57.0747 234.277 56.3935 233.791 55.8945C233.319 55.3954 232.739 55.1458 232.051 55.1458C231.363 55.1458 230.777 55.3954 230.291 55.8945C229.819 56.38 229.583 57.0545 229.583 57.9178C229.583 58.781 229.819 59.469 230.291 59.9815C230.777 60.4806 231.363 60.7301 232.051 60.7301C232.739 60.7301 233.319 60.4806 233.791 59.9815C234.277 59.4824 234.52 58.8013 234.52 57.938ZM244.631 48.5903C246.074 48.5903 247.227 48.968 248.09 49.7234C248.967 50.4787 249.406 51.5443 249.406 52.9202C249.406 54.1881 248.987 55.1795 248.151 55.8945C247.328 56.5959 246.236 56.9533 244.873 56.9668L244.772 58.4843H241.737L241.636 54.7209H242.85C243.889 54.7209 244.678 54.5928 245.217 54.3365C245.77 54.0802 246.047 53.6149 246.047 52.9404C246.047 52.4683 245.919 52.0974 245.662 51.8276C245.406 51.5578 245.049 51.4229 244.59 51.4229C244.104 51.4229 243.727 51.5646 243.457 51.8478C243.187 52.1176 243.052 52.4886 243.052 52.9607H239.795C239.768 52.1378 239.936 51.396 240.301 50.735C240.678 50.0741 241.231 49.5548 241.96 49.1771C242.702 48.7859 243.592 48.5903 244.631 48.5903ZM243.295 63.7449C242.688 63.7449 242.189 63.5695 241.798 63.2188C241.42 62.8546 241.231 62.4095 241.231 61.8834C241.231 61.3439 241.42 60.892 241.798 60.5278C242.189 60.1636 242.688 59.9815 243.295 59.9815C243.889 59.9815 244.374 60.1636 244.752 60.5278C245.143 60.892 245.339 61.3439 245.339 61.8834C245.339 62.4095 245.143 62.8546 244.752 63.2188C244.374 63.5695 243.889 63.7449 243.295 63.7449Z" fill="#717171"/>
<path d="M257.661 52.1109C258.065 52.1109 258.409 52.2525 258.692 52.5358C258.976 52.819 259.117 53.1697 259.117 53.5879C259.117 54.006 258.976 54.3567 258.692 54.64C258.409 54.9233 258.065 55.0649 257.661 55.0649C257.242 55.0649 256.892 54.9233 256.608 54.64C256.325 54.3567 256.184 54.006 256.184 53.5879C256.184 53.1697 256.325 52.819 256.608 52.5358C256.892 52.2525 257.242 52.1109 257.661 52.1109ZM256.629 56.5014H258.551L258.814 66.3145H256.366L256.629 56.5014ZM261.652 57.9987C261.652 56.8521 261.882 55.8472 262.34 54.984C262.812 54.1072 263.46 53.4328 264.283 52.9607C265.105 52.4886 266.05 52.2525 267.115 52.2525C268.464 52.2525 269.577 52.5762 270.454 53.2237C271.344 53.8577 271.944 54.7681 272.254 55.9552H269.766C269.563 55.4021 269.24 54.9705 268.795 54.6602C268.35 54.35 267.79 54.1949 267.115 54.1949C266.171 54.1949 265.416 54.5321 264.849 55.2065C264.296 55.8675 264.02 56.7982 264.02 57.9987C264.02 59.1992 264.296 60.1366 264.849 60.8111C265.416 61.4855 266.171 61.8227 267.115 61.8227C268.451 61.8227 269.334 61.236 269.766 60.0625H272.254C271.931 61.1955 271.324 62.0993 270.434 62.7737C269.543 63.4346 268.437 63.7651 267.115 63.7651C266.05 63.7651 265.105 63.5291 264.283 63.0569C263.46 62.5714 262.812 61.8969 262.34 61.0336C261.882 60.1569 261.652 59.1452 261.652 57.9987ZM279.389 63.7651C278.337 63.7651 277.386 63.5291 276.536 63.0569C275.686 62.5714 275.019 61.8969 274.533 61.0336C274.047 60.1569 273.805 59.1452 273.805 57.9987C273.805 56.8656 274.054 55.8607 274.553 54.984C275.052 54.1072 275.733 53.4328 276.597 52.9607C277.46 52.4886 278.424 52.2525 279.49 52.2525C280.556 52.2525 281.52 52.4886 282.383 52.9607C283.247 53.4328 283.928 54.1072 284.427 54.984C284.926 55.8607 285.176 56.8656 285.176 57.9987C285.176 59.1317 284.919 60.1366 284.407 61.0134C283.894 61.8902 283.193 62.5714 282.302 63.0569C281.426 63.5291 280.454 63.7651 279.389 63.7651ZM279.389 61.762C279.982 61.762 280.535 61.6204 281.048 61.3371C281.574 61.0539 281.999 60.629 282.323 60.0625C282.646 59.4959 282.808 58.808 282.808 57.9987C282.808 57.1894 282.653 56.5082 282.343 55.9552C282.033 55.3886 281.621 54.9637 281.109 54.6805C280.596 54.3972 280.043 54.2556 279.45 54.2556C278.856 54.2556 278.303 54.3972 277.79 54.6805C277.291 54.9637 276.893 55.3886 276.597 55.9552C276.3 56.5082 276.152 57.1894 276.152 57.9987C276.152 59.1992 276.455 60.1299 277.062 60.7908C277.683 61.4383 278.458 61.762 279.389 61.762ZM293.08 52.2525C293.957 52.2525 294.74 52.4346 295.427 52.7988C296.129 53.163 296.675 53.7025 297.066 54.4174C297.458 55.1323 297.653 55.9956 297.653 57.0073V63.583H295.367V57.3512C295.367 56.3531 295.117 55.591 294.618 55.0649C294.119 54.5253 293.438 54.2556 292.575 54.2556C291.711 54.2556 291.023 54.5253 290.511 55.0649C290.012 55.591 289.762 56.3531 289.762 57.3512V63.583H287.456V52.4346H289.762V53.7093C290.14 53.2507 290.619 52.8932 291.199 52.6369C291.792 52.3806 292.419 52.2525 293.08 52.2525ZM303.286 54.3163V60.4874C303.286 60.9055 303.381 61.209 303.57 61.3978C303.772 61.5732 304.109 61.6609 304.581 61.6609H305.998V63.583H304.177C303.138 63.583 302.342 63.3402 301.789 62.8546C301.236 62.369 300.959 61.5799 300.959 60.4874V54.3163H299.644V52.4346H300.959V49.6627H303.286V52.4346H305.998V54.3163H303.286ZM307.355 57.9582C307.355 56.8387 307.584 55.8472 308.042 54.984C308.515 54.1207 309.149 53.453 309.944 52.9809C310.754 52.4953 311.644 52.2525 312.615 52.2525C313.492 52.2525 314.254 52.4279 314.901 52.7786C315.562 53.1158 316.088 53.5407 316.48 54.0532V52.4346H318.806V63.583H316.48V61.9239C316.088 62.45 315.556 62.8883 314.881 63.239C314.207 63.5898 313.438 63.7651 312.575 63.7651C311.617 63.7651 310.74 63.5223 309.944 63.0367C309.149 62.5376 308.515 61.8497 308.042 60.9729C307.584 60.0827 307.355 59.0778 307.355 57.9582ZM316.48 57.9987C316.48 57.2298 316.318 56.5621 315.994 55.9956C315.684 55.4291 315.272 54.9975 314.76 54.7007C314.247 54.4039 313.694 54.2556 313.101 54.2556C312.507 54.2556 311.954 54.4039 311.442 54.7007C310.929 54.984 310.511 55.4089 310.187 55.9754C309.877 56.5284 309.722 57.1894 309.722 57.9582C309.722 58.7271 309.877 59.4015 310.187 59.9815C310.511 60.5615 310.929 61.0067 311.442 61.3169C311.968 61.6137 312.521 61.762 313.101 61.762C313.694 61.762 314.247 61.6137 314.76 61.3169C315.272 61.0202 315.684 60.5885 315.994 60.022C316.318 59.442 316.48 58.7675 316.48 57.9987ZM315.549 49.4401L311.077 51.6455V49.9459L315.549 47.4775V49.4401ZM321.067 57.9987C321.067 56.8521 321.296 55.8472 321.755 54.984C322.227 54.1072 322.875 53.4328 323.697 52.9607C324.52 52.4886 325.464 52.2525 326.53 52.2525C327.879 52.2525 328.992 52.5762 329.869 53.2237C330.759 53.8577 331.359 54.7681 331.669 55.9552H329.181C328.978 55.4021 328.655 54.9705 328.209 54.6602C327.764 54.35 327.205 54.1949 326.53 54.1949C325.586 54.1949 324.831 54.5321 324.264 55.2065C323.711 55.8675 323.434 56.7982 323.434 57.9987C323.434 59.1992 323.711 60.1366 324.264 60.8111C324.831 61.4855 325.586 61.8227 326.53 61.8227C327.865 61.8227 328.749 61.236 329.181 60.0625H331.669C331.346 61.1955 330.739 62.0993 329.848 62.7737C328.958 63.4346 327.852 63.7651 326.53 63.7651C325.464 63.7651 324.52 63.5291 323.697 63.0569C322.875 62.5714 322.227 61.8969 321.755 61.0336C321.296 60.1569 321.067 59.1452 321.067 57.9987ZM336.659 54.3163V60.4874C336.659 60.9055 336.753 61.209 336.942 61.3978C337.145 61.5732 337.482 61.6609 337.954 61.6609H339.37V63.583H337.549C336.511 63.583 335.715 63.3402 335.162 62.8546C334.609 62.369 334.332 61.5799 334.332 60.4874V54.3163H333.017V52.4346H334.332V49.6627H336.659V52.4346H339.37V54.3163H336.659ZM340.727 57.9582C340.727 56.8387 340.957 55.8472 341.415 54.984C341.887 54.1207 342.521 53.453 343.317 52.9809C344.126 52.4953 345.017 52.2525 345.988 52.2525C346.865 52.2525 347.627 52.4279 348.274 52.7786C348.935 53.1158 349.461 53.5407 349.852 54.0532V52.4346H352.179V63.583H349.852V61.9239C349.461 62.45 348.928 62.8883 348.254 63.239C347.579 63.5898 346.811 63.7651 345.947 63.7651C344.99 63.7651 344.113 63.5223 343.317 63.0367C342.521 62.5376 341.887 61.8497 341.415 60.9729C340.957 60.0827 340.727 59.0778 340.727 57.9582ZM349.852 57.9987C349.852 57.2298 349.69 56.5621 349.367 55.9956C349.056 55.4291 348.645 54.9975 348.132 54.7007C347.62 54.4039 347.067 54.2556 346.473 54.2556C345.88 54.2556 345.327 54.4039 344.814 54.7007C344.302 54.984 343.884 55.4089 343.56 55.9754C343.25 56.5284 343.094 57.1894 343.094 57.9582C343.094 58.7271 343.25 59.4015 343.56 59.9815C343.884 60.5615 344.302 61.0067 344.814 61.3169C345.34 61.6137 345.893 61.762 346.473 61.762C347.067 61.762 347.62 61.6137 348.132 61.3169C348.645 61.0202 349.056 60.5885 349.367 60.022C349.69 59.442 349.852 58.7675 349.852 57.9987ZM360.833 52.2525C361.71 52.2525 362.493 52.4346 363.181 52.7988C363.882 53.163 364.428 53.7025 364.819 54.4174C365.211 55.1323 365.406 55.9956 365.406 57.0073V63.583H363.12V57.3512C363.12 56.3531 362.87 55.591 362.371 55.0649C361.872 54.5253 361.191 54.2556 360.328 54.2556C359.464 54.2556 358.776 54.5253 358.264 55.0649C357.765 55.591 357.515 56.3531 357.515 57.3512V63.583H355.209V52.4346H357.515V53.7093C357.893 53.2507 358.372 52.8932 358.952 52.6369C359.545 52.3806 360.173 52.2525 360.833 52.2525ZM373.184 63.7651C372.132 63.7651 371.181 63.5291 370.331 63.0569C369.481 62.5714 368.814 61.8969 368.328 61.0336C367.842 60.1569 367.6 59.1452 367.6 57.9987C367.6 56.8656 367.849 55.8607 368.348 54.984C368.847 54.1072 369.529 53.4328 370.392 52.9607C371.255 52.4886 372.22 52.2525 373.285 52.2525C374.351 52.2525 375.315 52.4886 376.179 52.9607C377.042 53.4328 377.723 54.1072 378.222 54.984C378.721 55.8607 378.971 56.8656 378.971 57.9987C378.971 59.1317 378.714 60.1366 378.202 61.0134C377.689 61.8902 376.988 62.5714 376.098 63.0569C375.221 63.5291 374.25 63.7651 373.184 63.7651ZM373.184 61.762C373.778 61.762 374.331 61.6204 374.843 61.3371C375.369 61.0539 375.794 60.629 376.118 60.0625C376.442 59.4959 376.603 58.808 376.603 57.9987C376.603 57.1894 376.448 56.5082 376.138 55.9552C375.828 55.3886 375.416 54.9637 374.904 54.6805C374.391 54.3972 373.838 54.2556 373.245 54.2556C372.651 54.2556 372.098 54.3972 371.586 54.6805C371.087 54.9637 370.689 55.3886 370.392 55.9552C370.095 56.5082 369.947 57.1894 369.947 57.9987C369.947 59.1992 370.25 60.1299 370.857 60.7908C371.478 61.4383 372.253 61.762 373.184 61.762ZM385.297 63.7651C384.421 63.7651 383.632 63.61 382.93 63.2997C382.242 62.976 381.696 62.5444 381.291 62.0048C380.887 61.4518 380.671 60.8381 380.644 60.1636H383.031C383.072 60.6357 383.294 61.0336 383.699 61.3574C384.117 61.6676 384.637 61.8227 385.257 61.8227C385.904 61.8227 386.404 61.7013 386.754 61.4585C387.118 61.2023 387.301 60.8785 387.301 60.4874C387.301 60.0692 387.098 59.759 386.694 59.5566C386.302 59.3543 385.675 59.1317 384.812 58.8889C383.976 58.6596 383.294 58.4371 382.768 58.2213C382.242 58.0054 381.784 57.675 381.392 57.2298C381.015 56.7847 380.826 56.1979 380.826 55.4696C380.826 54.8761 381.001 54.3365 381.352 53.8509C381.703 53.3518 382.202 52.9607 382.849 52.6774C383.51 52.3941 384.266 52.2525 385.115 52.2525C386.383 52.2525 387.402 52.5762 388.171 53.2237C388.953 53.8577 389.371 54.7277 389.425 55.8338H387.118C387.078 55.3347 386.876 54.9368 386.511 54.64C386.147 54.3433 385.655 54.1949 385.034 54.1949C384.427 54.1949 383.962 54.3095 383.638 54.5388C383.315 54.7681 383.153 55.0716 383.153 55.4493C383.153 55.7461 383.261 55.9956 383.476 56.1979C383.692 56.4003 383.955 56.5621 384.266 56.6835C384.576 56.7914 385.034 56.9331 385.641 57.1084C386.451 57.3243 387.112 57.5468 387.624 57.7761C388.15 57.9919 388.602 58.3157 388.98 58.7473C389.358 59.1789 389.553 59.7522 389.567 60.4671C389.567 61.1011 389.391 61.6676 389.041 62.1667C388.69 62.6658 388.191 63.0569 387.543 63.3402C386.909 63.6235 386.161 63.7651 385.297 63.7651ZM394.952 49.521L394.689 59.3341H392.767L392.504 49.521H394.952ZM393.799 63.7246C393.381 63.7246 393.03 63.583 392.747 63.2997C392.464 63.0165 392.322 62.6658 392.322 62.2476C392.322 61.8295 392.464 61.4788 392.747 61.1955C393.03 60.9122 393.381 60.7706 393.799 60.7706C394.204 60.7706 394.548 60.9122 394.831 61.1955C395.114 61.4788 395.256 61.8295 395.256 62.2476C395.256 62.6658 395.114 63.0165 394.831 63.2997C394.548 63.583 394.204 63.7246 393.799 63.7246Z" fill="#FF8000"/>
</svg>
