<svg width="93" height="93" viewBox="0 0 93 93" fill="none" xmlns="http://www.w3.org/2000/svg">
<g id="switch user">
<path id="Icon" d="M10.7869 35.7655C9.79676 36.7278 9.77423 38.3106 10.7365 39.3007C11.6989 40.2908 13.2816 40.3133 14.2717 39.351L10.7869 35.7655ZM39.9774 39.351C40.9675 40.3133 42.5503 40.2908 43.5126 39.3007C44.4749 38.3106 44.4524 36.7278 43.4623 35.7655L39.9774 39.351ZM49.5368 74.5155C48.5467 75.4778 48.5242 77.0606 49.4865 78.0507C50.4488 79.0408 52.0316 79.0633 53.0217 78.101L49.5368 74.5155ZM78.7274 78.101C79.7175 79.0633 81.3002 79.0408 82.2625 78.0507C83.2248 77.0606 83.2023 75.4778 82.2122 74.5155L78.7274 78.101ZM56.0293 18.4497C54.7219 18.0056 53.3021 18.7054 52.858 20.0127C52.4138 21.32 53.1136 22.7399 54.4209 23.184L56.0293 18.4497ZM68.698 35.8403C69.2958 37.0849 70.7893 37.6092 72.0339 37.0114C73.2785 36.4136 73.8029 34.9201 73.2051 33.6755L68.698 35.8403ZM36.9705 74.5508C38.2779 74.9949 39.6977 74.2952 40.1418 72.9878C40.586 71.6805 39.8862 70.2606 38.5789 69.8165L36.9705 74.5508ZM24.5241 57.6113C23.9012 56.3791 22.3973 55.8851 21.1651 56.5081C19.9329 57.131 19.4389 58.6348 20.0618 59.867L24.5241 57.6113ZM59.6278 31.9497C58.3205 31.5056 56.9006 32.2054 56.4565 33.5127C56.0124 34.82 56.7121 36.2399 58.0195 36.684L59.6278 31.9497ZM69.8308 38.0562L69.0266 40.4234L69.8308 38.0562ZM74.7463 35.6336L77.1134 36.4378L74.7463 35.6336ZM80.2296 27.2652C80.6737 25.9578 79.9739 24.538 78.6666 24.0939C77.3593 23.6497 75.9394 24.3495 75.4953 25.6568L80.2296 27.2652ZM33.3716 61.0506C34.6789 61.4948 36.0988 60.795 36.5429 59.4877C36.987 58.1803 36.2872 56.7605 34.9799 56.3164L33.3716 61.0506ZM23.1686 54.9441L22.3644 57.3113H22.3644L23.1686 54.9441ZM18.2531 57.3667L15.8859 56.5626L18.2531 57.3667ZM12.7698 65.7352C12.3257 67.0425 13.0254 68.4624 14.3328 68.9065C15.6401 69.3506 17.0599 68.6509 17.5041 67.3435L12.7698 65.7352ZM14.2717 39.351C21.3622 32.4595 32.8869 32.4595 39.9774 39.351L43.4623 35.7655C34.4313 26.988 19.8179 26.988 10.7869 35.7655L14.2717 39.351ZM34.4143 21.0236C34.4143 24.7669 31.2718 27.9221 27.2443 27.9221V32.9221C33.898 32.9221 39.4143 27.6616 39.4143 21.0236H34.4143ZM27.2443 27.9221C23.2168 27.9221 20.0743 24.7669 20.0743 21.0236H15.0743C15.0743 27.6616 20.5906 32.9221 27.2443 32.9221V27.9221ZM20.0743 21.0236C20.0743 17.2802 23.2168 14.125 27.2443 14.125V9.125C20.5906 9.125 15.0743 14.3855 15.0743 21.0236H20.0743ZM27.2443 14.125C31.2718 14.125 34.4143 17.2802 34.4143 21.0236H39.4143C39.4143 14.3855 33.898 9.125 27.2443 9.125V14.125ZM53.0217 78.101C60.1122 71.2095 71.6368 71.2095 78.7274 78.101L82.2122 74.5155C73.1812 65.738 58.5678 65.738 49.5368 74.5155L53.0217 78.101ZM73.1643 59.7736C73.1643 63.5169 70.0217 66.6721 65.9943 66.6721V71.6721C72.648 71.6721 78.1643 66.4116 78.1643 59.7736H73.1643ZM65.9943 66.6721C61.9668 66.6721 58.8243 63.5169 58.8243 59.7736H53.8243C53.8243 66.4116 59.3405 71.6721 65.9943 71.6721V66.6721ZM58.8243 59.7736C58.8243 56.0302 61.9668 52.875 65.9943 52.875V47.875C59.3405 47.875 53.8243 53.1355 53.8243 59.7736H58.8243ZM65.9943 52.875C70.0217 52.875 73.1643 56.0302 73.1643 59.7736H78.1643C78.1643 53.1355 72.648 47.875 65.9943 47.875V52.875ZM54.4209 23.184C60.9456 25.4006 65.9314 30.0802 68.698 35.8403L73.2051 33.6755C69.8807 26.7541 63.8777 21.116 56.0293 18.4497L54.4209 23.184ZM38.5789 69.8165C32.225 67.658 27.3311 63.1641 24.5241 57.6113L20.0618 59.867C23.4353 66.5403 29.3284 71.9546 36.9705 74.5508L38.5789 69.8165ZM58.0195 36.684L69.0266 40.4234L70.635 35.6891L59.6278 31.9497L58.0195 36.684ZM77.1134 36.4378L80.2296 27.2652L75.4953 25.6568L72.3792 34.8295L77.1134 36.4378ZM69.0266 40.4234C72.3603 41.5559 75.9809 39.7715 77.1134 36.4378L72.3792 34.8295C72.1349 35.5485 71.354 35.9334 70.635 35.6891L69.0266 40.4234ZM34.9799 56.3164L23.9727 52.577L22.3644 57.3113L33.3716 61.0506L34.9799 56.3164ZM15.8859 56.5626L12.7698 65.7352L17.5041 67.3435L20.6202 58.1709L15.8859 56.5626ZM23.9727 52.577C20.6391 51.4445 17.0185 53.2289 15.8859 56.5626L20.6202 58.1709C20.8645 57.4519 21.6454 57.067 22.3644 57.3113L23.9727 52.577Z" fill="#FF7F00"/>
</g>
</svg>
