<svg width="76" height="89" viewBox="0 0 76 89" fill="none" xmlns="http://www.w3.org/2000/svg">
<path d="M71.5801 58.8647L55.5088 68.5489L39.5468 58.9216M55.5088 85.7187V68.5299" stroke="#FF7F00" stroke-width="5" stroke-linecap="round" stroke-linejoin="round"/>
<path d="M59.2767 49.4639L68.9958 55.0924C71.1981 56.3621 73 59.546 73 62.1612V72.8687C73 75.484 71.1981 78.6678 68.9958 79.9376L59.2767 85.5661C57.2018 86.76 53.7982 86.76 51.7234 85.5661L42.0042 79.9376C39.8019 78.6678 38 75.484 38 72.8687V62.1612C38 59.546 39.8019 56.3621 42.0042 55.0924L51.7234 49.4639C53.8164 48.251 57.2018 48.251 59.2767 49.4639Z" stroke="#FF7F00" stroke-width="5" stroke-linecap="round" stroke-linejoin="round"/>
<path d="M46.4092 69.8552V62.919L63.6816 52.5337" stroke="#FF7F00" stroke-width="5" stroke-linecap="round" stroke-linejoin="round"/>
<path d="M55.5 33.3695V18.1847V10.5924C55.5 6.39922 53.1495 3 50.25 3H29.25H8.25C5.35051 3 3 6.39922 3 10.5924V56.1466C3 60.3397 5.35051 63.7389 8.25 63.7389H29.25M13.9496 18.1847H32.4787M13.9496 27.2956H32.4787M13.9496 36.4064H32.4787M13.9496 45.5173H32.4787" stroke="#FF7F00" stroke-width="5" stroke-linecap="round"/>
<path d="M46.75 27.1191L54.2626 35.6481C54.9459 36.4239 56.054 36.4239 56.7374 35.6481L64.25 27.1191" stroke="#FF7F00" stroke-width="2.69231" stroke-linecap="round"/>
</svg>
