<svg width="66" height="96" viewBox="0 0 66 96" fill="none" xmlns="http://www.w3.org/2000/svg">
<path d="M53.2935 52.2311C54.6742 52.2311 55.7935 53.3504 55.7935 54.7311C55.7935 56.1118 54.6742 57.2311 53.2935 57.2311V52.2311ZM47.117 57.2311C45.7363 57.2311 44.617 56.1118 44.617 54.7311C44.617 53.3504 45.7363 52.2311 47.117 52.2311V57.2311ZM53.2935 42.607C54.6742 42.607 55.7935 43.7262 55.7935 45.107C55.7935 46.4877 54.6742 47.607 53.2935 47.607V42.607ZM38.7344 47.607C37.3537 47.607 36.2344 46.4877 36.2344 45.107C36.2344 43.7262 37.3537 42.607 38.7344 42.607V47.607ZM31.5284 51.2343C31.5284 52.615 30.4091 53.7343 29.0284 53.7343C27.6476 53.7343 26.5284 52.615 26.5284 51.2343H31.5284ZM55.1861 81.2915C53.8054 81.2915 52.6861 80.1723 52.6861 78.7915C52.6861 77.4108 53.8054 76.2915 55.1861 76.2915V81.2915ZM60.3836 78.2498L59.2388 76.0273L59.2389 76.0273L60.3836 78.2498ZM62.4531 76.1977L64.6676 77.3578L64.6676 77.3578L62.4531 76.1977ZM31.6443 36.0246L32.789 38.2471L32.789 38.2471L31.6443 36.0246ZM29.5747 38.0766L31.7893 39.2368L31.7893 39.2368L29.5747 38.0766ZM60.3836 36.0246L61.5284 33.8021L61.5284 33.8021L60.3836 36.0246ZM62.4531 38.0766L64.6676 36.9165L64.6676 36.9165L62.4531 38.0766ZM53.2935 57.2311H47.117V52.2311H53.2935V57.2311ZM53.2935 47.607H38.7344V42.607H53.2935V47.607ZM55.1861 37.9828H36.8417V32.9828H55.1861V37.9828ZM31.5284 43.2302V51.2343H26.5284V43.2302H31.5284ZM60.4995 71.0441V43.2302H65.4995V71.0441H60.4995ZM55.1861 76.2915C56.6096 76.2915 57.5257 76.2896 58.2217 76.2323C58.8884 76.1773 59.1274 76.0847 59.2388 76.0273L61.5284 80.4723C60.588 80.9566 59.6101 81.1348 58.632 81.2154C57.6832 81.2935 56.5264 81.2915 55.1861 81.2915V76.2915ZM65.4995 71.0441C65.4995 72.372 65.5016 73.5221 65.4225 74.4661C65.3409 75.4407 65.1599 76.4182 64.6676 77.3578L60.2386 75.0376C60.2927 74.9342 60.385 74.7052 60.4399 74.0488C60.4975 73.3619 60.4995 72.4566 60.4995 71.0441H65.4995ZM59.2389 76.0273C59.6702 75.8051 60.0182 75.4583 60.2386 75.0376L64.6676 77.3578C63.9672 78.6949 62.8698 79.7813 61.5284 80.4723L59.2389 76.0273ZM36.8417 37.9828C35.4182 37.9828 34.5022 37.9848 33.8062 38.0421C33.1395 38.097 32.9005 38.1897 32.789 38.2471L30.4995 33.8021C31.4399 33.3177 32.4178 33.1395 33.3959 33.0589C34.3447 32.9808 35.5015 32.9828 36.8417 32.9828V37.9828ZM26.5284 43.2302C26.5284 41.9023 26.5263 40.7522 26.6054 39.8082C26.687 38.8336 26.868 37.8561 27.3602 36.9165L31.7893 39.2368C31.7351 39.3401 31.6429 39.5692 31.5879 40.2255C31.5304 40.9125 31.5284 41.8177 31.5284 43.2302H26.5284ZM32.789 38.2471C32.3577 38.4693 32.0097 38.816 31.7893 39.2368L27.3602 36.9165C28.0607 35.5794 29.1581 34.493 30.4995 33.8021L32.789 38.2471ZM55.1861 32.9828C56.5264 32.9828 57.6832 32.9808 58.632 33.0589C59.6101 33.1395 60.588 33.3177 61.5284 33.8021L59.2388 38.2471C59.1274 38.1897 58.8884 38.097 58.2217 38.0421C57.5257 37.9848 56.6096 37.9828 55.1861 37.9828V32.9828ZM60.4995 43.2302C60.4995 41.8177 60.4975 40.9125 60.4399 40.2255C60.385 39.5692 60.2927 39.3401 60.2386 39.2368L64.6676 36.9165C65.1599 37.8561 65.3409 38.8336 65.4225 39.8082C65.5016 40.7522 65.4995 41.9023 65.4995 43.2302H60.4995ZM61.5284 33.8021C62.8698 34.493 63.9672 35.5794 64.6676 36.9165L60.2386 39.2368C60.0182 38.816 59.6702 38.4692 59.2388 38.2471L61.5284 33.8021Z" fill="#FF7F00"/>
<path d="M26.3396 32.0355C34.3959 32.0355 40.9268 25.5357 40.9268 17.5177C40.9268 9.49981 34.3959 3 26.3396 3C18.2833 3 11.7523 9.49981 11.7523 17.5177C11.7523 25.5357 18.2833 32.0355 26.3396 32.0355ZM26.3396 32.0355C13.4495 32.0355 3 39.8352 3 49.4567V62.8345" stroke="#FF7F00" stroke-width="5" stroke-linecap="round"/>
<path d="M35.3465 72.8412L31.4978 76.4197L27.6491 79.9982C27.339 80.2269 26.8361 80.2269 26.526 79.9982L23.1169 77.4834M45.3525 77.0692C45.3525 85.631 38.2416 92.5718 29.4699 92.5718C20.6983 92.5718 13.5874 85.631 13.5874 77.0692C13.5874 68.5074 20.6983 61.5667 29.4699 61.5667C38.2416 61.5667 45.3525 68.5074 45.3525 77.0692Z" stroke="#FF7F00" stroke-width="5" stroke-linecap="round"/>
</svg>
