<svg width="200" height="59" viewBox="0 0 200 59" fill="none" xmlns="http://www.w3.org/2000/svg">
<g clip-path="url(#clip0_161_326)">
<mask id="mask0_161_326" style="mask-type:luminance" maskUnits="userSpaceOnUse" x="0" y="0" width="200" height="59">
<path d="M200 0H0V59H200V0Z" fill="white"/>
</mask>
<g mask="url(#mask0_161_326)">
<mask id="mask1_161_326" style="mask-type:luminance" maskUnits="userSpaceOnUse" x="0" y="0" width="200" height="59">
<path d="M200 0H0V59H200V0Z" fill="white"/>
</mask>
<g mask="url(#mask1_161_326)">
<path d="M192.591 59H7.40867C3.33437 59 0 55.6803 0 51.6238V7.37616C0 3.31973 3.33437 0 7.40867 0H192.594C196.669 0 200.003 3.31973 200.003 7.37616V51.6269C200.003 55.6834 196.669 59.0031 192.594 59.0031" fill="#12100B"/>
<path d="M192.591 1.18055C196.022 1.18055 198.814 3.96087 198.814 7.37616V51.6269C198.814 55.0422 196.022 57.8225 192.591 57.8225H7.40867C3.97833 57.8225 1.18576 55.0422 1.18576 51.6269V7.37616C1.18576 3.95779 3.97523 1.18055 7.40867 1.18055H192.594H192.591ZM192.591 0H7.40867C3.33437 0 0 3.31973 0 7.37616V51.6269C0 55.6834 3.33437 59.0031 7.40867 59.0031H192.594C196.669 59.0031 200.003 55.6834 200.003 51.6269V7.37616C200 3.31973 196.666 0 192.591 0Z" fill="#AFACAB"/>
<path d="M100.941 32.0814C97.4579 32.0814 94.6157 34.7199 94.6157 38.3571C94.6157 41.9944 97.4548 44.6298 100.941 44.6298C104.427 44.6298 107.266 41.9666 107.266 38.3571C107.266 34.7477 104.427 32.0814 100.941 32.0814ZM100.941 42.1577C99.0306 42.1577 97.3835 40.5888 97.3835 38.3571C97.3835 36.1255 99.0306 34.5535 100.941 34.5535C102.851 34.5535 104.495 36.0978 104.495 38.3571C104.495 40.6165 102.848 42.1577 100.941 42.1577ZM87.1421 32.0814C83.6591 32.0814 80.817 34.7199 80.817 38.3571C80.817 41.9944 83.656 44.6298 87.1421 44.6298C90.6281 44.6298 93.4671 41.9666 93.4671 38.3571C93.4671 34.7477 90.625 32.0814 87.1421 32.0814ZM87.1421 42.1577C85.2349 42.1577 83.5879 40.5888 83.5879 38.3571C83.5879 36.1255 85.2349 34.5535 87.1421 34.5535C89.0492 34.5535 90.6993 36.0978 90.6993 38.3571C90.6993 40.6165 89.0523 42.1577 87.1421 42.1577ZM70.7303 34.0079V36.668H77.1266C76.9346 38.166 76.4362 39.2572 75.6715 40.0186C74.7396 40.9464 73.2845 41.9666 70.7303 41.9666C66.7922 41.9666 63.7117 38.8072 63.7117 34.8864C63.7117 30.9656 66.7891 27.8061 70.7303 27.8061C72.8541 27.8061 74.4052 28.6353 75.5507 29.7049L77.4362 27.8277C75.8356 26.3081 73.7117 25.1429 70.7303 25.1429C65.3371 25.1429 60.8015 29.5169 60.8015 34.8864C60.8015 40.2559 65.3371 44.6298 70.7303 44.6298C73.6405 44.6298 75.8356 43.6773 77.5569 41.8957C79.3216 40.1388 79.8727 37.6667 79.8727 35.6693C79.8727 35.0528 79.8263 34.4826 79.7303 34.0079H70.7334H70.7303ZM137.854 36.0731C137.328 34.6706 135.73 32.0814 132.461 32.0814C129.192 32.0814 126.52 34.6244 126.52 38.3571C126.52 41.8742 129.192 44.6298 132.771 44.6298C135.659 44.6298 137.328 42.8728 138.021 41.8495L135.873 40.4223C135.154 41.4673 134.179 42.1577 132.771 42.1577C131.362 42.1577 130.359 41.5166 129.715 40.259L138.139 36.7882L137.854 36.0762V36.0731ZM129.263 38.166C129.192 35.7402 131.148 34.5072 132.557 34.5072C133.656 34.5072 134.588 35.0528 134.897 35.8388L129.266 38.1691L129.263 38.166ZM122.411 44.2476H125.179V25.8087H122.411V44.2476ZM117.876 33.4839H117.78C117.161 32.7472 115.966 32.0814 114.464 32.0814C111.312 32.0814 108.427 34.8371 108.427 38.3787C108.427 41.9204 111.315 44.6267 114.464 44.6267C115.969 44.6267 117.161 43.9609 117.78 43.1996H117.876V44.1027C117.876 46.5039 116.588 47.7862 114.51 47.7862C112.817 47.7862 111.764 46.5748 111.337 45.5545L108.925 46.5532C109.616 48.2177 111.455 50.2613 114.51 50.2613C117.755 50.2613 120.501 48.3595 120.501 43.7267V32.4636H117.876V33.487V33.4839ZM114.702 42.1577C112.792 42.1577 111.195 40.5672 111.195 38.3818C111.195 36.1964 112.792 34.5566 114.702 34.5566C116.613 34.5566 118.068 36.1717 118.068 38.3818C118.068 40.5919 116.588 42.1577 114.702 42.1577ZM150.823 25.8118H144.201V44.2507H146.962V37.266H150.823C153.888 37.266 156.897 35.0559 156.897 31.5389C156.897 28.0219 153.885 25.8118 150.823 25.8118ZM150.894 34.6983H146.962V28.3764H150.894C152.962 28.3764 154.136 30.0809 154.136 31.5358C154.136 32.9907 152.962 34.6953 150.894 34.6953M167.978 32.0475C165.978 32.0475 163.904 32.926 163.046 34.8679L165.501 35.8882C166.024 34.8679 167.003 34.535 168.027 34.535C169.458 34.535 170.91 35.3888 170.935 36.9053V37.0964C170.433 36.8129 169.362 36.3844 168.052 36.3844C165.408 36.3844 162.715 37.8301 162.715 40.5364C162.715 43.0054 164.885 44.5928 167.312 44.5928C169.173 44.5928 170.195 43.7637 170.839 42.7896H170.935V44.2137H173.603V37.1427C173.603 33.8692 171.151 32.0444 167.981 32.0444M167.647 42.1485C166.74 42.1485 165.476 41.6985 165.476 40.5826C165.476 39.1586 167.049 38.6161 168.408 38.6161C169.622 38.6161 170.195 38.8781 170.935 39.2325C170.721 40.9402 169.244 42.1516 167.647 42.1516M183.325 32.4482L180.154 40.4439H180.058L176.771 32.4482H173.792L178.724 43.6219L175.913 49.836H178.795L186.396 32.4482H183.322H183.325ZM158.427 44.2445H161.192V25.8057H158.427V44.2445Z" fill="white"/>
<path d="M30.6932 28.6507L14.9192 45.3171C14.9192 45.3171 14.9192 45.3233 14.9192 45.3264C15.4022 47.1357 17.0616 48.4673 19.0337 48.4673C19.8232 48.4673 20.5601 48.2547 21.1947 47.8848L21.2443 47.8539L38.9997 37.6543L30.6901 28.6476L30.6932 28.6507Z" fill="#E43629"/>
<path d="M46.65 25.8119L46.6345 25.8026L38.9689 21.3794L30.3342 29.0299L38.9999 37.6544L46.6222 33.2743C47.9596 32.5531 48.8667 31.1506 48.8667 29.5354C48.8667 27.9202 47.972 26.5331 46.6469 25.8119" fill="#F9BD00"/>
<path d="M14.9194 13.6827C14.8235 14.031 14.7739 14.3979 14.7739 14.7739V44.2261C14.7739 44.6053 14.8235 44.969 14.9194 45.3173L31.2321 29.0762L14.9163 13.6827H14.9194Z" fill="#587DBE"/>
<path d="M30.8077 29.5015L38.9718 21.3763L21.2381 11.1397C20.5941 10.7544 19.8418 10.5325 19.0368 10.5325C17.0678 10.5325 15.4053 11.8671 14.9192 13.6796C14.9192 13.6796 14.9192 13.6796 14.9192 13.6827L30.8108 29.5015H30.8077Z" fill="#30A043"/>
</g>
<path d="M61.9009 10.1842H64.8513C65.8049 10.1842 66.6377 10.3753 67.3467 10.7606C68.0557 11.1459 68.6006 11.6854 68.9845 12.3851C69.3684 13.0817 69.5572 13.88 69.5572 14.777C69.5572 15.674 69.3653 16.4723 68.9845 17.1689C68.6006 17.8655 68.0557 18.408 67.3467 18.7933C66.6377 19.1786 65.808 19.3698 64.8513 19.3698H61.9009V10.1812V10.1842ZM64.8142 18.0382C65.8637 18.0382 66.678 17.7484 67.2569 17.172C67.8359 16.5956 68.1269 15.7973 68.1269 14.7801C68.1269 13.7629 67.8359 12.9645 67.2569 12.3881C66.678 11.8117 65.8637 11.522 64.8142 11.522H63.3188V18.0412H64.8142V18.0382Z" fill="white"/>
<path d="M71.4146 10.1842H77.009V11.5189H72.8325V14.1112H76.5972V15.4458H72.8325V18.0381H77.009V19.3728H71.4146V10.1842Z" fill="white"/>
<path d="M79.4953 18.9105C78.8854 18.4666 78.4612 17.8409 78.2197 17.0364L79.5603 16.4969C79.6965 17.0117 79.9442 17.4309 80.294 17.7546C80.647 18.0813 81.0711 18.2416 81.5696 18.2416C82.034 18.2416 82.4272 18.1214 82.7491 17.8809C83.0711 17.6405 83.2321 17.3107 83.2321 16.8915C83.2321 16.5062 83.0897 16.1887 82.808 15.9359C82.5231 15.6832 82.034 15.4366 81.3374 15.1993L80.7584 14.9927C80.1299 14.7708 79.6098 14.4595 79.1919 14.0619C78.7739 13.6642 78.5665 13.1371 78.5665 12.4775C78.5665 12.0244 78.6903 11.6052 78.9349 11.2199C79.1795 10.8346 79.5231 10.5325 79.9659 10.3075C80.4086 10.0856 80.9101 9.97461 81.4674 9.97461C82.2662 9.97461 82.907 10.1688 83.3869 10.5572C83.8668 10.9456 84.195 11.3863 84.3652 11.8734L83.0897 12.4128C83.003 12.1045 82.8234 11.8395 82.5479 11.6175C82.2724 11.3956 81.9163 11.2846 81.4767 11.2846C81.0371 11.2846 80.6996 11.3956 80.4055 11.6175C80.1145 11.8395 79.9659 12.123 79.9659 12.4652C79.9659 12.7827 80.0959 13.0447 80.359 13.2543C80.6222 13.4639 81.0278 13.6642 81.5758 13.8523L82.1671 14.0588C82.9566 14.3331 83.5665 14.6876 83.9968 15.1253C84.4272 15.563 84.6408 16.1425 84.6408 16.8699C84.6408 17.4679 84.4891 17.9703 84.1826 18.3772C83.8761 18.7841 83.486 19.0861 83.0092 19.2803C82.5324 19.4776 82.0433 19.5762 81.5448 19.5762C80.7801 19.5762 80.0928 19.3543 79.4829 18.9105H79.4953Z" fill="white"/>
<path d="M88.2782 18.9474C87.5444 18.5282 86.9655 17.9518 86.5444 17.2151C86.1234 16.4784 85.9128 15.6678 85.9128 14.7769C85.9128 13.8861 86.1234 13.0755 86.5444 12.3388C86.9655 11.6021 87.5444 11.0257 88.2782 10.6065C89.0119 10.1873 89.8262 9.97766 90.7209 9.97766C92.1048 9.97766 93.2441 10.477 94.1358 11.4788L93.1419 12.4405C92.8231 12.0644 92.4701 11.7809 92.08 11.5928C91.6899 11.4048 91.241 11.3093 90.7333 11.3093C90.1048 11.3093 89.5351 11.4541 89.0181 11.7408C88.5011 12.0275 88.0955 12.4343 87.7921 12.9583C87.4918 13.4854 87.3401 14.0896 87.3401 14.7739C87.3401 15.4581 87.4918 16.0623 87.7921 16.5894C88.0924 17.1165 88.5011 17.5233 89.0181 17.8069C89.5351 18.0936 90.1048 18.2354 90.7333 18.2354C91.7828 18.2354 92.6621 17.8038 93.3741 16.9408L94.3927 17.9148C93.9469 18.4357 93.4082 18.8426 92.7828 19.1324C92.1543 19.4221 91.467 19.5701 90.7209 19.5701C89.8262 19.5701 89.0119 19.3605 88.2782 18.9412V18.9474Z" fill="white"/>
<path d="M98.7768 10.1842H100.387L103.879 19.3728H102.319L101.467 17.0117H97.7025L96.8511 19.3728H95.2908L98.7706 10.1842H98.7768ZM101.006 15.7017L99.975 12.8844L99.6282 11.8333H99.5508L99.2041 12.8844L98.1731 15.7017H101.009H101.006Z" fill="white"/>
<path d="M105.272 10.1842H108.508C109.065 10.1842 109.57 10.3044 110.022 10.5448C110.474 10.7853 110.83 11.1182 111.093 11.5466C111.356 11.9751 111.486 12.459 111.486 12.9953C111.486 13.6118 111.285 14.1574 110.885 14.6321C110.486 15.1068 109.985 15.4243 109.384 15.5876L109.372 15.6524L111.91 19.2957V19.3728H110.272L107.811 15.7664H106.69V19.3728H105.272V10.1842ZM108.468 14.4687C108.913 14.4687 109.291 14.3269 109.594 14.0464C109.898 13.7629 110.053 13.4084 110.053 12.9799C110.053 12.5854 109.913 12.2432 109.635 11.9473C109.356 11.6514 108.985 11.5035 108.52 11.5035H106.69V14.4687H108.471H108.468Z" fill="white"/>
<path d="M115.21 18.9474C114.47 18.5282 113.885 17.9518 113.452 17.2213C113.018 16.4907 112.802 15.6739 112.802 14.7769C112.802 13.88 113.018 13.0631 113.452 12.3326C113.885 11.6021 114.473 11.0257 115.21 10.6065C115.95 10.1873 116.758 9.97766 117.634 9.97766C118.34 9.97766 118.987 10.101 119.582 10.3506C120.176 10.6003 120.678 10.9455 121.089 11.3894L120.111 12.3634C119.483 11.6606 118.659 11.3123 117.637 11.3123C117.037 11.3123 116.473 11.4572 115.95 11.7439C115.427 12.0305 115.009 12.4374 114.699 12.9707C114.39 13.5008 114.235 14.105 114.235 14.78C114.235 15.4551 114.393 16.0685 114.706 16.5955C115.018 17.1226 115.436 17.5295 115.956 17.8131C116.476 18.0998 117.04 18.2415 117.65 18.2415C118.622 18.2415 119.411 17.9395 120.021 17.3292C120.219 17.1411 120.384 16.9007 120.517 16.611C120.65 16.3212 120.743 16.0006 120.792 15.6493H117.622V14.404H122.108C122.161 14.6937 122.185 14.9434 122.185 15.1468C122.185 15.7294 122.093 16.2811 121.91 16.8082C121.724 17.3353 121.439 17.7977 121.052 18.2015C120.641 18.6453 120.145 18.9875 119.569 19.2217C118.993 19.456 118.349 19.5731 117.637 19.5731C116.761 19.5731 115.953 19.3635 115.213 18.9443L115.21 18.9474Z" fill="white"/>
<path d="M126.294 10.1842H127.904L131.396 19.3728H129.835L128.984 17.0117H125.219L124.368 19.3728H122.808L126.287 10.1842H126.294ZM128.523 15.7017L127.492 12.8844L127.145 11.8333H127.068L126.721 12.8844L125.69 15.7017H128.526H128.523Z" fill="white"/>
<path d="M132.789 10.1842H136.025C136.582 10.1842 137.087 10.3044 137.539 10.5448C137.991 10.7853 138.347 11.1182 138.61 11.5466C138.873 11.9751 139.003 12.459 139.003 12.9953C139.003 13.6118 138.802 14.1574 138.402 14.6321C138.003 15.1068 137.501 15.4243 136.901 15.5876L136.888 15.6524L139.427 19.2957V19.3728H137.789L135.328 15.7664H134.207V19.3728H132.789V10.1842ZM135.984 14.4687C136.43 14.4687 136.808 14.3269 137.111 14.0464C137.415 13.7629 137.569 13.4084 137.569 12.9799C137.569 12.5854 137.43 12.2432 137.152 11.9473C136.873 11.6514 136.501 11.5035 136.037 11.5035H134.207V14.4687H135.987H135.984Z" fill="white"/>
<path d="M143.656 10.1842H149.25V11.5189H145.074V14.1112H148.839V15.4458H145.074V18.0381H149.25V19.3728H143.656V10.1842Z" fill="white"/>
<path d="M151.235 10.1842H152.91L157.087 16.9346H157.164L157.087 15.1623V10.1842H158.492V19.3728H157.022L152.641 12.2771H152.564L152.641 14.0495V19.3759H151.235V10.1873V10.1842Z" fill="white"/>
</g>
</g>
<defs>
<clipPath id="clip0_161_326">
<rect width="200" height="59" fill="white"/>
</clipPath>
</defs>
</svg>
