<svg width="29" height="28" viewBox="0 0 29 28" fill="none" xmlns="http://www.w3.org/2000/svg">
<path d="M0.363281 27.9189L2.35988 20.4725C1.23066 18.4268 0.641505 16.152 0.641505 13.8281C0.641505 6.25087 6.81131 0.0810547 14.3886 0.0810547C21.9658 0.0810547 28.1356 6.25087 28.1356 13.8281C28.1356 21.4054 21.9658 27.5752 14.3886 27.5752C12.1137 27.5752 9.87167 27.0024 7.85871 25.9059L0.363281 27.9189ZM8.21875 23.1238L8.69336 23.402C10.4281 24.433 12.392 24.9731 14.3886 24.9731C20.542 24.9731 25.5335 19.9652 25.5335 13.8281C25.5335 7.67467 20.5256 2.68318 14.3886 2.68318C8.23511 2.68318 3.24362 7.69104 3.24362 13.8281C3.24362 15.8575 3.80005 17.854 4.88018 19.6052L5.17476 20.0798L4.0619 24.2366L8.21875 23.1238Z" fill="#343434"/>
<path fill-rule="evenodd" clip-rule="evenodd" d="M19.4946 15.7443C18.9218 15.4007 18.1854 15.0242 17.5308 15.3025C17.0234 15.5152 16.6961 16.3171 16.3688 16.7263C16.2051 16.939 15.9924 16.9717 15.7305 16.8572C13.8158 16.088 12.3429 14.8115 11.2791 13.044C11.0991 12.7658 11.1318 12.553 11.3446 12.2912C11.6719 11.9148 12.0647 11.4893 12.1465 10.982C12.2283 10.4746 11.9992 9.88546 11.7864 9.42722C11.5246 8.85443 11.2136 8.01979 10.6408 7.69248C10.1008 7.3979 9.41344 7.56155 8.93883 7.93796C8.12056 8.60895 7.72778 9.63998 7.74414 10.6874C7.74414 10.982 7.77687 11.2765 7.8587 11.5548C8.02236 12.2421 8.33331 12.8804 8.69335 13.4859C8.9552 13.9441 9.24978 14.386 9.56072 14.8115C10.5918 16.2026 11.8683 17.4136 13.3412 18.3301C14.0776 18.7883 14.8795 19.1811 15.6978 19.4593C16.6143 19.7703 17.4489 20.0812 18.4472 19.9012C19.4946 19.7048 20.5256 19.0502 20.9348 18.0519C21.0657 17.7573 21.1148 17.4136 21.0493 17.1027C20.902 16.4481 20.0183 16.0553 19.4946 15.7443Z" fill="#343434"/>
</svg>
