<svg width="28" height="28" viewBox="0 0 28 28" fill="none" xmlns="http://www.w3.org/2000/svg">
<path d="M21.4283 5.0498C20.5188 5.0498 19.8042 5.78067 19.8042 6.67395C19.8042 7.58347 20.5351 8.31433 21.4283 8.31433C22.3379 8.31433 23.0687 7.58347 23.0687 6.67395C23.0525 5.78067 22.3216 5.0498 21.4283 5.0498Z" fill="#343434"/>
<path d="M14.1683 7.14453C10.3841 7.14453 7.31445 10.2142 7.31445 13.9984C7.31445 17.7827 10.3841 20.8523 14.1683 20.8523C17.9526 20.8523 21.0222 17.7827 21.0222 13.9984C21.0222 10.2142 17.9526 7.14453 14.1683 7.14453ZM14.1683 18.3998C11.7484 18.3998 9.78315 16.4346 9.78315 14.0147C9.78315 11.5947 11.7484 9.62947 14.1683 9.62947C16.5883 9.62947 18.5535 11.5947 18.5535 14.0147C18.5535 16.4346 16.5883 18.3998 14.1683 18.3998Z" fill="#343434"/>
<path d="M19.6092 27.9189H8.50008C3.88752 27.9189 0.135742 24.1671 0.135742 19.5545V8.44539C0.135742 3.83283 3.88752 0.0810547 8.50008 0.0810547H19.6092C24.2218 0.0810547 27.9736 3.83283 27.9736 8.44539V19.5545C27.9736 24.1671 24.2218 27.9189 19.6092 27.9189ZM8.50008 2.69592C5.333 2.69592 2.75061 5.27831 2.75061 8.44539V19.5545C2.75061 22.7216 5.333 25.304 8.50008 25.304H19.6092C22.7763 25.304 25.3587 22.7216 25.3587 19.5545V8.44539C25.3587 5.27831 22.7763 2.69592 19.6092 2.69592H8.50008Z" fill="#343434"/>
</svg>
