<svg width="26" height="28" viewBox="0 0 26 28" fill="none" xmlns="http://www.w3.org/2000/svg">
<path fill-rule="evenodd" clip-rule="evenodd" d="M18.7906 9.283C20.6465 10.5976 22.9044 11.3863 25.3634 11.3863V6.6848C24.8995 6.6848 24.4355 6.63841 23.987 6.54561V10.2573C21.5435 10.2573 19.27 9.48405 17.4142 8.15402V17.7581C17.4142 22.5678 13.5169 26.4651 8.70713 26.4651C6.91313 26.4651 5.24288 25.9238 3.86646 24.9959C5.44393 26.6043 7.65549 27.6096 10.099 27.6096C14.9088 27.6096 18.8061 23.7123 18.8061 18.9025L18.7906 9.283ZM20.4918 4.5351C19.5484 3.49892 18.9298 2.16889 18.7906 0.699672V0.0810547H17.4915C17.8163 1.95237 18.9298 3.56078 20.4918 4.5351ZM6.89767 21.2842C6.37185 20.5882 6.078 19.7376 6.078 18.8716C6.078 16.6755 7.85653 14.897 10.0681 14.897C10.4857 14.897 10.8878 14.9588 11.2744 15.0825V10.2728C10.8104 10.2109 10.3619 10.18 9.89797 10.1955V13.9381C9.51134 13.8144 9.09377 13.7525 8.69167 13.7525C6.49557 13.7525 4.70158 15.531 4.70158 17.7271C4.70158 19.2891 5.59857 20.6346 6.89767 21.2842Z" fill="#343434"/>
<path fill-rule="evenodd" clip-rule="evenodd" d="M17.4141 8.13855C19.2699 9.45312 21.5279 10.2419 23.9869 10.2419V6.53015C22.6259 6.2363 21.4041 5.52489 20.5071 4.5351C18.9451 3.56078 17.8316 1.96784 17.5068 0.0810547H14.0735V18.887C14.058 21.0831 12.2795 22.8617 10.0834 22.8617C8.78432 22.8617 7.6399 22.243 6.91302 21.2842C5.61393 20.6346 4.71691 19.2891 4.71691 17.7271C4.71691 15.531 6.49544 13.7525 8.707 13.7525C9.12456 13.7525 9.54213 13.8144 9.9133 13.9381V10.1955C5.18087 10.2883 1.39185 14.1546 1.39185 18.9025C1.39185 21.2687 2.33524 23.4184 3.88178 24.9804C5.27367 25.9084 6.92849 26.4496 8.72248 26.4496C13.5322 26.4496 17.4295 22.5524 17.4295 17.7426V8.13855H17.4141Z" fill="#343434"/>
<path fill-rule="evenodd" clip-rule="evenodd" d="M23.9715 7.67459V6.66934C22.7342 6.66934 21.5279 6.3291 20.4917 5.67955C21.4197 6.6848 22.626 7.38075 23.9715 7.67459ZM17.4759 1.2255C17.445 1.03991 17.4141 0.869793 17.3986 0.684207V0.0810547H12.6662V18.887C12.6662 21.0831 10.8722 22.8617 8.67612 22.8617C8.02657 22.8617 7.42341 22.707 6.88212 22.4441C7.609 23.403 8.75345 24.0216 10.0525 24.0216C12.2486 24.0216 14.0272 22.243 14.0426 20.047V1.2255H17.4759ZM9.89788 11.3399V10.2728C9.49578 10.2264 9.10914 10.1955 8.70703 10.1955C3.89728 10.1955 0 14.0928 0 18.9025C0 21.9183 1.53108 24.5783 3.86636 26.1403C2.33528 24.5783 1.39188 22.4286 1.39188 20.0624C1.37642 15.2836 5.16545 11.4327 9.89788 11.3399Z" fill="#343434"/>
</svg>
