                            <svg xmlns="http://www.w3.org/2000/svg" width="84" height="83" viewBox="0 0 84 83" fill="none">
                                <path d="M31.0428 6.84424L18.6543 19.2669" stroke="#FF7F00" stroke-width="5.59265" stroke-miterlimit="10" stroke-linecap="round" stroke-linejoin="round" />
                                <path d="M52.8764 6.84424L65.2648 19.2669" stroke="#FF7F00" stroke-width="5.59265" stroke-miterlimit="10" stroke-linecap="round" stroke-linejoin="round" />
                                <path d="M7.73797 26.865C7.73797 20.5338 11.126 20.0205 15.3353 20.0205H68.5851C72.7944 20.0205 76.1824 20.5338 76.1824 26.865C76.1824 34.2227 72.7944 33.7094 68.5851 33.7094H15.3353C11.126 33.7094 7.73797 34.2227 7.73797 26.865Z" stroke="#FF7F00" stroke-width="5.59265" />
                                <path d="M34.2938 47.9111V60.06" stroke="#FF7F00" stroke-width="5.59265" stroke-linecap="round" />
                                <path d="M50.0364 47.9111V60.06" stroke="#FF7F00" stroke-width="5.59265" stroke-linecap="round" />
                                <path d="M12.8713 34.2222L17.6966 63.7902C18.7917 70.4293 21.4269 75.2888 31.2144 75.2888H51.8504C62.4935 75.2888 64.0677 70.6346 65.2997 64.2008L71.0491 34.2222" stroke="#FF7F00" stroke-width="5.59265" stroke-linecap="round" />
                            </svg>