<svg width="297" height="82" viewBox="0 0 297 82" fill="none" xmlns="http://www.w3.org/2000/svg">
<g clip-path="url(#clip0_194_2355)">
<path d="M82.8716 14.3317V39.9119H75.6107L75.0766 36.8531C72.8386 39.2336 69.9138 40.4299 66.3278 40.4299C63.8736 40.4299 61.6864 39.8626 59.7917 38.7402C57.8843 37.6178 56.3965 36.0514 55.3283 34.0287C54.2602 32.006 53.7261 29.6996 53.7261 27.1218C53.7261 24.5441 54.2602 22.2253 55.3283 20.2026C56.3965 18.1799 57.8843 16.6135 59.7917 15.4911C61.6991 14.3687 63.8736 13.8137 66.3278 13.8137C68.1081 13.8137 69.7485 14.1097 71.2363 14.7141C72.7241 15.3184 74.0084 16.1941 75.0766 17.3288L75.6107 14.3317H82.8716ZM72.8385 31.8086C74.0084 30.6123 74.6061 29.0582 74.6061 27.1218C74.6061 25.1854 74.0212 23.6314 72.8385 22.435C71.6687 21.251 70.1554 20.6466 68.2989 20.6466C66.4423 20.6466 64.9418 21.251 63.7846 22.4597C62.6274 23.6684 62.0552 25.2224 62.0552 27.1218C62.0552 29.0212 62.6274 30.5753 63.7846 31.784C64.9418 32.9927 66.4423 33.597 68.2989 33.597C70.1554 33.597 71.6687 33.005 72.8385 31.8086Z" fill="#FF7F00"/>
<path d="M129.209 16.6135C131.13 18.5129 132.096 21.1153 132.096 24.4331V39.9119H123.716V25.4691C123.716 23.9521 123.347 22.768 122.622 21.9293C121.898 21.0906 120.868 20.659 119.558 20.659C118.095 20.659 116.938 21.14 116.086 22.1143C115.234 23.0764 114.802 24.3591 114.802 25.9501V39.9366H106.473V25.4938C106.473 23.9767 106.117 22.7927 105.405 21.954C104.692 21.1153 103.675 20.6836 102.365 20.6836C100.903 20.6836 99.7459 21.1646 98.8685 22.139C97.9911 23.101 97.5587 24.3838 97.5587 25.9748V39.9613H89.1787V14.3318H96.4397L96.9229 17.1808C97.8512 16.0708 98.9575 15.2321 100.255 14.6401C101.552 14.0481 102.95 13.7644 104.451 13.7644C106.155 13.7644 107.694 14.1221 109.041 14.8251C110.389 15.5281 111.458 16.5025 112.246 17.7482C114.382 15.0964 117.409 13.7644 121.325 13.7644C124.67 13.7644 127.302 14.7141 129.222 16.6135H129.209Z" fill="#FF7F00"/>
<path d="M161.191 15.5034C163.111 16.6258 164.611 18.1922 165.68 20.2149C166.748 22.2377 167.282 24.5441 167.282 27.1342C167.282 29.7242 166.748 32.0307 165.68 34.041C164.611 36.0638 163.124 37.6302 161.191 38.7525C159.271 39.8749 157.083 40.4423 154.629 40.4423C151.348 40.4423 148.627 39.4432 146.465 37.4452V51.0123H138.085V14.3317H145.346L145.88 17.3288C148.093 14.9854 151.005 13.8137 154.642 13.8137C157.096 13.8137 159.283 14.3687 161.204 15.4911L161.191 15.5034ZM157.185 31.8086C158.355 30.6123 158.953 29.0582 158.953 27.1218C158.953 25.1854 158.368 23.6314 157.185 22.435C156.015 21.251 154.502 20.6466 152.646 20.6466C150.789 20.6466 149.288 21.251 148.131 22.4597C146.974 23.6684 146.402 25.2224 146.402 27.1218C146.402 29.0212 146.974 30.5753 148.131 31.784C149.288 32.9927 150.789 33.597 152.646 33.597C154.502 33.597 156.015 33.005 157.185 31.8086Z" fill="#1A1A1A"/>
<path d="M199.683 14.3317V39.9119H192.422L191.888 36.8531C189.65 39.2336 186.725 40.4299 183.139 40.4299C180.685 40.4299 178.497 39.8626 176.603 38.7402C174.695 37.6178 173.208 36.0514 172.139 34.0287C171.071 32.006 170.537 29.6996 170.537 27.1218C170.537 24.5441 171.071 22.2253 172.139 20.2026C173.208 18.1799 174.695 16.6135 176.603 15.4911C178.51 14.3687 180.685 13.8137 183.139 13.8137C184.919 13.8137 186.56 14.1097 188.047 14.7141C189.535 15.3184 190.819 16.1941 191.888 17.3288L192.422 14.3317H199.683ZM189.65 31.8086C190.819 30.6123 191.417 29.0582 191.417 27.1218C191.417 25.1854 190.832 23.6314 189.65 22.435C188.48 21.251 186.966 20.6466 185.11 20.6466C183.253 20.6466 181.753 21.251 180.596 22.4597C179.438 23.6684 178.866 25.2224 178.866 27.1218C178.866 29.0212 179.438 30.5753 180.596 31.784C181.753 32.9927 183.253 33.597 185.11 33.597C186.966 33.597 188.48 33.005 189.65 31.8086Z" fill="#1A1A1A"/>
<path d="M230.087 16.8726C232.033 18.9447 233 21.8061 233 25.4692V39.9121H224.62V25.9256C224.62 24.2729 224.187 22.9778 223.335 22.0405C222.483 21.1031 221.301 20.6468 219.813 20.6468C218.172 20.6468 216.863 21.1771 215.858 22.2501C214.866 23.3232 214.358 24.7169 214.358 26.4436V39.9121H205.978V14.3319H213.239L213.773 17.329C214.803 16.1943 216.036 15.3062 217.486 14.6896C218.935 14.0729 220.525 13.7522 222.267 13.7522C225.535 13.7522 228.142 14.7882 230.087 16.8603V16.8726Z" fill="#1A1A1A"/>
<path d="M259.157 15.3432C261.255 16.3916 262.87 17.884 263.989 19.7957C265.108 21.7074 265.667 23.9522 265.667 26.5053C265.667 27.3316 265.578 28.3553 265.4 29.564H246.021C246.275 30.8714 247 31.9321 248.208 32.7461C249.416 33.5602 250.968 33.9672 252.85 33.9672C254.172 33.9672 255.444 33.7822 256.69 33.3998C257.936 33.0175 259.004 32.4871 259.894 31.7964L264.269 36.3476C262.768 37.692 261.001 38.728 258.953 39.4557C256.906 40.1834 254.732 40.5411 252.417 40.5411C249.353 40.5411 246.708 39.9984 244.457 38.913C242.219 37.8276 240.489 36.2859 239.281 34.2755C238.073 32.2775 237.463 29.9094 237.463 27.1836C237.463 24.4579 238.061 22.2255 239.256 20.1904C240.451 18.1553 242.117 16.5766 244.241 15.4542C246.364 14.3319 248.844 13.7769 251.667 13.7769C254.49 13.7769 257.046 14.3072 259.144 15.3556L259.157 15.3432ZM247.865 21.4238C246.809 22.2501 246.224 23.4095 246.072 24.8896H257.707C257.605 23.4095 257.046 22.2501 256.029 21.4238C255.011 20.5974 253.651 20.1781 251.947 20.1781C250.243 20.1781 248.907 20.5974 247.865 21.4238Z" fill="#1A1A1A"/>
<path d="M290.489 15.3432C292.587 16.3916 294.202 17.884 295.321 19.7957C296.44 21.7074 297 23.9522 297 26.5053C297 27.3316 296.911 28.3553 296.733 29.564H277.353C277.608 30.8714 278.333 31.9321 279.541 32.7461C280.749 33.5602 282.3 33.9672 284.182 33.9672C285.492 33.9672 286.776 33.7822 288.022 33.3998C289.269 33.0175 290.337 32.4871 291.227 31.7964L295.601 36.3476C294.101 37.692 292.333 38.728 290.286 39.4557C288.239 40.1834 286.064 40.5411 283.75 40.5411C280.685 40.5411 278.04 39.9984 275.789 38.913C273.551 37.8276 271.822 36.2859 270.614 34.2755C269.406 32.2775 268.795 29.9094 268.795 27.1836C268.795 24.4579 269.393 22.2255 270.588 20.1904C271.784 18.1553 273.45 16.5766 275.573 15.4542C277.697 14.3319 280.176 13.7769 282.999 13.7769C285.822 13.7769 288.378 14.3072 290.477 15.3556L290.489 15.3432ZM279.197 21.4238C278.155 22.2501 277.557 23.4095 277.404 24.8896H289.04C288.938 23.4095 288.378 22.2501 287.361 21.4238C286.344 20.5974 284.983 20.1781 283.279 20.1781C281.575 20.1781 280.24 20.5974 279.197 21.4238Z" fill="#1A1A1A"/>
<path d="M50.6487 9.02835L48.3216 11.3594L23.0036 39.135L18.2986 44.3028C17.1542 45.5485 15.1323 45.5115 14.0514 44.2165L9.58803 38.8513L0 27.3563C2.06003 26.4559 4.17092 26.1599 6.01477 26.1599C8.55801 26.1599 10.618 26.7149 11.3556 27.0479C13.1994 27.862 14.7254 29.2063 15.997 30.7357L16.4548 31.2907L32.6044 13.5795C34.4101 11.6061 36.5846 9.95338 39.0642 8.89268C42.4086 7.46197 45.5241 7.21529 50.636 9.04068L50.6487 9.02835Z" fill="#FF7F00"/>
<path d="M27.8229 0V13.6411L17.4973 24.9758L17.4719 25.0005L16.7471 25.7282V0H27.8229Z" fill="#1A1A1A"/>
<path d="M52.6324 47.8673H38.7209C38.1232 47.8673 37.5637 47.6083 37.1822 47.1643L29.0947 37.544L36.8262 29.0583L52.6324 47.8673Z" fill="#1A1A1A"/>
</g>
<path d="M204.975 54.55L203.075 65.325C203.008 65.7917 202.975 66.1167 202.975 66.3C202.975 67.1667 203.233 67.8333 203.75 68.3C204.267 68.75 205 68.975 205.95 68.975C207.083 68.975 208.008 68.6667 208.725 68.05C209.458 67.4167 209.933 66.5083 210.15 65.325L212.05 54.55H215.575L213.675 65.325C213.408 66.825 212.867 68.0917 212.05 69.125C211.233 70.1417 210.242 70.9083 209.075 71.425C207.925 71.925 206.683 72.175 205.35 72.175C203.583 72.175 202.15 71.7167 201.05 70.8C199.967 69.8833 199.425 68.5667 199.425 66.85C199.425 66.3833 199.475 65.875 199.575 65.325L201.475 54.55H204.975ZM221.282 72.225C220.265 72.225 219.34 72.0583 218.507 71.725C217.69 71.375 217.04 70.9 216.557 70.3C216.09 69.6833 215.857 68.9833 215.857 68.2C215.857 68.0833 215.873 67.8917 215.907 67.625H219.307C219.257 68.2083 219.432 68.6833 219.832 69.05C220.232 69.4 220.798 69.575 221.532 69.575C222.198 69.575 222.748 69.4583 223.182 69.225C223.632 68.975 223.857 68.6167 223.857 68.15C223.857 67.7333 223.648 67.4 223.232 67.15C222.832 66.9 222.19 66.6167 221.307 66.3C220.423 65.9833 219.69 65.675 219.107 65.375C218.523 65.075 218.023 64.6583 217.607 64.125C217.19 63.5917 216.982 62.9167 216.982 62.1C216.982 61.2833 217.215 60.5583 217.682 59.925C218.165 59.2917 218.832 58.8 219.682 58.45C220.532 58.1 221.507 57.925 222.607 57.925C223.657 57.925 224.582 58.1 225.382 58.45C226.182 58.8 226.798 59.2917 227.232 59.925C227.682 60.5417 227.907 61.25 227.907 62.05C227.907 62.25 227.898 62.4 227.882 62.5H224.632C224.682 61.9167 224.515 61.45 224.132 61.1C223.748 60.75 223.19 60.575 222.457 60.575C221.857 60.575 221.365 60.7083 220.982 60.975C220.598 61.225 220.407 61.5667 220.407 62C220.407 62.4333 220.623 62.7917 221.057 63.075C221.49 63.3417 222.157 63.6417 223.057 63.975C223.957 64.325 224.673 64.65 225.207 64.95C225.757 65.2333 226.232 65.6333 226.632 66.15C227.032 66.65 227.232 67.2833 227.232 68.05C227.232 68.9 226.973 69.6417 226.457 70.275C225.94 70.9083 225.232 71.3917 224.332 71.725C223.432 72.0583 222.415 72.225 221.282 72.225ZM245.005 58.15L242.555 72H239.055L239.355 70.25C238.821 70.85 238.163 71.325 237.38 71.675C236.596 72.0083 235.771 72.175 234.905 72.175C233.471 72.175 232.338 71.7917 231.505 71.025C230.671 70.2417 230.255 69.1333 230.255 67.7C230.255 67.1667 230.296 66.6917 230.38 66.275L231.805 58.15H235.305L233.955 65.775C233.905 66.075 233.88 66.3667 233.88 66.65C233.88 67.4667 234.105 68.1 234.555 68.55C235.005 68.9833 235.638 69.2 236.455 69.2C237.405 69.2 238.213 68.9083 238.88 68.325C239.546 67.725 239.971 66.875 240.155 65.775L241.505 58.15H245.005ZM246.358 65.025C246.608 63.625 247.1 62.3833 247.833 61.3C248.583 60.2167 249.491 59.3833 250.558 58.8C251.625 58.2167 252.75 57.925 253.933 57.925C254.966 57.925 255.833 58.1333 256.533 58.55C257.25 58.9667 257.775 59.4917 258.108 60.125L258.458 58.15H261.983L259.533 72H256.008L256.383 69.975C255.833 70.625 255.116 71.1667 254.233 71.6C253.366 72.0167 252.416 72.225 251.383 72.225C250.366 72.225 249.466 72 248.683 71.55C247.9 71.0833 247.291 70.4333 246.858 69.6C246.425 68.75 246.208 67.7667 246.208 66.65C246.208 66.1333 246.258 65.5917 246.358 65.025ZM257.233 65.075C257.3 64.6417 257.333 64.325 257.333 64.125C257.333 63.1417 257.041 62.375 256.458 61.825C255.891 61.275 255.175 61 254.308 61C253.658 61 253.025 61.1583 252.408 61.475C251.808 61.7917 251.283 62.2583 250.833 62.875C250.383 63.475 250.083 64.1917 249.933 65.025C249.883 65.3417 249.858 65.6417 249.858 65.925C249.858 66.925 250.141 67.7167 250.708 68.3C251.275 68.8667 251.991 69.15 252.858 69.15C253.508 69.15 254.141 68.9917 254.758 68.675C255.375 68.3417 255.9 67.8667 256.333 67.25C256.783 66.6333 257.083 65.9083 257.233 65.075ZM268.501 60.6C269.101 59.7667 269.801 59.1167 270.601 58.65C271.401 58.1833 272.268 57.95 273.201 57.95L272.551 61.625H271.626C270.593 61.625 269.76 61.85 269.126 62.3C268.51 62.75 268.06 63.5167 267.776 64.6L266.476 72H262.951L265.401 58.15H268.926L268.501 60.6ZM277.584 56.5C277.034 56.5 276.592 56.3417 276.259 56.025C275.925 55.7083 275.759 55.3083 275.759 54.825C275.759 54.1583 276.009 53.5917 276.509 53.125C277.025 52.6417 277.625 52.4 278.309 52.4C278.842 52.4 279.275 52.5583 279.609 52.875C279.942 53.1917 280.109 53.5917 280.109 54.075C280.109 54.7417 279.859 55.3167 279.359 55.8C278.859 56.2667 278.267 56.5 277.584 56.5ZM279.034 58.15L276.584 72H273.059L275.509 58.15H279.034ZM286.217 72.225C285.033 72.225 283.983 71.9833 283.067 71.5C282.167 71.0167 281.467 70.3333 280.967 69.45C280.467 68.5667 280.217 67.55 280.217 66.4C280.217 64.8333 280.583 63.4083 281.317 62.125C282.067 60.825 283.083 59.8 284.367 59.05C285.667 58.3 287.108 57.925 288.692 57.925C289.875 57.925 290.925 58.175 291.842 58.675C292.775 59.1583 293.492 59.8417 293.992 60.725C294.508 61.6083 294.767 62.625 294.767 63.775C294.767 65.3583 294.392 66.7917 293.642 68.075C292.892 69.3583 291.858 70.375 290.542 71.125C289.242 71.8583 287.8 72.225 286.217 72.225ZM286.692 69.225C287.525 69.225 288.283 68.9833 288.967 68.5C289.65 68.0167 290.183 67.375 290.567 66.575C290.95 65.775 291.142 64.9333 291.142 64.05C291.142 63.05 290.858 62.2833 290.292 61.75C289.742 61.2 289.042 60.925 288.192 60.925C287.342 60.925 286.583 61.1667 285.917 61.65C285.267 62.1333 284.758 62.7833 284.392 63.6C284.025 64.4 283.842 65.25 283.842 66.15C283.842 67.1333 284.1 67.8917 284.617 68.425C285.15 68.9583 285.842 69.225 286.692 69.225Z" fill="#FF8000"/>
<defs>
<clipPath id="clip0_194_2355">
<rect width="297" height="51" fill="white"/>
</clipPath>
</defs>
</svg>
