<svg width="139" height="39" viewBox="0 0 139 39" fill="none" xmlns="http://www.w3.org/2000/svg">
<g clip-path="url(#clip0_244_1649)">
<path d="M38.7647 6.74122V18.7733H35.3683L35.1185 17.3346C34.0716 18.4542 32.7035 19.017 31.0261 19.017C29.8781 19.017 28.855 18.7501 27.9687 18.2222C27.0764 17.6942 26.3805 16.9575 25.8808 16.006C25.3812 15.0546 25.1313 13.9697 25.1313 12.7573C25.1313 11.5448 25.3812 10.4541 25.8808 9.50268C26.3805 8.55125 27.0764 7.81447 27.9687 7.28655C28.8609 6.75862 29.8781 6.49756 31.0261 6.49756C31.8588 6.49756 32.6261 6.63679 33.3221 6.92106C34.018 7.20533 34.6188 7.61723 35.1185 8.15095L35.3683 6.74122H38.7647ZM34.0716 14.9618C34.6188 14.3991 34.8984 13.6681 34.8984 12.7573C34.8984 11.8464 34.6248 11.1155 34.0716 10.5527C33.5243 9.9958 32.8165 9.71153 31.948 9.71153C31.0796 9.71153 30.3777 9.9958 29.8364 10.5643C29.2951 11.1329 29.0275 11.8638 29.0275 12.7573C29.0275 13.6507 29.2951 14.3816 29.8364 14.9502C30.3777 15.5187 31.0796 15.803 31.948 15.803C32.8165 15.803 33.5243 15.5245 34.0716 14.9618Z" fill="#FF7F00"/>
<path d="M60.4399 7.81449C61.3381 8.7079 61.7902 9.93199 61.7902 11.4926V18.7733H57.8703V11.9799C57.8703 11.2663 57.6978 10.7094 57.3587 10.3149C57.0197 9.92039 56.5379 9.71734 55.9252 9.71734C55.2412 9.71734 54.6999 9.9436 54.3013 10.4019C53.9028 10.8544 53.7006 11.4578 53.7006 12.2061V18.7849H49.8045V11.9915C49.8045 11.2779 49.6379 10.721 49.3048 10.3265C48.9717 9.93199 48.4958 9.72895 47.8832 9.72895C47.1991 9.72895 46.6578 9.9552 46.2474 10.4135C45.837 10.866 45.6347 11.4694 45.6347 12.2177V18.7965H41.7148V6.74123H45.1113L45.3373 8.08135C45.7716 7.55923 46.289 7.16473 46.8958 6.88626C47.5025 6.6078 48.1568 6.47437 48.8587 6.47437C49.6558 6.47437 50.3755 6.64261 51.006 6.97329C51.6365 7.30396 52.1362 7.76227 52.505 8.34821C53.5043 7.10092 54.92 6.47437 56.752 6.47437C58.3164 6.47437 59.5477 6.92107 60.4459 7.81449H60.4399Z" fill="#FF7F00"/>
<path d="M75.3998 7.29235C76.298 7.82028 76.9998 8.55705 77.4995 9.50848C77.9992 10.4599 78.249 11.5448 78.249 12.7631C78.249 13.9813 77.9992 15.0662 77.4995 16.0118C76.9998 16.9633 76.3039 17.7 75.3998 18.228C74.5016 18.7559 73.4785 19.0228 72.3305 19.0228C70.7958 19.0228 69.5229 18.5528 68.5117 17.613V23.9945H64.5918V6.74122H67.9883L68.2381 8.15095C69.2731 7.04869 70.6352 6.49756 72.3364 6.49756C73.4844 6.49756 74.5075 6.75862 75.4057 7.28655L75.3998 7.29235ZM73.5261 14.9618C74.0733 14.399 74.3529 13.6681 74.3529 12.7573C74.3529 11.8464 74.0793 11.1155 73.5261 10.5527C72.9788 9.9958 72.271 9.71153 71.4025 9.71153C70.5341 9.71153 69.8322 9.9958 69.2909 10.5643C68.7496 11.1329 68.482 11.8638 68.482 12.7573C68.482 13.6507 68.7496 14.3816 69.2909 14.9502C69.8322 15.5187 70.5341 15.803 71.4025 15.803C72.271 15.803 72.9788 15.5245 73.5261 14.9618Z" fill="#1A1A1A"/>
<path d="M93.4054 6.74122V18.7733H90.0089L89.7591 17.3346C88.7122 18.4542 87.3441 19.017 85.6667 19.017C84.5187 19.017 83.4956 18.7501 82.6093 18.2222C81.7171 17.6942 81.0211 16.9575 80.5214 16.006C80.0218 15.0546 79.772 13.9697 79.772 12.7573C79.772 11.5448 80.0218 10.4541 80.5214 9.50268C81.0211 8.55125 81.7171 7.81447 82.6093 7.28655C83.5015 6.75862 84.5187 6.49756 85.6667 6.49756C86.4994 6.49756 87.2668 6.63679 87.9627 6.92106C88.6587 7.20533 89.2594 7.61723 89.7591 8.15095L90.0089 6.74122H93.4054ZM88.7122 14.9618C89.2594 14.3991 89.539 13.6681 89.539 12.7573C89.539 11.8464 89.2654 11.1155 88.7122 10.5527C88.165 9.9958 87.4571 9.71153 86.5887 9.71153C85.7202 9.71153 85.0183 9.9958 84.477 10.5643C83.9357 11.1329 83.6681 11.8638 83.6681 12.7573C83.6681 13.6507 83.9357 14.3816 84.477 14.9502C85.0183 15.5187 85.7202 15.803 86.5887 15.803C87.4571 15.803 88.165 15.5245 88.7122 14.9618Z" fill="#1A1A1A"/>
<path d="M107.627 7.93626C108.538 8.91089 108.99 10.2568 108.99 11.9798V18.7733H105.07V12.1945C105.07 11.4171 104.868 10.8079 104.469 10.367C104.07 9.92613 103.517 9.71148 102.821 9.71148C102.054 9.71148 101.441 9.96094 100.971 10.4657C100.507 10.9704 100.27 11.6259 100.27 12.4381V18.7733H96.3496V6.74117H99.7461L99.9959 8.15091C100.478 7.61718 101.055 7.19948 101.733 6.90941C102.411 6.61934 103.154 6.46851 103.969 6.46851C105.498 6.46851 106.717 6.95582 107.627 7.93046V7.93626Z" fill="#1A1A1A"/>
<path d="M121.225 7.217C122.207 7.71012 122.962 8.41209 123.486 9.3113C124.009 10.2105 124.271 11.2664 124.271 12.4673C124.271 12.856 124.229 13.3375 124.146 13.906H115.081C115.2 14.5209 115.539 15.0199 116.104 15.4028C116.669 15.7857 117.395 15.9771 118.275 15.9771C118.894 15.9771 119.488 15.8901 120.071 15.7102C120.654 15.5304 121.154 15.2809 121.57 14.9561L123.617 17.0968C122.915 17.7291 122.088 18.2164 121.13 18.5587C120.173 18.901 119.155 19.0692 118.073 19.0692C116.639 19.0692 115.402 18.814 114.349 18.3035C113.302 17.7929 112.493 17.0678 111.928 16.1221C111.363 15.1823 111.078 14.0684 111.078 12.7863C111.078 11.5042 111.357 10.4542 111.916 9.49695C112.475 8.53972 113.255 7.79714 114.248 7.26921C115.241 6.74129 116.401 6.48022 117.722 6.48022C119.042 6.48022 120.238 6.72968 121.219 7.2228L121.225 7.217ZM115.943 10.0771C115.45 10.4658 115.176 11.0111 115.105 11.7073H120.547C120.5 11.0111 120.238 10.4658 119.762 10.0771C119.286 9.68839 118.65 9.49115 117.853 9.49115C117.056 9.49115 116.431 9.68839 115.943 10.0771Z" fill="#1A1A1A"/>
<path d="M135.882 7.217C136.863 7.71012 137.618 8.41209 138.142 9.3113C138.665 10.2105 138.927 11.2664 138.927 12.4673C138.927 12.856 138.885 13.3375 138.802 13.906H129.737C129.856 14.5209 130.195 15.0199 130.76 15.4028C131.325 15.7857 132.051 15.9771 132.931 15.9771C133.544 15.9771 134.145 15.8901 134.728 15.7102C135.311 15.5304 135.81 15.2809 136.227 14.9561L138.273 17.0968C137.571 17.7291 136.744 18.2164 135.786 18.5587C134.829 18.901 133.812 19.0692 132.729 19.0692C131.295 19.0692 130.058 18.814 129.005 18.3035C127.959 17.7929 127.15 17.0678 126.584 16.1221C126.019 15.1823 125.734 14.0684 125.734 12.7863C125.734 11.5042 126.013 10.4542 126.573 9.49695C127.132 8.53972 127.911 7.79714 128.904 7.26921C129.898 6.74129 131.058 6.48022 132.378 6.48022C133.699 6.48022 134.894 6.72968 135.876 7.2228L135.882 7.217ZM130.6 10.0771C130.112 10.4658 129.832 11.0111 129.761 11.7073H135.203C135.156 11.0111 134.894 10.4658 134.418 10.0771C133.942 9.68839 133.306 9.49115 132.509 9.49115C131.712 9.49115 131.087 9.68839 130.6 10.0771Z" fill="#1A1A1A"/>
<path d="M23.6919 4.24654L22.6034 5.343L10.7604 18.4077L8.55953 20.8385C8.02419 21.4245 7.07842 21.407 6.57282 20.7979L4.48498 18.2743L0 12.8674C0.963617 12.4439 1.95103 12.3047 2.81352 12.3047C4.00317 12.3047 4.96679 12.5657 5.31179 12.7224C6.17428 13.1053 6.88807 13.7376 7.4829 14.457L7.69704 14.718L15.2513 6.38725C16.096 5.45903 17.1131 4.68165 18.273 4.18273C19.8374 3.50977 21.2947 3.39374 23.6859 4.25234L23.6919 4.24654Z" fill="#FF7F00"/>
<path d="M13.0149 0V6.41634L8.18493 11.7478L8.17303 11.7594L7.83398 12.1017V0H13.0149Z" fill="#1A1A1A"/>
<path d="M24.6196 22.5151H18.1122C17.8326 22.5151 17.5709 22.3933 17.3925 22.1844L13.6094 17.6593L17.2259 13.668L24.6196 22.5151Z" fill="#1A1A1A"/>
</g>
<path d="M102.298 24.7163L101.538 29.0263C101.511 29.213 101.498 29.343 101.498 29.4163C101.498 29.763 101.601 30.0296 101.808 30.2163C102.015 30.3963 102.308 30.4863 102.688 30.4863C103.141 30.4863 103.511 30.363 103.798 30.1163C104.091 29.863 104.281 29.4996 104.368 29.0263L105.128 24.7163H106.538L105.778 29.0263C105.671 29.6263 105.455 30.133 105.128 30.5463C104.801 30.953 104.405 31.2596 103.938 31.4663C103.478 31.6663 102.981 31.7663 102.448 31.7663C101.741 31.7663 101.168 31.583 100.728 31.2163C100.295 30.8496 100.078 30.323 100.078 29.6363C100.078 29.4496 100.098 29.2463 100.138 29.0263L100.898 24.7163H102.298ZM108.821 31.7863C108.414 31.7863 108.044 31.7196 107.711 31.5863C107.384 31.4463 107.124 31.2563 106.931 31.0163C106.744 30.7696 106.651 30.4896 106.651 30.1763C106.651 30.1296 106.657 30.053 106.671 29.9463H108.031C108.011 30.1796 108.081 30.3696 108.241 30.5163C108.401 30.6563 108.627 30.7263 108.921 30.7263C109.187 30.7263 109.407 30.6796 109.581 30.5863C109.761 30.4863 109.851 30.343 109.851 30.1563C109.851 29.9896 109.767 29.8563 109.601 29.7563C109.441 29.6563 109.184 29.543 108.831 29.4163C108.477 29.2896 108.184 29.1663 107.951 29.0463C107.717 28.9263 107.517 28.7596 107.351 28.5463C107.184 28.333 107.101 28.063 107.101 27.7363C107.101 27.4096 107.194 27.1196 107.381 26.8663C107.574 26.613 107.841 26.4163 108.181 26.2763C108.521 26.1363 108.911 26.0663 109.351 26.0663C109.771 26.0663 110.141 26.1363 110.461 26.2763C110.781 26.4163 111.027 26.613 111.201 26.8663C111.381 27.113 111.471 27.3963 111.471 27.7163C111.471 27.7963 111.467 27.8563 111.461 27.8963H110.161C110.181 27.663 110.114 27.4763 109.961 27.3363C109.807 27.1963 109.584 27.1263 109.291 27.1263C109.051 27.1263 108.854 27.1796 108.701 27.2863C108.547 27.3863 108.471 27.523 108.471 27.6963C108.471 27.8696 108.557 28.013 108.731 28.1263C108.904 28.233 109.171 28.353 109.531 28.4863C109.891 28.6263 110.177 28.7563 110.391 28.8763C110.611 28.9896 110.801 29.1496 110.961 29.3563C111.121 29.5563 111.201 29.8096 111.201 30.1163C111.201 30.4563 111.097 30.753 110.891 31.0063C110.684 31.2596 110.401 31.453 110.041 31.5863C109.681 31.7196 109.274 31.7863 108.821 31.7863ZM118.31 26.1563L117.33 31.6963H115.93L116.05 30.9963C115.837 31.2363 115.573 31.4263 115.26 31.5663C114.947 31.6996 114.617 31.7663 114.27 31.7663C113.697 31.7663 113.243 31.613 112.91 31.3063C112.577 30.993 112.41 30.5496 112.41 29.9763C112.41 29.763 112.427 29.573 112.46 29.4063L113.03 26.1563H114.43L113.89 29.2063C113.87 29.3263 113.86 29.443 113.86 29.5563C113.86 29.883 113.95 30.1363 114.13 30.3163C114.31 30.4896 114.563 30.5763 114.89 30.5763C115.27 30.5763 115.593 30.4596 115.86 30.2263C116.127 29.9863 116.297 29.6463 116.37 29.2063L116.91 26.1563H118.31ZM118.851 28.9063C118.951 28.3463 119.148 27.8496 119.441 27.4163C119.741 26.983 120.105 26.6496 120.531 26.4163C120.958 26.183 121.408 26.0663 121.881 26.0663C122.295 26.0663 122.641 26.1496 122.921 26.3163C123.208 26.483 123.418 26.693 123.551 26.9463L123.691 26.1563H125.101L124.121 31.6963H122.711L122.861 30.8863C122.641 31.1463 122.355 31.363 122.001 31.5363C121.655 31.703 121.275 31.7863 120.861 31.7863C120.455 31.7863 120.095 31.6963 119.781 31.5163C119.468 31.3296 119.225 31.0696 119.051 30.7363C118.878 30.3963 118.791 30.003 118.791 29.5563C118.791 29.3496 118.811 29.133 118.851 28.9063ZM123.201 28.9263C123.228 28.753 123.241 28.6263 123.241 28.5463C123.241 28.153 123.125 27.8463 122.891 27.6263C122.665 27.4063 122.378 27.2963 122.031 27.2963C121.771 27.2963 121.518 27.3596 121.271 27.4863C121.031 27.613 120.821 27.7996 120.641 28.0463C120.461 28.2863 120.341 28.573 120.281 28.9063C120.261 29.033 120.251 29.153 120.251 29.2663C120.251 29.6663 120.365 29.983 120.591 30.2163C120.818 30.443 121.105 30.5563 121.451 30.5563C121.711 30.5563 121.965 30.493 122.211 30.3663C122.458 30.233 122.668 30.043 122.841 29.7963C123.021 29.5496 123.141 29.2596 123.201 28.9263ZM127.709 27.1363C127.949 26.803 128.229 26.543 128.549 26.3563C128.869 26.1696 129.215 26.0763 129.589 26.0763L129.329 27.5463H128.959C128.545 27.5463 128.212 27.6363 127.959 27.8163C127.712 27.9963 127.532 28.303 127.419 28.7363L126.899 31.6963H125.489L126.469 26.1563H127.879L127.709 27.1363ZM131.342 25.4963C131.122 25.4963 130.945 25.433 130.812 25.3063C130.678 25.1796 130.612 25.0196 130.612 24.8263C130.612 24.5596 130.712 24.333 130.912 24.1463C131.118 23.953 131.358 23.8563 131.632 23.8563C131.845 23.8563 132.018 23.9196 132.152 24.0463C132.285 24.173 132.352 24.333 132.352 24.5263C132.352 24.793 132.252 25.023 132.052 25.2163C131.852 25.403 131.615 25.4963 131.342 25.4963ZM131.922 26.1563L130.942 31.6963H129.532L130.512 26.1563H131.922ZM134.795 31.7863C134.321 31.7863 133.901 31.6896 133.535 31.4963C133.175 31.303 132.895 31.0296 132.695 30.6763C132.495 30.323 132.395 29.9163 132.395 29.4563C132.395 28.8296 132.541 28.2596 132.835 27.7463C133.135 27.2263 133.541 26.8163 134.055 26.5163C134.575 26.2163 135.151 26.0663 135.785 26.0663C136.258 26.0663 136.678 26.1663 137.045 26.3663C137.418 26.5596 137.705 26.833 137.905 27.1863C138.111 27.5396 138.215 27.9463 138.215 28.4063C138.215 29.0396 138.065 29.613 137.765 30.1263C137.465 30.6396 137.051 31.0463 136.525 31.3463C136.005 31.6396 135.428 31.7863 134.795 31.7863ZM134.985 30.5863C135.318 30.5863 135.621 30.4896 135.895 30.2963C136.168 30.103 136.381 29.8463 136.535 29.5263C136.688 29.2063 136.765 28.8696 136.765 28.5163C136.765 28.1163 136.651 27.8096 136.425 27.5963C136.205 27.3763 135.925 27.2663 135.585 27.2663C135.245 27.2663 134.941 27.363 134.675 27.5563C134.415 27.7496 134.211 28.0096 134.065 28.3363C133.918 28.6563 133.845 28.9963 133.845 29.3563C133.845 29.7496 133.948 30.053 134.155 30.2663C134.368 30.4796 134.645 30.5863 134.985 30.5863Z" fill="#FF8000"/>
<defs>
<clipPath id="clip0_244_1649">
<rect width="138.927" height="23.9887" fill="white"/>
</clipPath>
</defs>
</svg>
