<svg  xmlns="http://www.w3.org/2000/svg" width="968" height="267" viewBox="0 0 968 267" fill="none">
                        <path d="M496.807 187.203L498.4 189.13L496.807 187.203ZM10.2275 0.108414L28.8199 22.1913L0.399331 27.2514L10.2275 0.108414ZM1016.49 88.4244C1015.2 87.9191 1014.57 86.4678 1015.07 85.1829C1015.58 83.898 1017.03 83.2661 1018.32 83.7714L1016.49 88.4244ZM1008.87 80.2503C1010.17 80.7107 1010.86 82.1391 1010.4 83.4408C1009.94 84.7425 1008.51 85.4245 1007.21 84.9641L1008.87 80.2503ZM997.808 81.8033C996.493 81.3827 995.768 79.9756 996.188 78.6605C996.609 77.3454 998.016 76.6203 999.331 77.041L997.808 81.8033ZM989.703 74.1083C991.029 74.4928 991.793 75.8795 991.408 77.2056C991.024 78.5317 989.637 79.295 988.311 78.9105L989.703 74.1083ZM978.723 76.263C977.388 75.912 976.59 74.545 976.941 73.2097C977.292 71.8743 978.659 71.0762 979.994 71.4271L978.723 76.263ZM970.206 68.9795C971.55 69.2988 972.38 70.6465 972.061 71.9898C971.741 73.3331 970.394 74.1633 969.05 73.844L970.206 68.9795ZM959.392 71.6626C958.042 71.3733 957.182 70.0443 957.472 68.6943C957.761 67.3442 959.09 66.4843 960.44 66.7736L959.392 71.6626ZM950.625 64.7802C951.981 65.0406 952.869 66.351 952.609 67.7069C952.348 69.0628 951.038 69.9509 949.682 69.6904L950.625 64.7802ZM939.894 67.9151C938.533 67.6826 937.618 66.3909 937.851 65.0299C938.083 63.6689 939.375 62.754 940.736 62.9865L939.894 67.9151ZM930.774 61.3883C932.139 61.5934 933.08 62.8665 932.875 64.2319C932.67 65.5972 931.397 66.5379 930.031 66.3329L930.774 61.3883ZM920.234 64.9594C918.865 64.781 917.9 63.5265 918.078 62.1573C918.257 60.7882 919.511 59.8229 920.88 60.0013L920.234 64.9594ZM910.923 58.801C912.295 58.9531 913.284 60.189 913.132 61.5613C912.98 62.9336 911.744 63.9227 910.372 63.7706L910.923 58.801ZM900.436 62.7646C899.062 62.6385 898.049 61.4217 898.175 60.0468C898.301 58.6718 899.518 57.6594 900.893 57.7855L900.436 62.7646ZM890.929 56.9653C892.306 57.0657 893.341 58.2635 893.24 59.6406C893.14 61.0177 891.942 62.0525 890.565 61.952L890.929 56.9653ZM880.645 61.3202C879.266 61.2451 878.209 60.0667 878.284 58.688C878.36 57.3093 879.538 56.2525 880.917 56.3276L880.645 61.3202ZM870.849 55.8726C872.229 55.9223 873.308 57.0811 873.258 58.4609C873.208 59.8407 872.049 60.919 870.67 60.8694L870.849 55.8726ZM860.776 60.6033C859.396 60.5788 858.297 59.4397 858.321 58.0592C858.346 56.6787 859.485 55.5795 860.866 55.6041L860.776 60.6033ZM850.811 55.5165C852.192 55.516 853.312 56.6349 853.312 58.0156C853.313 59.3963 852.194 60.516 850.813 60.5166L850.811 55.5165ZM840.875 60.6103C839.495 60.6358 838.355 59.5374 838.329 58.157C838.304 56.7765 839.402 55.6367 840.783 55.6112L840.875 60.6103ZM830.765 55.8869C832.145 55.8364 833.304 56.9141 833.354 58.2939C833.405 59.6737 832.327 60.8331 830.947 60.8835L830.765 55.8869ZM820.978 61.3385C819.6 61.414 818.421 60.3575 818.346 58.9789C818.27 57.6003 819.327 56.4215 820.705 56.346L820.978 61.3385ZM810.731 56.9819C812.109 56.8817 813.306 57.9167 813.406 59.2938C813.507 60.6709 812.472 61.8685 811.095 61.9688L810.731 56.9819ZM801.151 62.7834C799.776 62.9086 798.56 61.8954 798.434 60.5204C798.309 59.1454 799.322 57.9292 800.697 57.804L801.151 62.7834ZM790.744 58.801C792.116 58.651 793.351 59.642 793.501 61.0146C793.651 62.3871 792.66 63.6214 791.287 63.7714L790.744 58.801ZM781.398 64.943C780.029 65.1179 778.777 64.1494 778.602 62.7799C778.427 61.4103 779.395 60.1582 780.765 59.9833L781.398 64.943ZM770.832 61.3434C772.199 61.1437 773.468 62.0893 773.668 63.4555C773.867 64.8217 772.922 66.0911 771.556 66.2908L770.832 61.3434ZM761.731 67.8183C760.369 68.0428 759.082 67.1204 758.858 65.7581C758.633 64.3958 759.556 63.1094 760.918 62.8848L761.731 67.8183ZM751.026 64.608C752.384 64.3586 753.687 65.2574 753.936 66.6154C754.186 67.9734 753.287 69.2764 751.929 69.5258L751.026 64.608ZM742.178 71.4081C740.825 71.6821 739.506 70.8073 739.232 69.454C738.958 68.1008 739.833 66.7816 741.186 66.5075L742.178 71.4081ZM731.353 68.593C732.701 68.2942 734.036 69.1447 734.335 70.4927C734.633 71.8407 733.783 73.1756 732.435 73.4745L731.353 68.593ZM722.768 75.7103C721.426 76.0337 720.076 75.2077 719.752 73.8654C719.429 72.5231 720.255 71.1728 721.597 70.8494L722.768 75.7103ZM711.841 73.2953C713.177 72.9472 714.542 73.7482 714.89 75.0843C715.238 76.4204 714.437 77.7857 713.101 78.1338L711.841 73.2953ZM703.528 80.7215C702.199 81.094 700.819 80.3181 700.446 78.9886C700.074 77.6591 700.85 76.2794 702.179 75.9069L703.528 80.7215ZM692.517 78.7102C693.84 78.3133 695.233 79.0635 695.63 80.386C696.027 81.7084 695.277 83.1022 693.955 83.4992L692.517 78.7102ZM684.485 86.4366C683.17 86.8578 681.763 86.1332 681.342 84.8183C680.92 83.5034 681.645 82.096 682.96 81.6749L684.485 86.4366ZM673.409 84.8315C674.715 84.3862 676.136 85.0846 676.581 86.3915C677.027 87.6984 676.328 89.1189 675.021 89.5643L673.409 84.8315ZM665.664 92.8488C664.366 93.3181 662.933 92.6458 662.464 91.3473C661.994 90.0487 662.667 88.6157 663.965 88.1464L665.664 92.8488ZM654.541 91.6506C655.83 91.1575 657.276 91.8033 657.769 93.0929C658.262 94.3826 657.616 95.8278 656.326 96.3209L654.541 91.6506ZM647.091 99.9493C645.811 100.466 644.354 99.8468 643.837 98.5664C643.321 97.286 643.94 95.8292 645.22 95.3126L647.091 99.9493ZM635.939 99.1572C637.209 98.6172 638.677 99.2095 639.217 100.48C639.758 101.751 639.165 103.219 637.895 103.759L635.939 99.1572ZM628.789 107.728C627.528 108.291 626.05 107.725 625.486 106.465C624.923 105.204 625.489 103.726 626.749 103.162L628.789 107.728ZM617.626 107.339C618.876 106.753 620.364 107.291 620.951 108.541C621.537 109.791 620.998 111.28 619.748 111.866L617.626 107.339ZM610.779 116.171C609.539 116.78 608.041 116.269 607.432 115.029C606.824 113.79 607.335 112.292 608.574 111.683L610.779 116.171ZM599.623 116.181C600.851 115.55 602.359 116.034 602.99 117.262C603.621 118.49 603.137 119.997 601.909 120.628L599.623 116.181ZM593.08 125.266C591.864 125.919 590.348 125.462 589.695 124.246C589.042 123.029 589.499 121.514 590.715 120.861L593.08 125.266ZM581.951 125.667C583.156 124.993 584.679 125.422 585.354 126.627C586.029 127.831 585.599 129.355 584.395 130.03L581.951 125.667ZM575.712 134.996C574.52 135.692 572.989 135.29 572.293 134.098C571.596 132.905 571.999 131.374 573.191 130.678L575.712 134.996ZM564.626 135.781C565.806 135.064 567.343 135.439 568.06 136.619C568.778 137.799 568.402 139.337 567.223 140.054L564.626 135.781ZM558.742 145.311C557.575 146.049 556.031 145.701 555.293 144.534C554.555 143.367 554.903 141.823 556.07 141.085L558.742 145.311ZM547.661 146.504C548.816 145.746 550.366 146.067 551.124 147.221C551.882 148.375 551.56 149.925 550.406 150.684L547.661 146.504ZM542.14 156.217C540.999 156.994 539.444 156.7 538.666 155.559C537.888 154.419 538.182 152.863 539.323 152.086L542.14 156.217ZM531.07 157.818C532.197 157.021 533.757 157.288 534.554 158.415C535.352 159.543 535.084 161.103 533.957 161.9L531.07 157.818ZM525.914 167.692C524.801 168.509 523.236 168.268 522.42 167.154C521.604 166.041 521.845 164.476 522.958 163.66L525.914 167.692ZM514.866 169.698C515.966 168.863 517.534 169.077 518.369 170.177C519.204 171.276 518.99 172.845 517.89 173.68L514.866 169.698ZM510.073 179.72C508.987 180.573 507.416 180.384 506.562 179.299C505.709 178.213 505.898 176.641 506.983 175.788L510.073 179.72ZM499.131 182.065C500.203 181.194 501.777 181.356 502.648 182.428C503.519 183.499 503.356 185.073 502.285 185.944L499.131 182.065ZM494.439 192.368C493.366 193.236 491.792 193.069 490.923 191.995C490.055 190.922 490.222 189.348 491.296 188.479L494.439 192.368ZM483.482 194.656C484.575 193.812 486.145 194.014 486.989 195.106C487.833 196.199 487.631 197.769 486.538 198.613L483.482 194.656ZM478.665 204.554C477.554 205.373 475.989 205.136 475.17 204.025C474.351 202.913 474.588 201.348 475.699 200.529L478.665 204.554ZM467.718 206.264C468.849 205.472 470.408 205.747 471.2 206.878C471.992 208.009 471.717 209.568 470.586 210.36L467.718 206.264ZM462.266 216.032C461.115 216.795 459.564 216.481 458.8 215.33C458.037 214.18 458.352 212.628 459.502 211.865L462.266 216.032ZM451.326 217.137C452.496 216.404 454.039 216.758 454.772 217.928C455.504 219.099 455.15 220.641 453.98 221.374L451.326 217.137ZM445.422 226.572C444.232 227.272 442.7 226.875 441.999 225.685C441.299 224.495 441.696 222.963 442.886 222.263L445.422 226.572ZM434.296 227.153C435.505 226.488 437.026 226.929 437.691 228.138C438.357 229.348 437.916 230.868 436.706 231.534L434.296 227.153ZM428.033 236.141C426.804 236.77 425.297 236.284 424.668 235.055C424.038 233.827 424.524 232.32 425.753 231.691L428.033 236.141ZM416.815 236.092C418.063 235.502 419.553 236.036 420.143 237.284C420.733 238.532 420.2 240.023 418.952 240.613L416.815 236.092ZM409.882 244.722C408.615 245.271 407.143 244.689 406.593 243.423C406.044 242.156 406.626 240.684 407.893 240.134L409.882 244.722ZM398.857 243.872C400.142 243.366 401.593 243.997 402.099 245.282C402.605 246.567 401.974 248.018 400.689 248.524L398.857 243.872ZM391.264 252.045C389.962 252.505 388.533 251.823 388.073 250.521C387.613 249.219 388.296 247.791 389.598 247.331L391.264 252.045ZM380.406 250.394C381.724 249.981 383.127 250.715 383.539 252.033C383.952 253.35 383.219 254.753 381.901 255.166L380.406 250.394ZM372.195 258.005C370.863 258.367 369.489 257.581 369.127 256.248C368.765 254.916 369.551 253.542 370.884 253.18L372.195 258.005ZM361.422 255.558C362.767 255.247 364.109 256.086 364.42 257.432C364.73 258.777 363.891 260.119 362.546 260.43L361.422 255.558ZM352.729 262.49C351.372 262.747 350.065 261.855 349.808 260.498C349.552 259.141 350.444 257.834 351.8 257.577L352.729 262.49ZM342.137 259.201C343.503 259 344.773 259.945 344.974 261.311C345.175 262.677 344.23 263.947 342.864 264.148L342.137 259.201ZM332.953 265.398C331.58 265.542 330.35 264.546 330.206 263.173C330.062 261.799 331.058 260.569 332.431 260.425L332.953 265.398ZM322.643 261.245C324.021 261.159 325.208 262.206 325.295 263.584C325.381 264.962 324.334 266.149 322.956 266.236L322.643 261.245ZM312.989 266.648C311.609 266.675 310.467 265.579 310.439 264.199C310.412 262.818 311.508 261.676 312.889 261.649L312.989 266.648ZM303.059 261.636C304.439 261.667 305.533 262.812 305.501 264.192C305.47 265.573 304.325 266.666 302.945 266.635L303.059 261.636ZM292.98 266.196C291.602 266.106 290.559 264.916 290.649 263.538C290.739 262.16 291.929 261.116 293.306 261.206L292.98 266.196ZM283.514 260.355C284.886 260.504 285.878 261.737 285.729 263.11C285.581 264.483 284.347 265.475 282.974 265.326L283.514 260.355ZM273.077 264.04C271.712 263.834 270.773 262.559 270.98 261.194C271.186 259.829 272.46 258.89 273.826 259.097L273.077 264.04ZM264.143 257.423C265.498 257.686 266.383 258.998 266.12 260.354C265.856 261.709 264.544 262.594 263.188 262.331L264.143 257.423ZM253.427 260.223C252.084 259.904 251.253 258.556 251.572 257.213C251.891 255.87 253.239 255.039 254.582 255.358L253.427 260.223ZM245.073 252.896C246.402 253.269 247.177 254.649 246.805 255.978C246.432 257.307 245.052 258.083 243.722 257.71L245.073 252.896ZM234.158 254.821C232.844 254.396 232.124 252.987 232.549 251.673C232.974 250.359 234.384 249.639 235.697 250.064L234.158 254.821ZM226.413 246.86C227.709 247.336 228.375 248.772 227.899 250.068C227.424 251.365 225.988 252.03 224.692 251.555L226.413 246.86ZM215.376 247.939C214.099 247.416 213.487 245.956 214.011 244.678C214.534 243.4 215.994 242.789 217.272 243.313L215.376 247.939ZM208.252 239.423C209.51 239.993 210.068 241.474 209.498 242.732C208.929 243.989 207.447 244.547 206.19 243.978L208.252 239.423ZM197.163 239.695C195.926 239.082 195.421 237.582 196.034 236.345C196.648 235.108 198.148 234.603 199.385 235.216L197.163 239.695ZM190.659 230.699C191.874 231.355 192.327 232.871 191.672 234.086C191.016 235.301 189.5 235.755 188.285 235.1L190.659 230.699ZM179.574 230.213C178.382 229.517 177.978 227.987 178.673 226.794C179.369 225.601 180.899 225.198 182.092 225.893L179.574 230.213ZM173.679 220.806C174.849 221.539 175.204 223.082 174.47 224.252C173.737 225.422 172.194 225.776 171.024 225.043L173.679 220.806ZM162.649 219.611C161.502 218.842 161.196 217.289 161.965 216.143C162.734 214.996 164.287 214.69 165.434 215.459L162.649 219.611ZM157.347 209.857C158.47 210.66 158.729 212.221 157.926 213.345C157.123 214.468 155.562 214.727 154.438 213.924L157.347 209.857ZM146.408 208.004C145.309 207.168 145.095 205.6 145.93 204.5C146.766 203.401 148.334 203.187 149.434 204.022L146.408 208.004ZM141.68 197.956C142.756 198.822 142.925 200.396 142.059 201.471C141.193 202.546 139.619 202.716 138.544 201.85L141.68 197.956ZM130.865 195.49C129.814 194.595 129.687 193.017 130.583 191.966C131.478 190.915 133.056 190.788 134.107 191.683L130.865 195.49ZM126.692 185.197C127.719 186.119 127.803 187.7 126.881 188.727C125.958 189.754 124.377 189.839 123.35 188.916L126.692 185.197ZM116.025 182.16C115.022 181.211 114.979 179.629 115.928 178.626C116.877 177.623 118.459 177.58 119.462 178.529L116.025 182.16ZM112.39 171.662C113.368 172.636 113.371 174.219 112.397 175.197C111.423 176.176 109.84 176.179 108.862 175.205L112.39 171.662ZM101.891 168.089C100.937 167.091 100.973 165.509 101.971 164.555C102.97 163.601 104.552 163.637 105.506 164.635L101.891 168.089ZM98.7801 157.422C99.7094 158.444 99.635 160.025 98.6138 160.954C97.5927 161.883 96.0116 161.809 95.0822 160.788L98.7801 157.422ZM88.4677 153.342C87.563 152.299 87.6754 150.72 88.7185 149.815C89.7616 148.911 91.3405 149.023 92.2451 150.066L88.4677 153.342ZM85.8731 142.539C86.7526 143.604 86.6029 145.18 85.5386 146.059C84.4743 146.939 82.8985 146.789 82.0189 145.725L85.8731 142.539ZM75.7624 137.971C74.908 136.886 75.0947 135.314 76.1794 134.46C77.264 133.605 78.8359 133.792 79.6902 134.877L75.7624 137.971ZM73.6836 127.064C74.5123 128.169 74.2889 129.736 73.1845 130.564C72.0801 131.393 70.5131 131.17 69.6844 130.065L73.6836 127.064ZM63.7912 122.017C62.9886 120.894 63.2487 119.332 64.3722 118.53C65.4957 117.727 67.0571 117.987 67.8597 119.111L63.7912 122.017ZM62.2368 111.041C63.0127 112.183 62.7159 113.738 61.5738 114.514C60.4318 115.289 58.8769 114.993 58.101 113.851L62.2368 111.041ZM52.582 105.515C51.8336 104.355 52.1675 102.807 53.3278 102.059C54.4882 101.311 56.0354 101.644 56.7838 102.805L52.582 105.515ZM51.5725 94.5073C52.2927 95.6854 51.9214 97.2241 50.7434 97.9442C49.5653 98.6643 48.0265 98.2931 47.3064 97.115L51.5725 94.5073ZM42.1812 88.4901C41.4909 87.2943 41.9007 85.7654 43.0964 85.0751C44.2922 84.3848 45.8211 84.7945 46.5115 85.9903L42.1812 88.4901ZM41.7202 77.4406C42.3796 78.6537 41.9307 80.1716 40.7175 80.831C39.5045 81.4903 37.9865 81.0414 37.3272 79.8283L41.7202 77.4406ZM32.6642 70.9672C32.0379 69.7367 32.5278 68.2315 33.7583 67.6052C34.9888 66.979 36.4941 67.4688 37.1203 68.6994L32.6642 70.9672ZM32.7773 59.8587C33.3681 61.1066 32.8355 62.5972 31.5876 63.188C30.3397 63.7788 28.849 63.2462 28.2582 61.9983L32.7773 59.8587ZM24.1511 52.9765C23.5983 51.7113 24.176 50.2375 25.4412 49.6848C26.7065 49.1321 28.1802 49.7097 28.7329 50.9749L24.1511 52.9765ZM24.9161 41.8295C25.4262 43.1126 24.7995 44.5661 23.5164 45.0762C22.2334 45.5862 20.7798 44.9595 20.2698 43.6764L24.9161 41.8295ZM16.7451 34.3204C16.2826 33.0195 16.9623 31.59 18.2634 31.1275C19.5643 30.665 20.9938 31.3448 21.4563 32.6458L16.7451 34.3204ZM18.388 23.4293C18.7964 24.7482 18.0582 26.1485 16.7393 26.5568C15.4204 26.9652 14.0201 26.227 13.6117 24.9081L18.388 23.4293ZM10.8524 15.1838C10.5089 13.8465 11.3147 12.4839 12.652 12.1405C13.9893 11.7971 15.3518 12.6028 15.6952 13.9401L10.8524 15.1838ZM13.5269 4.37992C13.7913 5.73509 12.907 7.04796 11.5518 7.31228C10.1966 7.57663 8.88377 6.69232 8.61947 5.33714L13.5269 4.37992ZM1020.99 90.244C1019.52 89.6361 1018.02 89.0293 1016.49 88.4244L1018.32 83.7714C1019.88 84.3878 1021.41 85.0066 1022.91 85.6271L1020.99 90.244ZM1007.21 84.9641C1004.19 83.8969 1001.05 82.8416 997.808 81.8033L999.331 77.041C1002.62 78.0942 1005.81 79.1657 1008.87 80.2503L1007.21 84.9641ZM988.311 78.9105C985.201 78.009 982.005 77.1252 978.723 76.263L979.994 71.4271C983.315 72.2999 986.553 73.1949 989.703 74.1083L988.311 78.9105ZM969.05 73.844C965.898 73.0949 962.678 72.3668 959.392 71.6626L960.44 66.7736C963.762 67.4855 967.018 68.2217 970.206 68.9795L969.05 73.844ZM949.682 69.6904C946.475 69.0742 943.211 68.4817 939.894 67.9151L940.736 62.9865C944.087 63.5588 947.384 64.1575 950.625 64.7802L949.682 69.6904ZM930.031 66.3329C926.811 65.8493 923.545 65.3909 920.234 64.9594L920.88 60.0013C924.223 60.437 927.522 60.9 930.774 61.3883L930.031 66.3329ZM910.372 63.7706C907.099 63.4077 903.787 63.0718 900.436 62.7646L900.893 57.7855C904.275 58.0956 907.619 58.4347 910.923 58.801L910.372 63.7706ZM890.565 61.952C887.291 61.7131 883.984 61.502 880.645 61.3202L880.917 56.3276C884.287 56.511 887.625 56.7241 890.929 56.9653L890.565 61.952ZM870.67 60.8694C867.4 60.7517 864.102 60.6626 860.776 60.6033L860.866 55.6041C864.221 55.6639 867.55 55.7539 870.849 55.8726L870.67 60.8694ZM850.813 60.5166C847.525 60.5178 844.212 60.5486 840.875 60.6103L840.783 55.6112C844.15 55.5489 847.493 55.5178 850.811 55.5165L850.813 60.5166ZM830.947 60.8835C827.646 61.0043 824.322 61.1555 820.978 61.3385L820.705 56.346C824.08 56.1613 827.433 56.0087 830.765 55.8869L830.947 60.8835ZM811.095 61.9688C807.798 62.2087 804.483 62.4799 801.151 62.7834L800.697 57.804C804.06 57.4978 807.405 57.2241 810.731 56.9819L811.095 61.9688ZM791.287 63.7714C788.007 64.1299 784.71 64.5202 781.398 64.943L780.765 59.9833C784.107 59.5566 787.433 59.1628 790.744 58.801L791.287 63.7714ZM771.556 66.2908C768.294 66.7676 765.019 67.2764 761.731 67.8183L760.918 62.8848C764.236 62.338 767.541 61.8245 770.832 61.3434L771.556 66.2908ZM751.929 69.5258C748.69 70.1205 745.44 70.7476 742.178 71.4081L741.186 66.5075C744.477 65.841 747.757 65.2081 751.026 64.608L751.929 69.5258ZM732.435 73.4745C729.222 74.1867 726 74.9317 722.768 75.7103L721.597 70.8494C724.858 70.0636 728.11 69.3118 731.353 68.593L732.435 73.4745ZM713.101 78.1338C709.918 78.9631 706.727 79.8254 703.528 80.7215L702.179 75.9069C705.407 75.0025 708.628 74.1322 711.841 73.2953L713.101 78.1338ZM693.955 83.4992C690.804 84.4448 687.647 85.4237 684.485 86.4366L682.96 81.6749C686.152 80.6526 689.338 79.6646 692.517 78.7102L693.955 83.4992ZM675.021 89.5643C671.907 90.6255 668.788 91.7201 665.664 92.8488L663.965 88.1464C667.118 87.0073 670.266 85.9025 673.409 84.8315L675.021 89.5643ZM656.326 96.3209C653.252 97.4966 650.173 98.7059 647.091 99.9493L645.22 95.3126C648.33 94.0576 651.437 92.8372 654.541 91.6506L656.326 96.3209ZM637.895 103.759C634.862 105.048 631.826 106.371 628.789 107.728L626.749 103.162C629.815 101.793 632.878 100.458 635.939 99.1572L637.895 103.759ZM619.748 111.866C616.76 113.267 613.769 114.702 610.779 116.171L608.574 111.683C611.592 110.201 614.61 108.753 617.626 107.339L619.748 111.866ZM601.909 120.628C598.966 122.14 596.023 123.686 593.08 125.266L590.715 120.861C593.685 119.266 596.654 117.707 599.623 116.181L601.909 120.628ZM584.395 130.03C581.5 131.651 578.605 133.306 575.712 134.996L573.191 130.678C576.11 128.974 579.03 127.304 581.951 125.667L584.395 130.03ZM567.223 140.054C564.394 141.773 561.567 143.525 558.742 145.311L556.07 141.085C558.92 139.283 561.772 137.516 564.626 135.781L567.223 140.054ZM550.406 150.684C547.649 152.495 544.893 154.339 542.14 156.217L539.323 152.086C542.1 150.192 544.88 148.332 547.661 146.504L550.406 150.684ZM533.957 161.9C531.273 163.798 528.592 165.729 525.914 167.692L522.958 163.66C525.659 161.68 528.363 159.733 531.07 157.818L533.957 161.9ZM517.89 173.68C515.281 175.661 512.675 177.675 510.073 179.72L506.983 175.788C509.607 173.726 512.235 171.696 514.866 169.698L517.89 173.68ZM502.285 185.944C500.989 186.998 499.694 188.06 498.4 189.13L495.214 185.276C496.519 184.197 497.824 183.127 499.131 182.065L502.285 185.944ZM498.4 189.13C497.079 190.222 495.758 191.301 494.439 192.368L491.296 188.479C492.601 187.424 493.907 186.357 495.214 185.276L498.4 189.13ZM486.538 198.613C483.909 200.644 481.285 202.624 478.665 204.554L475.699 200.529C478.288 198.621 480.882 196.664 483.482 194.656L486.538 198.613ZM470.586 210.36C467.807 212.306 465.034 214.197 462.266 216.032L459.502 211.865C462.234 210.053 464.973 208.187 467.718 206.264L470.586 210.36ZM453.98 221.374C451.121 223.165 448.268 224.897 445.422 226.572L442.886 222.263C445.692 220.612 448.505 218.903 451.326 217.137L453.98 221.374ZM436.706 231.534C433.808 233.128 430.916 234.664 428.033 236.141L425.753 231.691C428.593 230.236 431.44 228.724 434.296 227.153L436.706 231.534ZM418.952 240.613C415.92 242.046 412.896 243.415 409.882 244.722L407.893 240.134C410.857 238.85 413.831 237.503 416.815 236.092L418.952 240.613ZM400.689 248.524C397.537 249.766 394.395 250.939 391.264 252.045L389.598 247.331C392.673 246.244 395.759 245.092 398.857 243.872L400.689 248.524ZM381.901 255.166C378.654 256.183 375.418 257.129 372.195 258.005L370.884 253.18C374.045 252.321 377.219 251.392 380.406 250.394L381.901 255.166ZM362.546 260.43C359.26 261.188 355.988 261.874 352.729 262.49L351.8 257.577C354.993 256.974 358.2 256.301 361.422 255.558L362.546 260.43ZM342.864 264.148C339.545 264.636 336.242 265.052 332.953 265.398L332.431 260.425C335.65 260.087 338.886 259.68 342.137 259.201L342.864 264.148ZM322.956 266.236C319.616 266.444 316.294 266.581 312.989 266.648L312.889 261.649C316.123 261.584 319.375 261.45 322.643 261.245L322.956 266.236ZM302.945 266.635C299.604 266.559 296.282 266.412 292.98 266.196L293.306 261.206C296.538 261.418 299.789 261.562 303.059 261.636L302.945 266.635ZM282.974 265.326C279.654 264.966 276.355 264.536 273.077 264.04L273.826 259.097C277.035 259.582 280.264 260.002 283.514 260.355L282.974 265.326ZM263.188 262.331C259.912 261.693 256.658 260.99 253.427 260.223L254.582 255.358C257.747 256.11 260.934 256.798 264.143 257.423L263.188 262.331ZM243.722 257.71C240.51 256.808 237.322 255.845 234.158 254.821L235.697 250.064C238.799 251.068 241.924 252.012 245.073 252.896L243.722 257.71ZM224.692 251.555C221.561 250.407 218.455 249.201 215.376 247.939L217.272 243.313C220.294 244.551 223.341 245.734 226.413 246.86L224.692 251.555ZM206.19 243.978C203.154 242.603 200.144 241.174 197.163 239.695L199.385 235.216C202.315 236.67 205.271 238.073 208.252 239.423L206.19 243.978ZM188.285 235.1C185.353 233.518 182.449 231.888 179.574 230.213L182.092 225.893C184.92 227.541 187.776 229.144 190.659 230.699L188.285 235.1ZM171.024 225.043C168.203 223.275 165.411 221.464 162.649 219.611L165.434 215.459C168.154 217.283 170.902 219.066 173.679 220.806L171.024 225.043ZM154.438 213.924C151.731 211.988 149.054 210.014 146.408 208.004L149.434 204.022C152.041 206.004 154.679 207.95 157.347 209.857L154.438 213.924ZM138.544 201.85C135.952 199.763 133.393 197.642 130.865 195.49L134.107 191.683C136.6 193.806 139.125 195.898 141.68 197.956L138.544 201.85ZM123.35 188.916C120.875 186.692 118.433 184.439 116.025 182.16L119.462 178.529C121.839 180.778 124.249 183.002 126.692 185.197L123.35 188.916ZM108.862 175.205C106.503 172.856 104.179 170.483 101.891 168.089L105.506 164.635C107.766 166.999 110.06 169.343 112.39 171.662L108.862 175.205ZM95.0822 160.788C92.84 158.324 90.6349 155.841 88.4677 153.342L92.2451 150.066C94.3865 152.535 96.5651 154.988 98.7801 157.422L95.0822 160.788ZM82.0189 145.725C79.8935 143.153 77.8078 140.567 75.7624 137.971L79.6902 134.877C81.7116 137.443 83.7727 139.998 85.8731 142.539L82.0189 145.725ZM69.6844 130.065C67.6769 127.39 65.7123 124.706 63.7912 122.017L67.8597 119.111C69.7582 121.768 71.6997 124.421 73.6836 127.064L69.6844 130.065ZM58.101 113.851C56.2142 111.073 54.3742 108.294 52.582 105.515L56.7838 102.805C58.5544 105.55 60.3724 108.297 62.2368 111.041L58.101 113.851ZM47.3064 97.115C45.5455 94.2342 43.8368 91.3579 42.1812 88.4901L46.5115 85.9903C48.146 88.8217 49.8333 91.662 51.5725 94.5073L47.3064 97.115ZM37.3272 79.8283C35.7138 76.8599 34.1592 73.9048 32.6642 70.9672L37.1203 68.6994C38.5946 71.5963 40.1282 74.5114 41.7202 77.4406L37.3272 79.8283ZM28.2582 61.9983C26.8224 58.9656 25.4529 55.9567 24.1511 52.9765L28.7329 50.9749C30.0141 53.9077 31.3626 56.8706 32.7773 59.8587L28.2582 61.9983ZM20.2698 43.6764C19.0136 40.5162 17.8381 37.3954 16.7451 34.3204L21.4563 32.6458C22.5281 35.6609 23.6818 38.7242 24.9161 41.8295L20.2698 43.6764ZM13.6117 24.9081C12.5875 21.5999 11.6669 18.3555 10.8524 15.1838L15.6952 13.9401C16.4884 17.0287 17.3865 20.1946 18.388 23.4293L13.6117 24.9081Z" fill="#FF8000" />
</svg>