<svg width="297" height="51" viewBox="0 0 297 51" fill="none" xmlns="http://www.w3.org/2000/svg">
<g clip-path="url(#clip0_180_1992)">
<path d="M82.8716 14.3318V39.912H75.6107L75.0766 36.8532C72.8386 39.2336 69.9138 40.43 66.3278 40.43C63.8736 40.43 61.6864 39.8626 59.7917 38.7403C57.8843 37.6179 56.3965 36.0515 55.3283 34.0288C54.2602 32.006 53.7261 29.6996 53.7261 27.1219C53.7261 24.5441 54.2602 22.2254 55.3283 20.2027C56.3965 18.1799 57.8843 16.6135 59.7917 15.4912C61.6991 14.3688 63.8736 13.8138 66.3278 13.8138C68.1081 13.8138 69.7485 14.1098 71.2363 14.7141C72.7241 15.3185 74.0084 16.1942 75.0766 17.3289L75.6107 14.3318H82.8716ZM72.8385 31.8087C74.0084 30.6123 74.6061 29.0583 74.6061 27.1219C74.6061 25.1855 74.0212 23.6314 72.8385 22.4351C71.6687 21.251 70.1554 20.6467 68.2989 20.6467C66.4423 20.6467 64.9418 21.251 63.7846 22.4597C62.6274 23.6684 62.0552 25.2225 62.0552 27.1219C62.0552 29.0213 62.6274 30.5753 63.7846 31.784C64.9418 32.9927 66.4423 33.5971 68.2989 33.5971C70.1554 33.5971 71.6687 33.0051 72.8385 31.8087Z" fill="#FF7F00"/>
<path d="M129.21 16.6136C131.13 18.513 132.096 21.1154 132.096 24.4331V39.912H123.716V25.4692C123.716 23.9521 123.347 22.7681 122.623 21.9294C121.898 21.0907 120.868 20.659 119.558 20.659C118.096 20.659 116.938 21.14 116.086 22.1144C115.234 23.0764 114.802 24.3591 114.802 25.9502V39.9367H106.473V25.4938C106.473 23.9768 106.117 22.7928 105.405 21.9541C104.693 21.1154 103.675 20.6837 102.366 20.6837C100.903 20.6837 99.7461 21.1647 98.8687 22.1391C97.9913 23.1011 97.5589 24.3838 97.5589 25.9749V39.9613H89.179V14.3318H96.4399L96.9231 17.1809C97.8514 16.0709 98.9577 15.2322 100.255 14.6402C101.552 14.0481 102.951 13.7645 104.451 13.7645C106.155 13.7645 107.694 14.1221 109.042 14.8252C110.39 15.5282 111.458 16.5026 112.246 17.7483C114.382 15.0965 117.409 13.7645 121.326 13.7645C124.67 13.7645 127.302 14.7142 129.222 16.6136H129.21Z" fill="#FF7F00"/>
<path d="M161.191 15.5035C163.111 16.6259 164.611 18.1923 165.68 20.215C166.748 22.2377 167.282 24.5441 167.282 27.1342C167.282 29.7243 166.748 32.0307 165.68 34.0411C164.611 36.0638 163.124 37.6302 161.191 38.7526C159.271 39.875 157.083 40.4423 154.629 40.4423C151.348 40.4423 148.627 39.4433 146.465 37.4452V51.0123H138.085V14.3318H145.346L145.88 17.3289C148.093 14.9855 151.005 13.8138 154.642 13.8138C157.096 13.8138 159.283 14.3688 161.204 15.4912L161.191 15.5035ZM157.185 31.8087C158.355 30.6123 158.953 29.0583 158.953 27.1219C158.953 25.1855 158.368 23.6314 157.185 22.4351C156.015 21.251 154.502 20.6467 152.646 20.6467C150.789 20.6467 149.288 21.251 148.131 22.4597C146.974 23.6684 146.402 25.2225 146.402 27.1219C146.402 29.0213 146.974 30.5753 148.131 31.784C149.288 32.9927 150.789 33.5971 152.646 33.5971C154.502 33.5971 156.015 33.0051 157.185 31.8087Z" fill="#1A1A1A"/>
<path d="M199.683 14.3318V39.912H192.422L191.888 36.8532C189.65 39.2336 186.725 40.43 183.139 40.43C180.685 40.43 178.497 39.8626 176.603 38.7403C174.695 37.6179 173.208 36.0515 172.139 34.0288C171.071 32.006 170.537 29.6996 170.537 27.1219C170.537 24.5441 171.071 22.2254 172.139 20.2027C173.208 18.1799 174.695 16.6135 176.603 15.4912C178.51 14.3688 180.685 13.8138 183.139 13.8138C184.919 13.8138 186.56 14.1098 188.047 14.7141C189.535 15.3185 190.819 16.1942 191.888 17.3289L192.422 14.3318H199.683ZM189.65 31.8087C190.819 30.6123 191.417 29.0583 191.417 27.1219C191.417 25.1855 190.832 23.6314 189.65 22.4351C188.48 21.251 186.966 20.6467 185.11 20.6467C183.253 20.6467 181.753 21.251 180.596 22.4597C179.438 23.6684 178.866 25.2225 178.866 27.1219C178.866 29.0213 179.438 30.5753 180.596 31.784C181.753 32.9927 183.253 33.5971 185.11 33.5971C186.966 33.5971 188.48 33.0051 189.65 31.8087Z" fill="#1A1A1A"/>
<path d="M230.087 16.8725C232.033 18.9446 232.999 21.806 232.999 25.4692V39.912H224.619V25.9255C224.619 24.2728 224.187 22.9777 223.335 22.0404C222.483 21.103 221.3 20.6467 219.813 20.6467C218.172 20.6467 216.862 21.177 215.858 22.2501C214.866 23.3231 214.357 24.7168 214.357 26.4435V39.912H205.977V14.3318H213.238L213.772 17.3289C214.802 16.1942 216.036 15.3062 217.485 14.6895C218.935 14.0728 220.525 13.7521 222.267 13.7521C225.535 13.7521 228.142 14.7881 230.087 16.8602V16.8725Z" fill="#1A1A1A"/>
<path d="M259.157 15.3432C261.255 16.3915 262.87 17.8839 263.989 19.7957C265.108 21.7074 265.667 23.9521 265.667 26.5052C265.667 27.3316 265.578 28.3553 265.4 29.564H246.021C246.275 30.8714 247 31.9321 248.208 32.7461C249.416 33.5601 250.967 33.9671 252.849 33.9671C254.172 33.9671 255.443 33.7821 256.69 33.3998C257.936 33.0174 259.004 32.4871 259.894 31.7964L264.268 36.3475C262.768 37.6919 261 38.7279 258.953 39.4556C256.906 40.1833 254.731 40.541 252.417 40.541C249.352 40.541 246.707 39.9983 244.457 38.9129C242.219 37.8276 240.489 36.2859 239.281 34.2755C238.073 32.2774 237.463 29.9093 237.463 27.1836C237.463 24.4578 238.06 22.2254 239.256 20.1903C240.451 18.1553 242.117 16.5766 244.24 15.4542C246.364 14.3318 248.844 13.7768 251.667 13.7768C254.49 13.7768 257.046 14.3071 259.144 15.3555L259.157 15.3432ZM247.865 21.4237C246.809 22.2501 246.224 23.4094 246.072 24.8895H257.707C257.605 23.4094 257.046 22.2501 256.028 21.4237C255.011 20.5974 253.65 20.178 251.946 20.178C250.242 20.178 248.907 20.5974 247.865 21.4237Z" fill="#1A1A1A"/>
<path d="M290.489 15.3432C292.587 16.3915 294.202 17.8839 295.321 19.7957C296.44 21.7074 297 23.9521 297 26.5052C297 27.3316 296.911 28.3553 296.733 29.564H277.353C277.608 30.8714 278.333 31.9321 279.541 32.7461C280.749 33.5601 282.3 33.9671 284.182 33.9671C285.492 33.9671 286.776 33.7821 288.022 33.3998C289.269 33.0174 290.337 32.4871 291.227 31.7964L295.601 36.3475C294.101 37.6919 292.333 38.7279 290.286 39.4556C288.239 40.1833 286.064 40.541 283.75 40.541C280.685 40.541 278.04 39.9983 275.789 38.9129C273.551 37.8276 271.822 36.2859 270.614 34.2755C269.406 32.2774 268.795 29.9093 268.795 27.1836C268.795 24.4578 269.393 22.2254 270.588 20.1903C271.784 18.1553 273.45 16.5766 275.573 15.4542C277.697 14.3318 280.176 13.7768 282.999 13.7768C285.822 13.7768 288.378 14.3071 290.477 15.3555L290.489 15.3432ZM279.197 21.4237C278.155 22.2501 277.557 23.4094 277.404 24.8895H289.04C288.938 23.4094 288.378 22.2501 287.361 21.4237C286.344 20.5974 284.983 20.178 283.279 20.178C281.575 20.178 280.24 20.5974 279.197 21.4237Z" fill="#1A1A1A"/>
<path d="M50.6487 9.02829L48.3216 11.3594L23.0036 39.1349L18.2986 44.3028C17.1542 45.5485 15.1323 45.5115 14.0514 44.2164L9.58803 38.8513L0 27.3562C2.06003 26.4559 4.17092 26.1598 6.01477 26.1598C8.55801 26.1598 10.618 26.7149 11.3556 27.0479C13.1994 27.8619 14.7254 29.2063 15.997 30.7357L16.4548 31.2907L32.6044 13.5794C34.4101 11.606 36.5846 9.95332 39.0642 8.89262C42.4086 7.4619 45.5241 7.21523 50.636 9.04062L50.6487 9.02829Z" fill="#FF7F00"/>
<path d="M27.8231 0V13.6411L17.4976 24.9758L17.4721 25.0005L16.7473 25.7282V0H27.8231Z" fill="#1A1A1A"/>
<path d="M52.6324 47.8672H38.7209C38.1232 47.8672 37.5637 47.6082 37.1822 47.1642L29.0947 37.5439L36.8262 29.0583L52.6324 47.8672Z" fill="#1A1A1A"/>
</g>
<defs>
<clipPath id="clip0_180_1992">
<rect width="297" height="51" fill="white"/>
</clipPath>
</defs>
</svg>
