                            <svg xmlns="http://www.w3.org/2000/svg" width="70" height="70" viewBox="0 0 70 70" fill="none">
                                <path d="M27.7085 40.1043C27.7085 42.9335 29.896 45.2085 32.5794 45.2085H38.0626C40.396 45.2085 42.2918 43.2252 42.2918 40.746C42.2918 38.0919 41.1252 37.1294 39.4044 36.5169L30.6252 33.4544C28.9043 32.8419 27.7377 31.9085 27.7377 29.2252C27.7377 26.7752 29.6335 24.7627 31.9668 24.7627H37.4502C40.1335 24.7627 42.321 27.0377 42.321 29.8669" stroke="#FF8000" stroke-width="4.5" stroke-linecap="round" stroke-linejoin="round" />
                                <path d="M35.0001 21.875V48.125" stroke="#FF8000" stroke-width="4.5" stroke-linecap="round" stroke-linejoin="round" />
                                <path d="M64.1673 35.0002C64.1673 51.1002 51.1006 64.1668 35.0006 64.1668C18.9007 64.1668 5.83398 51.1002 5.83398 35.0002C5.83398 18.9002 18.9007 5.8335 35.0006 5.8335" stroke="#FF8000" stroke-width="4.5" stroke-linecap="round" stroke-linejoin="round" />
                                <path d="M64.1672 17.5002V5.8335H52.5005" stroke="#FF8000" stroke-width="4.5" stroke-linecap="round" stroke-linejoin="round" />
                                <path d="M49.584 20.4168L64.1673 5.8335" stroke="#FF8000" stroke-width="4.5" stroke-linecap="round" stroke-linejoin="round" />
                            </svg>