<svg width="138" height="138" viewBox="0 0 138 138" fill="none" xmlns="http://www.w3.org/2000/svg">
<circle cx="68.9127" cy="68.9127" r="68.9127" fill="#FFF4EB"/>
<path d="M102.58 88.8647L86.5088 98.5489L70.5468 88.9216M86.5088 115.719V98.5299" stroke="#FF7F00" stroke-width="5" stroke-linecap="round" stroke-linejoin="round"/>
<path d="M90.2767 79.4639L99.9958 85.0924C102.198 86.3621 104 89.546 104 92.1612V102.869C104 105.484 102.198 108.668 99.9958 109.938L90.2767 115.566C88.2018 116.76 84.7982 116.76 82.7234 115.566L73.0042 109.938C70.8019 108.668 69 105.484 69 102.869V92.1612C69 89.546 70.8019 86.3621 73.0042 85.0924L82.7234 79.4639C84.8164 78.251 88.2018 78.251 90.2767 79.4639Z" stroke="#FF7F00" stroke-width="5" stroke-linecap="round" stroke-linejoin="round"/>
<path d="M77.4092 99.8552V92.919L94.6816 82.5337" stroke="#FF7F00" stroke-width="5" stroke-linecap="round" stroke-linejoin="round"/>
<path d="M86.5 63.3695V48.1847V40.5924C86.5 36.3992 84.1495 33 81.25 33H60.25H39.25C36.3505 33 34 36.3992 34 40.5924V86.1466C34 90.3397 36.3505 93.7389 39.25 93.7389H60.25M44.9496 48.1847H63.4787M44.9496 57.2956H63.4787M44.9496 66.4064H63.4787M44.9496 75.5173H63.4787" stroke="#FF7F00" stroke-width="5" stroke-linecap="round"/>
<path d="M77.75 57.1191L85.2626 65.6481C85.9459 66.4239 87.054 66.4239 87.7374 65.6481L95.25 57.1191" stroke="#FF7F00" stroke-width="2.69231" stroke-linecap="round"/>
</svg>
