<svg width="138" height="138" viewBox="0 0 138 138" fill="none" xmlns="http://www.w3.org/2000/svg">
<circle cx="68.9127" cy="68.9127" r="68.9127" fill="#FFF4EB"/>
<path d="M89.2935 73.2311C90.6742 73.2311 91.7935 74.3504 91.7935 75.7311C91.7935 77.1118 90.6742 78.2311 89.2935 78.2311V73.2311ZM83.117 78.2311C81.7363 78.2311 80.617 77.1118 80.617 75.7311C80.617 74.3504 81.7363 73.2311 83.117 73.2311V78.2311ZM89.2935 63.607C90.6742 63.607 91.7935 64.7262 91.7935 66.107C91.7935 67.4877 90.6742 68.607 89.2935 68.607V63.607ZM74.7344 68.607C73.3537 68.607 72.2344 67.4877 72.2344 66.107C72.2344 64.7262 73.3537 63.607 74.7344 63.607V68.607ZM67.5284 72.2343C67.5284 73.615 66.4091 74.7343 65.0284 74.7343C63.6476 74.7343 62.5284 73.615 62.5284 72.2343H67.5284ZM91.1861 102.292C89.8054 102.292 88.6861 101.172 88.6861 99.7915C88.6861 98.4108 89.8054 97.2915 91.1861 97.2915V102.292ZM96.3836 99.2498L95.2388 97.0273L95.2389 97.0273L96.3836 99.2498ZM98.4531 97.1977L100.668 98.3578L100.668 98.3578L98.4531 97.1977ZM67.6443 57.0246L68.789 59.2471L68.789 59.2471L67.6443 57.0246ZM65.5747 59.0766L67.7893 60.2368L67.7893 60.2368L65.5747 59.0766ZM96.3836 57.0246L97.5284 54.8021L97.5284 54.8021L96.3836 57.0246ZM98.4531 59.0766L100.668 57.9165L100.668 57.9165L98.4531 59.0766ZM89.2935 78.2311H83.117V73.2311H89.2935V78.2311ZM89.2935 68.607H74.7344V63.607H89.2935V68.607ZM91.1861 58.9828H72.8417V53.9828H91.1861V58.9828ZM67.5284 64.2302V72.2343H62.5284V64.2302H67.5284ZM96.4995 92.0441V64.2302H101.5V92.0441H96.4995ZM91.1861 97.2915C92.6096 97.2915 93.5257 97.2896 94.2217 97.2323C94.8884 97.1773 95.1274 97.0847 95.2388 97.0273L97.5284 101.472C96.588 101.957 95.6101 102.135 94.632 102.215C93.6832 102.294 92.5264 102.292 91.1861 102.292V97.2915ZM101.5 92.0441C101.5 93.372 101.502 94.5221 101.422 95.4661C101.341 96.4407 101.16 97.4182 100.668 98.3578L96.2386 96.0376C96.2927 95.9342 96.385 95.7052 96.4399 95.0488C96.4975 94.3619 96.4995 93.4566 96.4995 92.0441H101.5ZM95.2389 97.0273C95.6702 96.8051 96.0182 96.4583 96.2386 96.0376L100.668 98.3578C99.9672 99.6949 98.8698 100.781 97.5284 101.472L95.2389 97.0273ZM72.8417 58.9828C71.4182 58.9828 70.5022 58.9848 69.8062 59.0421C69.1395 59.097 68.9005 59.1897 68.789 59.2471L66.4995 54.8021C67.4399 54.3177 68.4178 54.1395 69.3959 54.0589C70.3447 53.9808 71.5015 53.9828 72.8417 53.9828V58.9828ZM62.5284 64.2302C62.5284 62.9023 62.5263 61.7522 62.6054 60.8082C62.687 59.8336 62.868 58.8561 63.3602 57.9165L67.7893 60.2368C67.7351 60.3401 67.6429 60.5692 67.5879 61.2255C67.5304 61.9125 67.5284 62.8177 67.5284 64.2302H62.5284ZM68.789 59.2471C68.3577 59.4693 68.0097 59.816 67.7893 60.2368L63.3602 57.9165C64.0607 56.5794 65.1581 55.493 66.4995 54.8021L68.789 59.2471ZM91.1861 53.9828C92.5264 53.9828 93.6832 53.9808 94.632 54.0589C95.6101 54.1395 96.588 54.3177 97.5284 54.8021L95.2388 59.2471C95.1274 59.1897 94.8884 59.097 94.2217 59.0421C93.5257 58.9848 92.6096 58.9828 91.1861 58.9828V53.9828ZM96.4995 64.2302C96.4995 62.8177 96.4975 61.9125 96.4399 61.2255C96.385 60.5692 96.2927 60.3401 96.2386 60.2368L100.668 57.9165C101.16 58.8561 101.341 59.8336 101.422 60.8082C101.502 61.7522 101.5 62.9023 101.5 64.2302H96.4995ZM97.5284 54.8021C98.8698 55.493 99.9672 56.5794 100.668 57.9165L96.2386 60.2368C96.0182 59.816 95.6702 59.4692 95.2388 59.2471L97.5284 54.8021Z" fill="#FF7F00"/>
<path d="M62.3396 53.0355C70.3959 53.0355 76.9268 46.5357 76.9268 38.5177C76.9268 30.4998 70.3959 24 62.3396 24C54.2833 24 47.7523 30.4998 47.7523 38.5177C47.7523 46.5357 54.2833 53.0355 62.3396 53.0355ZM62.3396 53.0355C49.4495 53.0355 39 60.8352 39 70.4567V83.8345" stroke="#FF7F00" stroke-width="5" stroke-linecap="round"/>
<path d="M71.3465 93.8412L67.4978 97.4197L63.6491 100.998C63.339 101.227 62.8361 101.227 62.526 100.998L59.1169 98.4834M81.3525 98.0692C81.3525 106.631 74.2416 113.572 65.4699 113.572C56.6983 113.572 49.5874 106.631 49.5874 98.0692C49.5874 89.5074 56.6983 82.5667 65.4699 82.5667C74.2416 82.5667 81.3525 89.5074 81.3525 98.0692Z" stroke="#FF7F00" stroke-width="5" stroke-linecap="round"/>
</svg>
