<svg width="138" height="138" viewBox="0 0 138 138" fill="none" xmlns="http://www.w3.org/2000/svg">
<circle cx="68.9127" cy="68.9127" r="68.9127" fill="#FFF4EB"/>
<path d="M32.7869 57.7655C31.7968 58.7278 31.7742 60.3106 32.7365 61.3007C33.6989 62.2908 35.2816 62.3133 36.2717 61.351L32.7869 57.7655ZM61.9774 61.351C62.9675 62.3133 64.5503 62.2908 65.5126 61.3007C66.4749 60.3106 66.4524 58.7278 65.4623 57.7655L61.9774 61.351ZM71.5368 96.5155C70.5467 97.4778 70.5242 99.0606 71.4865 100.051C72.4488 101.041 74.0316 101.063 75.0217 100.101L71.5368 96.5155ZM100.727 100.101C101.717 101.063 103.3 101.041 104.263 100.051C105.225 99.0606 105.202 97.4778 104.212 96.5155L100.727 100.101ZM78.0293 40.4497C76.7219 40.0056 75.3021 40.7054 74.858 42.0127C74.4138 43.32 75.1136 44.7399 76.4209 45.184L78.0293 40.4497ZM90.698 57.8403C91.2958 59.0849 92.7893 59.6092 94.0339 59.0114C95.2785 58.4136 95.8029 56.9201 95.2051 55.6755L90.698 57.8403ZM58.9705 96.5508C60.2779 96.9949 61.6977 96.2952 62.1418 94.9878C62.586 93.6805 61.8862 92.2606 60.5789 91.8165L58.9705 96.5508ZM46.5241 79.6113C45.9012 78.3791 44.3973 77.8851 43.1651 78.5081C41.9329 79.131 41.4389 80.6348 42.0618 81.867L46.5241 79.6113ZM81.6278 53.9497C80.3205 53.5056 78.9006 54.2054 78.4565 55.5127C78.0124 56.82 78.7121 58.2399 80.0195 58.684L81.6278 53.9497ZM91.8308 60.0562L91.0266 62.4234L91.8308 60.0562ZM96.7463 57.6336L99.1134 58.4378L96.7463 57.6336ZM102.23 49.2652C102.674 47.9578 101.974 46.538 100.667 46.0939C99.3593 45.6497 97.9394 46.3495 97.4953 47.6568L102.23 49.2652ZM55.3716 83.0506C56.6789 83.4948 58.0988 82.795 58.5429 81.4877C58.987 80.1803 58.2872 78.7605 56.9799 78.3164L55.3716 83.0506ZM45.1686 76.9441L44.3644 79.3113H44.3644L45.1686 76.9441ZM40.2531 79.3667L37.8859 78.5626L40.2531 79.3667ZM34.7698 87.7352C34.3257 89.0425 35.0254 90.4624 36.3328 90.9065C37.6401 91.3506 39.0599 90.6509 39.5041 89.3435L34.7698 87.7352ZM36.2717 61.351C43.3622 54.4595 54.8869 54.4595 61.9774 61.351L65.4623 57.7655C56.4313 48.988 41.8179 48.988 32.7869 57.7655L36.2717 61.351ZM56.4143 43.0236C56.4143 46.7669 53.2718 49.9221 49.2443 49.9221V54.9221C55.898 54.9221 61.4143 49.6616 61.4143 43.0236H56.4143ZM49.2443 49.9221C45.2168 49.9221 42.0743 46.7669 42.0743 43.0236H37.0743C37.0743 49.6616 42.5906 54.9221 49.2443 54.9221V49.9221ZM42.0743 43.0236C42.0743 39.2802 45.2168 36.125 49.2443 36.125V31.125C42.5906 31.125 37.0743 36.3855 37.0743 43.0236H42.0743ZM49.2443 36.125C53.2718 36.125 56.4143 39.2802 56.4143 43.0236H61.4143C61.4143 36.3855 55.898 31.125 49.2443 31.125V36.125ZM75.0217 100.101C82.1122 93.2095 93.6368 93.2095 100.727 100.101L104.212 96.5155C95.1812 87.738 80.5678 87.738 71.5368 96.5155L75.0217 100.101ZM95.1643 81.7736C95.1643 85.5169 92.0217 88.6721 87.9943 88.6721V93.6721C94.648 93.6721 100.164 88.4116 100.164 81.7736H95.1643ZM87.9943 88.6721C83.9668 88.6721 80.8243 85.5169 80.8243 81.7736H75.8243C75.8243 88.4116 81.3405 93.6721 87.9943 93.6721V88.6721ZM80.8243 81.7736C80.8243 78.0302 83.9668 74.875 87.9943 74.875V69.875C81.3405 69.875 75.8243 75.1355 75.8243 81.7736H80.8243ZM87.9943 74.875C92.0217 74.875 95.1643 78.0302 95.1643 81.7736H100.164C100.164 75.1355 94.648 69.875 87.9943 69.875V74.875ZM76.4209 45.184C82.9456 47.4006 87.9314 52.0802 90.698 57.8403L95.2051 55.6755C91.8807 48.7541 85.8777 43.116 78.0293 40.4497L76.4209 45.184ZM60.5789 91.8165C54.225 89.658 49.3311 85.1641 46.5241 79.6113L42.0618 81.867C45.4353 88.5403 51.3284 93.9546 58.9705 96.5508L60.5789 91.8165ZM80.0195 58.684L91.0266 62.4234L92.635 57.6891L81.6278 53.9497L80.0195 58.684ZM99.1134 58.4378L102.23 49.2652L97.4953 47.6568L94.3792 56.8295L99.1134 58.4378ZM91.0266 62.4234C94.3603 63.5559 97.9809 61.7715 99.1134 58.4378L94.3792 56.8295C94.1349 57.5485 93.354 57.9334 92.635 57.6891L91.0266 62.4234ZM56.9799 78.3164L45.9727 74.577L44.3644 79.3113L55.3716 83.0506L56.9799 78.3164ZM37.8859 78.5626L34.7698 87.7352L39.5041 89.3435L42.6202 80.1709L37.8859 78.5626ZM45.9727 74.577C42.6391 73.4445 39.0185 75.2289 37.8859 78.5626L42.6202 80.1709C42.8645 79.4519 43.6454 79.067 44.3644 79.3113L45.9727 74.577Z" fill="#FF7F00"/>
</svg>
