<svg width="70" height="70" viewBox="0 0 70 70" fill="none" xmlns="http://www.w3.org/2000/svg">
<path d="M8.7785 32.7256V45.8214C8.7785 58.9173 14.0285 64.1673 27.1243 64.1673H42.8452C55.941 64.1673 61.191 58.9173 61.191 45.8214V32.7256" stroke="#FF7F00" stroke-width="4.375" stroke-linecap="round" stroke-linejoin="round"/>
<path d="M35 35.0002C40.3375 35.0002 44.275 30.6543 43.75 25.3168L41.825 5.8335H28.2041L26.25 25.3168C25.725 30.6543 29.6625 35.0002 35 35.0002Z" stroke="#FF7F00" stroke-width="4.375" stroke-linecap="round" stroke-linejoin="round"/>
<path d="M53.4038 35.0002C59.2955 35.0002 63.6122 30.2168 63.0288 24.3543L62.2122 16.3335C61.1622 8.75016 58.2455 5.8335 50.6038 5.8335H41.708L43.7497 26.2793C44.2455 31.0918 48.5913 35.0002 53.4038 35.0002Z" stroke="#FF7F00" stroke-width="4.375" stroke-linecap="round" stroke-linejoin="round"/>
<path d="M16.4497 35.0002C21.2622 35.0002 25.608 31.0918 26.0747 26.2793L26.7163 19.8335L28.1163 5.8335H19.2205C11.5788 5.8335 8.66216 8.75016 7.61216 16.3335L6.82466 24.3543C6.24132 30.2168 10.558 35.0002 16.4497 35.0002Z" stroke="#FF7F00" stroke-width="4.375" stroke-linecap="round" stroke-linejoin="round"/>
<path d="M35 49.5835C30.1292 49.5835 27.7083 52.0043 27.7083 56.8752V64.1668H42.2917V56.8752C42.2917 52.0043 39.8708 49.5835 35 49.5835Z" stroke="#FF7F00" stroke-width="4.375" stroke-linecap="round" stroke-linejoin="round"/>
</svg>
