<svg width="29" height="30" viewBox="0 0 29 30" fill="none" xmlns="http://www.w3.org/2000/svg">
<path d="M14.321 3.37922C7.82323 3.37922 2.54097 8.66148 2.53204 15.1593C2.53204 17.3848 3.15768 19.5567 4.33748 21.4247L4.61455 21.8716L3.42582 26.2154L7.88579 25.0445L8.31481 25.3037C10.1202 26.3762 12.1938 26.9483 14.3121 26.9483H14.321C20.8099 26.9483 26.2351 21.666 26.2351 15.1682C26.2351 12.0221 24.8766 9.06368 22.6511 6.83816C20.4166 4.60371 17.4671 3.37922 14.321 3.37922ZM21.2478 20.2181C20.9529 21.0493 19.5407 21.8001 18.8614 21.8984C17.7353 22.0682 16.8594 21.9788 14.616 21.0136C11.0677 19.4762 8.74382 15.9011 8.56507 15.6687C8.38631 15.4363 7.11714 13.7471 7.11714 12.0042C7.11714 10.2613 8.0288 9.40332 8.3595 9.0458C8.68126 8.68829 9.06559 8.59891 9.30691 8.59891C9.53929 8.59891 9.78061 8.59891 9.98618 8.60785C10.2007 8.61679 10.4956 8.52741 10.7816 9.21562C11.0766 9.92171 11.7827 11.6646 11.8721 11.8433C11.9614 12.0221 12.024 12.2277 11.8989 12.4601C11.2196 13.8186 10.4956 13.765 10.8621 14.3906C12.2296 16.7413 13.5971 17.5546 15.6796 18.6003C16.0371 18.7791 16.2427 18.7523 16.4482 18.511C16.6538 18.2786 17.3331 17.4742 17.5655 17.1256C17.7978 16.7681 18.0392 16.8306 18.3609 16.9468C18.6827 17.063 20.4256 17.9211 20.7831 18.0998C21.1406 18.2786 21.373 18.368 21.4623 18.511C21.5428 18.6808 21.5428 19.3958 21.2478 20.2181ZM14.3121 29.3347C11.9346 29.3347 9.60186 28.7358 7.53722 27.6097L0.0205078 29.5849L2.03152 22.238C0.789161 20.093 0.1367 17.6529 0.1367 15.1503C0.145638 7.33868 6.50043 0.983887 14.3121 0.983887C18.1017 0.983887 21.659 2.45863 24.3403 5.13998C27.0127 7.82132 28.6215 11.3786 28.6215 15.1682C28.6215 22.9799 22.1237 29.3347 14.3121 29.3347Z" fill="white"/>
</svg>
